<svg xmlns="http://www.w3.org/2000/svg" width="141" height="90" viewBox="0 0 141 90">
  <g id="logo-OPUS" transform="translate(-4 31.116)">
    <g id="logo-transp-opus" transform="translate(4)">
      <path id="Path_1" data-name="Path 1" d="M863.876,1213.547v.027c.518,0,1.036,0,1.555,0,.354,0,.543-.106.507-.517-.1-1.1-.117-2.2-.259-3.292a4.5,4.5,0,0,0-1.757-3.054,10.109,10.109,0,0,0-4.858-1.741,21.064,21.064,0,0,0-3.153-.206,76.605,76.605,0,0,0-11.636.361,9.119,9.119,0,0,0-3.761,1.294,4.027,4.027,0,0,0-1.976,2.549c-.247,1.346-.3,2.729-.459,4.092-.048.416.142.516.5.513,1.02-.013,2.04-.029,3.06-.022.312,0,.4-.106.435-.412a19.488,19.488,0,0,1,.409-2.636,3.124,3.124,0,0,1,2.04-2.548,7.3,7.3,0,0,1,1.924-.292c3.13-.028,6.263-.07,9.39.017a21.959,21.959,0,0,1,3.9.6,2.009,2.009,0,0,1,1.421,1.053,10.433,10.433,0,0,1,.779,3.746c.039.35.122.489.487.468.482-.027.968-.007,1.452-.007m-11.9,12.684a40.935,40.935,0,0,0,8.2-.36,9.1,9.1,0,0,0,3.55-1.38,4.1,4.1,0,0,0,1.74-2.246,16.851,16.851,0,0,0,.479-4.757c-.005-.276-.113-.371-.365-.371-1.088,0-2.178-.01-3.267.013a.485.485,0,0,0-.336.319c-.161,1-.223,2.019-.44,3a3.248,3.248,0,0,1-1.494,2.343,4.843,4.843,0,0,1-1.846.535c-1.187.095-2.384.049-3.577.073a68.541,68.541,0,0,1-9.719-.251,2.321,2.321,0,0,1-1.661-1.074,8.531,8.531,0,0,1-1.166-4.463c-.026-.373-.115-.516-.5-.508-.984.021-1.972.026-2.956,0-.443-.011-.578.153-.539.573.035.359-.018.727.022,1.084a21.935,21.935,0,0,0,.47,3.515,4.594,4.594,0,0,0,2.677,2.775,14.132,14.132,0,0,0,5.5,1.16c1.741.09,3.49.019,5.236.019M834.568,1203.9c.122-.279.246-.556.365-.836a3.4,3.4,0,0,1,3.322-2.177q13.75-.047,27.5-.009a3.65,3.65,0,0,1,3.666,3.722q0,10.846,0,21.692a3.613,3.613,0,0,1-2.293,3.581,3.451,3.451,0,0,1-1.346.3q-13.778.025-27.556,0a3.617,3.617,0,0,1-3.467-2.618c-.027-.095-.129-.17-.2-.253Z" transform="translate(-834.568 -1200.867)" fill="#05446c"/>
      <path id="Path_2" data-name="Path 2" d="M927.506,1211.955h3.279c.04.452.057.912.126,1.364.177,1.174.56,1.641,1.755,1.723,2.134.146,4.276.206,6.415.228a24.414,24.414,0,0,0,3.253-.222c1.685-.21,1.922-1.547,1.508-2.765a1.063,1.063,0,0,0-.964-.759c-1.481-.1-2.963-.2-4.447-.245a34.152,34.152,0,0,1-6.191-.467c-.22-.047-.438-.1-.653-.161-2.372-.692-3.418-1.988-3.443-4.458a8.371,8.371,0,0,1,.367-2.583,3.434,3.434,0,0,1,3.043-2.23,36.663,36.663,0,0,1,6.768-.4,22.219,22.219,0,0,1,5.341.586,3.867,3.867,0,0,1,3.044,3.612c.078.612.095,1.231.143,1.9h-3.207c-.043-.457-.059-.919-.135-1.371a1.556,1.556,0,0,0-1.427-1.417,24.473,24.473,0,0,0-2.989-.272c-2,0-4.006.057-6,.186a1.673,1.673,0,0,0-1.7,1.4,1.819,1.819,0,0,0,1.314,2.17,45.51,45.51,0,0,0,4.62.512c2.136.148,4.287.126,6.414.342a3.385,3.385,0,0,1,3.416,3.319,8.423,8.423,0,0,1-.1,2.967c-.437,1.94-1.926,2.773-3.771,3.024a39.688,39.688,0,0,1-11.465,0,9.356,9.356,0,0,1-1.938-.542,3.568,3.568,0,0,1-2.153-3.064c-.126-.76-.145-1.539-.219-2.38" transform="translate(-807.104 -1200.834)" fill="#05446c"/>
      <path id="Path_3" data-name="Path 3" d="M877.487,1215.269v.057c.725,0,1.452.008,2.179,0s1.452-.026,2.177-.061a2.494,2.494,0,0,0,2.67-2.239,20.949,20.949,0,0,0,.065-6.342c-.259-1.9-.583-2.252-2.5-2.372-2.514-.161-5.039-.177-7.561-.228a17.227,17.227,0,0,0-2.069.116,2.206,2.206,0,0,0-2.132,1.86,20.129,20.129,0,0,0-.144,6.489c.2,1.735.8,2.62,3.111,2.711,1.4.056,2.8.01,4.2.01m-.115-14.322c1.9.113,3.8.158,5.682.368a8.341,8.341,0,0,1,2.548.805,3.931,3.931,0,0,1,2.257,3.466,47.164,47.164,0,0,1-.01,8.315,4.2,4.2,0,0,1-2.982,3.732,12.3,12.3,0,0,1-4.38.672q-3.6.023-7.2-.044a9.556,9.556,0,0,1-3.871-.847,4.056,4.056,0,0,1-2.5-3.524,47.849,47.849,0,0,1-.009-8.264,4.115,4.115,0,0,1,3.183-3.887,20.784,20.784,0,0,1,3.815-.631c1.148-.1,2.312-.021,3.469-.021,0-.048,0-.094.005-.141" transform="translate(-825.065 -1200.843)" fill="#05446c"/>
      <path id="Path_4" data-name="Path 4" d="M891.723,1209.137a.783.783,0,0,0,.149.044c3.542,0,7.083.014,10.625,0a1.481,1.481,0,0,0,1.554-1.252,6.989,6.989,0,0,0,.121-1.838,1.785,1.785,0,0,0-2.034-1.889q-4.924,0-9.847,0h-.567Zm-.03,3.07v5.836h-3.235v-16.82c.166-.009.333-.025.5-.025,4.5,0,8.993-.013,13.49.012a7.538,7.538,0,0,1,2.038.287,3.756,3.756,0,0,1,2.579,2.492,7.919,7.919,0,0,1,.08,5.085,4.362,4.362,0,0,1-4.169,3.1c-3.526.058-7.055.028-10.583.036h-.7" transform="translate(-818.643 -1200.769)" fill="#05446c"/>
      <path id="Path_5" data-name="Path 5" d="M907.279,1201.211H910.5c.014.242.04.474.041.707,0,3.589.036,7.177-.014,10.764-.022,1.632.623,2.487,2.467,2.572,2.639.122,5.289.053,7.935.015a3.693,3.693,0,0,0,1.431-.4,1.858,1.858,0,0,0,1.022-1.882q0-5.616,0-11.231v-.531h3.269v.565c0,3.8.01,7.59-.009,11.386a7.92,7.92,0,0,1-.225,1.839,4.043,4.043,0,0,1-3.82,3.177,14.425,14.425,0,0,1-1.652.1c-2.819.01-5.638.022-8.457-.008a9.446,9.446,0,0,1-1.992-.269,3.955,3.955,0,0,1-3.141-3.663,8.377,8.377,0,0,1-.093-1.235q-.012-5.666,0-11.334c0-.17.016-.339.027-.571" transform="translate(-813.089 -1200.765)" fill="#05446c"/>
      <path id="Path_6" data-name="Path 6" d="M902.442,1218.147c.617,0,1.2-.025,1.782.018.139.01.317.225.381.385.5,1.246.972,2.5,1.455,3.754.052.136.115.267.224.517.44-1.169.845-2.219,1.232-3.278.514-1.4.509-1.407,2.021-1.4H910a4.269,4.269,0,0,1,.048.453c.005,1.95,0,3.9.016,5.849,0,.381-.1.536-.5.5-.323-.03-.65-.006-1.013-.006v-3.906c-.027-.01-.054-.021-.083-.03a1.854,1.854,0,0,0-.151.254c-.439,1.105-.9,2.2-1.3,3.322-.2.556-.61.3-.943.358a.493.493,0,0,1-.633-.358c-.405-1.117-.851-2.219-1.281-3.327a.573.573,0,0,0-.227-.3v3.942h-1.5Z" transform="translate(-814.511 -1195.763)" fill="#05446c"/>
      <path id="Path_7" data-name="Path 7" d="M898.072,1221.548a1.935,1.935,0,0,0,0-.259,2.062,2.062,0,0,0-1.044-1.788,1.946,1.946,0,0,0-2.062.153,2.682,2.682,0,0,0-.634,2.894,1.687,1.687,0,0,0,1.32,1.24c1.461.268,2.436-.638,2.423-2.24m1.577.04a3.537,3.537,0,1,1-3.55-3.58,3.374,3.374,0,0,1,3.55,3.58" transform="translate(-817.426 -1195.801)" fill="#05446c"/>
      <path id="Path_8" data-name="Path 8" d="M921.286,1222.5h1.468a1.664,1.664,0,0,0,2.362,1.263.752.752,0,0,0,.606-.742c0-.42-.309-.563-.623-.652-.729-.2-1.478-.34-2.2-.558a1.729,1.729,0,0,1-1.382-1.915,1.847,1.847,0,0,1,1.288-1.6,3.812,3.812,0,0,1,3.164.1,1.919,1.919,0,0,1,1.1,2.034c-.417,0-.843.018-1.267-.013-.1-.006-.243-.157-.277-.268a1.459,1.459,0,0,0-2.208-.585.614.614,0,0,0-.167.532,1.047,1.047,0,0,0,.549.47c.674.211,1.37.347,2.051.532a1.892,1.892,0,0,1,1.566,1.75,1.917,1.917,0,0,1-1.352,1.982,3.989,3.989,0,0,1-3.854-.358,2.009,2.009,0,0,1-.821-1.974" transform="translate(-808.946 -1195.805)" fill="#05446c"/>
      <path id="Path_9" data-name="Path 9" d="M887.968,1218.161v2.491H885.13v-2.49h-1.544v6.747h1.569v-2.87h2.83v2.88h1.557v-6.759Z" transform="translate(-820.083 -1195.756)" fill="#05446c"/>
      <path id="Path_10" data-name="Path 10" d="M918.382,1219.457H914.59v1.318h3.48v1.28H914.6v1.507h3.82v1.375q-1.731,0-3.459,0c-.537,0-1.073.021-1.607,0-.125-.005-.347-.154-.347-.237-.02-2.167-.016-4.335-.016-6.531h5.387Z" transform="translate(-811.392 -1195.755)" fill="#05446c"/>
    </g>
  </g>
</svg>
