<svg id="logo-deco-wht" xmlns="http://www.w3.org/2000/svg" xmlns:xlink="http://www.w3.org/1999/xlink" width="109.478" height="29.343" viewBox="0 0 109.478 29.343">
  <defs>
    <clipPath id="clip-path">
      <rect id="Rectangle_446" data-name="Rectangle 446" width="109.478" height="29.343" fill="#fff"/>
    </clipPath>
  </defs>
  <path id="Path_20815" data-name="Path 20815" d="M146.584,29.638V16.549h10.865l0-1.3H146.584V4.157h15.309v-1.3H141.986V30.01l-.019.926h19.984l-.188-1.3Z" transform="translate(-110.548 -2.226)" fill="#fff"/>
  <g id="Group_1483" data-name="Group 1483">
    <g id="Group_1482" data-name="Group 1482" clip-path="url(#clip-path)">
      <path id="Path_20816" data-name="Path 20816" d="M382.237,8.86h0a15.318,15.318,0,0,0-3.089-4.642,14.67,14.67,0,0,0-4.391-3.092A12.207,12.207,0,0,0,369.667,0h-4.16a11.746,11.746,0,0,0-4.917,1.127,14.99,14.99,0,0,0-4.389,3.09,16.3,16.3,0,0,0-3.183,4.635,13.79,13.79,0,0,0-1.243,5.839,15.209,15.209,0,0,0,1.022,5.489,14.979,14.979,0,0,0,2.855,4.683,14.128,14.128,0,0,0,4.356,3.254,12.51,12.51,0,0,0,5.5,1.227h4.16a11.908,11.908,0,0,0,5.408-1.268,14.824,14.824,0,0,0,4.351-3.307,15.7,15.7,0,0,0,2.91-4.679,14.379,14.379,0,0,0,1.063-5.4,14.583,14.583,0,0,0-1.163-5.83m-23.351,15.95a11.8,11.8,0,0,1-1.482-4.163,34.206,34.206,0,0,1-.455-5.957,36.868,36.868,0,0,1,.341-5.069,13.727,13.727,0,0,1,1.287-4.293,7.529,7.529,0,0,1,2.594-2.942A7.791,7.791,0,0,1,365.507,1.3h4.16A7.8,7.8,0,0,1,374,2.385,7.529,7.529,0,0,1,376.6,5.328a13.682,13.682,0,0,1,1.286,4.293,36.749,36.749,0,0,1,.342,5.069,34.363,34.363,0,0,1-.455,5.957h0a11.828,11.828,0,0,1-1.483,4.163,6.428,6.428,0,0,1-2.626,2.43,8.987,8.987,0,0,1-4,.8h-4.16a8.965,8.965,0,0,1-4.012-.8,6.464,6.464,0,0,1-2.609-2.431" transform="translate(-273.921 0.001)" fill="#fff"/>
      <path id="Path_20817" data-name="Path 20817" d="M254.156,29.561c-2.557.012-7.077-.031-8.613-.456a9.171,9.171,0,0,1-1.065-.387,8.359,8.359,0,0,1-3.361-2.586,10.722,10.722,0,0,1-1.832-4.076,23.982,23.982,0,0,1-.563-5.277,23.994,23.994,0,0,1,.563-5.279,10.716,10.716,0,0,1,1.832-4.076,8.354,8.354,0,0,1,3.36-2.587,9.158,9.158,0,0,1,1.058-.385c1.546-.429,6.067-.472,8.618-.459l2.022.025c.4,0,3.439.007,3.439.007H260v-1.3h-6.04q-.53,0-1.06-.018c-.248-.009-3.154,0-5.162.027l-.47.007a15.96,15.96,0,0,0-8.659,2.9,12.945,12.945,0,0,0-1.089.924l-.142.133a11.734,11.734,0,0,0-1.635,1.993,12.962,12.962,0,0,0-1.66,3.795,17.032,17.032,0,0,0-.53,4.277v.024a17.035,17.035,0,0,0,.53,4.278,12.948,12.948,0,0,0,1.66,3.794,11.667,11.667,0,0,0,1.636,1.993l.142.134a12.986,12.986,0,0,0,1.09.924,15.951,15.951,0,0,0,8.665,2.9l.462.007c.827.011,3.036.014,5.328.014,3.169,0,6.5-.006,6.555-.006L260,30.8V29.527l-.383,0s-4.7.022-5.457.032" transform="translate(-181.859 -2.106)" fill="#fff"/>
      <path id="Path_20818" data-name="Path 20818" d="M24.258,8.692A11.716,11.716,0,0,0,22.621,6.7l-.141-.132a13.043,13.043,0,0,0-1.089-.924,15.962,15.962,0,0,0-8.668-2.9l-.46-.007C10.254,2.706,7.348,2.7,7.1,2.707q-.531.019-1.061.018H.889L0,2.738V30.827H6.04c.353,0,.707.006,1.062.019.061,0,.283,0,.613,0,1.01,0,3.034-.01,4.55-.03l.467-.008a15.945,15.945,0,0,0,8.661-2.9,13.038,13.038,0,0,0,1.088-.924l.141-.133a11.668,11.668,0,0,0,1.636-1.993,12.941,12.941,0,0,0,1.66-3.794,16.99,16.99,0,0,0,.53-4.278v-.024a17.017,17.017,0,0,0-.531-4.277,12.946,12.946,0,0,0-1.66-3.795M4.4,4.01l1.443-.017c2.556-.013,7.075.029,8.616.457a9.26,9.26,0,0,1,1.063.386,8.354,8.354,0,0,1,3.36,2.587A10.7,10.7,0,0,1,20.71,11.5a23.929,23.929,0,0,1,.564,5.276,23.942,23.942,0,0,1-.564,5.28,10.707,10.707,0,0,1-1.831,4.077,8.355,8.355,0,0,1-3.36,2.586,9.307,9.307,0,0,1-1.057.385c-1.55.429-6.067.471-8.619.459L4.4,29.542Z" transform="translate(0 -2.105)" fill="#fff"/>
    </g>
  </g>
</svg>
