<svg xmlns="http://www.w3.org/2000/svg" width="185.706" height="32.864" viewBox="0 0 185.706 32.864">
  <g id="logo-GP-wht" transform="translate(0 0)">
    <path id="Path_43" data-name="Path 43" d="M704.135,1220.454a7.41,7.41,0,0,1-6.018,2.668c-6.255,0-10.111-4.863-10.111-10.881,0-8.064,5.663-11.3,10.437-11.3,5.395,0,8.8,2.935,9.753,7.916H701.94a3.1,3.1,0,0,0-3.083-2.639c-4.477,0-4.329,4.714-4.329,6.167,0,1.986.8,5.455,4.774,5.455a3.234,3.234,0,0,0,3.38-2.342h-2.877v-4.536h8.658v11.651h-4.122Z" transform="translate(-661.471 -1199.464)" fill="#fff"/>
    <path id="Path_44" data-name="Path 44" d="M704,1205.6h5.632v2.461h.059a4.5,4.5,0,0,1,4.329-2.847,6.685,6.685,0,0,1,1.719.238v5.188a5.933,5.933,0,0,0-2.311-.384c-2.313,0-3.558,1.362-3.558,4.654v6.077H704Z" transform="translate(-655.363 -1197.833)" fill="#fff"/>
    <path id="Path_45" data-name="Path 45" d="M724.18,1211.56a2.527,2.527,0,0,0-2.58-2.58,2.786,2.786,0,0,0-3.025,2.58Zm-5.633,3.053a2.914,2.914,0,0,0,2.994,2.995,2.944,2.944,0,0,0,2.461-1.1h5.484c-1.185,3.321-4.417,4.863-7.916,4.863-4.921,0-8.627-2.906-8.627-8.035a7.9,7.9,0,0,1,8.124-8.123c6.106,0,8.745,3.409,8.745,9.4Z" transform="translate(-651.95 -1197.833)" fill="#fff"/>
    <path id="Path_46" data-name="Path 46" d="M736.829,1211.56a2.526,2.526,0,0,0-2.579-2.58,2.786,2.786,0,0,0-3.025,2.58Zm-5.632,3.053a3.093,3.093,0,0,0,5.455,1.9h5.484c-1.186,3.321-4.418,4.863-7.916,4.863-4.921,0-8.627-2.906-8.627-8.035a7.9,7.9,0,0,1,8.124-8.123c6.106,0,8.746,3.409,8.746,9.4Z" transform="translate(-647.12 -1197.833)" fill="#fff"/>
    <path id="Path_47" data-name="Path 47" d="M738.9,1205.6h5.663v1.957h.059a5.642,5.642,0,0,1,5.01-2.342,4.955,4.955,0,0,1,5.277,5.218v10.554h-5.871v-8.064c0-1.778-.207-3.024-1.926-3.024-1.009,0-2.342.5-2.342,2.965v8.122H738.9Z" transform="translate(-642.038 -1197.833)" fill="#fff"/>
    <path id="Path_48" data-name="Path 48" d="M759.743,1217.105c2.1,0,2.578-1.987,2.578-3.8,0-1.838-.474-3.823-2.578-3.823s-2.58,1.986-2.58,3.823c0,1.809.474,3.8,2.58,3.8m-8.243-11.5h5.663v1.69h.059c.741-.978,1.63-2.076,4.506-2.076,4.359,0,6.463,4.3,6.463,8.153,0,3.618-1.393,8-6.551,8a5.021,5.021,0,0,1-4.21-2.076h-.059v11.313H751.5Z" transform="translate(-637.228 -1197.833)" fill="#fff"/>
    <path id="Path_49" data-name="Path 49" d="M774.573,1214.081a10.139,10.139,0,0,1-2.313.741c-1.3.3-1.987.623-1.987,1.661a1.69,1.69,0,0,0,1.839,1.422,2.33,2.33,0,0,0,2.461-2.4Zm5.632,3.469a6.218,6.218,0,0,0,.712,3.439h-5.989a4.136,4.136,0,0,1-.207-1.452h-.059a6.25,6.25,0,0,1-4.951,1.838c-2.965,0-5.427-1.423-5.427-4.655,0-4.861,5.693-4.685,8.687-5.247.8-.149,1.6-.386,1.6-1.364,0-1.038-.978-1.423-1.928-1.423-1.809,0-2.164.919-2.194,1.571H765a4.448,4.448,0,0,1,2.667-4.151,12.616,12.616,0,0,1,5.248-.889c7.353,0,7.293,3.053,7.293,6.018Z" transform="translate(-632.347 -1197.833)" fill="#fff"/>
    <path id="Path_50" data-name="Path 50" d="M776.977,1205.6h5.633v2.461h.059a4.5,4.5,0,0,1,4.329-2.847,6.689,6.689,0,0,1,1.719.238v5.188a5.936,5.936,0,0,0-2.312-.384c-2.313,0-3.558,1.362-3.558,4.654v6.077h-5.87Z" transform="translate(-627.501 -1197.833)" fill="#fff"/>
    <path id="Path_51" data-name="Path 51" d="M786.4,1201.311h5.87v10.228l3.736-4.446h6.639l-5.484,5.81,6.345,9.576h-7.057l-3.142-5.574-1.038,1.128v4.446H786.4Z" transform="translate(-623.902 -1199.324)" fill="#fff"/>
    <path id="Path_52" data-name="Path 52" d="M764.832,1224.888a2.64,2.64,0,0,1-2.143.949,3.6,3.6,0,0,1-3.6-3.873,3.69,3.69,0,0,1,3.716-4.021,3.25,3.25,0,0,1,3.471,2.818h-2.226a1.1,1.1,0,0,0-1.1-.938c-1.593,0-1.541,1.677-1.541,2.194a1.726,1.726,0,0,0,1.7,1.943,1.152,1.152,0,0,0,1.2-.835h-1.024v-1.614h3.081v4.147h-1.468Z" transform="translate(-634.33 -1192.974)" fill="#fff"/>
    <path id="Path_53" data-name="Path 53" d="M770.08,1221.366h1.215c.433,0,1.022-.073,1.022-.749,0-.476-.262-.751-1.15-.751H770.08Zm-2.321-3.293h4.422a2.2,2.2,0,0,1,2.46,2.153,1.936,1.936,0,0,1-1.129,1.889,2.055,2.055,0,0,1,1.108,1.879,4.978,4.978,0,0,0,.253,1.615h-2.321a5.455,5.455,0,0,1-.191-1.162c-.064-.717-.126-1.466-1.045-1.466H770.08v2.628h-2.321Z" transform="translate(-631.021 -1192.924)" fill="#fff"/>
    <path id="Path_54" data-name="Path 54" d="M780.124,1223.959c.592,0,1.5-.391,1.5-2.068s-.908-2.069-1.5-2.069-1.5.39-1.5,2.069.908,2.068,1.5,2.068m0-6.017a3.949,3.949,0,1,1-3.821,3.948,3.708,3.708,0,0,1,3.821-3.948" transform="translate(-627.758 -1192.974)" fill="#fff"/>
    <path id="Path_55" data-name="Path 55" d="M791.936,1222.7c0,2.089-1.129,3.092-3.43,3.092s-3.441-1-3.441-3.092v-4.622h2.322v4.105c0,.77,0,1.73,1.129,1.73,1.1,0,1.1-.96,1.1-1.73v-4.105h2.321Z" transform="translate(-624.413 -1192.924)" fill="#fff"/>
    <path id="Path_56" data-name="Path 56" d="M796.1,1221.535h.9c.6,0,1.235-.041,1.235-.8,0-.687-.528-.728-1.1-.728H796.1Zm-2.321-3.462h3.884a2.556,2.556,0,0,1,2.765,2.576c0,1.825-1.224,2.68-2.956,2.68H796.1v2.281h-2.321Z" transform="translate(-621.087 -1192.924)" fill="#fff"/>
    <path id="Path_57" data-name="Path 57" d="M800.268,1214.85h-.97v-.326h2.327v.326h-.97v2.584h-.387Z" transform="translate(-618.978 -1194.279)" fill="#fff"/>
    <path id="Path_58" data-name="Path 58" d="M801.1,1214.524h.529l.917,2.446.922-2.446H804v2.91h-.368v-2.421h-.008l-.909,2.421h-.33l-.909-2.421h-.007v2.421H801.1Z" transform="translate(-618.291 -1194.279)" fill="#fff"/>
    <path id="Path_59" data-name="Path 59" d="M680.611,1199.873l-1.821,3.5c-.253.464-.571.882-1.073.616-.566-.3-1.789-1-1.789-1l1.086,5.935c.051.283.178.936-.015,1.112-.361.329-1.064-.582-1.251-.808-.547-.664-2.145-2.537-2.145-2.537l-.291,1.4c-.105.5-.174.733-.865.614-.818-.139-3.236-.747-3.236-.747l1.017,3.515c.12.417.167.793-.259,1.013s-1.166.634-1.166.634l5.647,4.728a.889.889,0,0,1,.2,1.054c-.221.768-.455,1.506-.455,1.506l5.547-.687a.357.357,0,0,1,.478.4c-.011.537-.156,2.914-.156,2.914h1.086s-.145-2.377-.156-2.914a.357.357,0,0,1,.478-.4l5.547.687s-.234-.738-.454-1.506a.891.891,0,0,1,.2-1.054l5.648-4.728s-.737-.411-1.166-.634-.379-.6-.259-1.013l1.016-3.515s-2.417.608-3.235.747c-.691.119-.76-.112-.865-.614l-.29-1.4s-1.6,1.872-2.146,2.537c-.187.227-.89,1.137-1.251.808-.193-.177-.066-.829-.015-1.112l1.086-5.935s-1.223.7-1.79,1c-.5.266-.818-.152-1.072-.616Z" transform="translate(-668.803 -1199.873)" fill="#fff"/>
  </g>
</svg>
