<svg xmlns="http://www.w3.org/2000/svg" width="147.951" height="30.992" viewBox="0 0 147.951 30.992">
  <g id="logo-opus-wht" transform="translate(0 0)">
    <path id="Path_1" data-name="Path 1" d="M865.511,1214.253v.029c.547,0,1.094,0,1.641,0,.373,0,.573-.112.535-.546-.105-1.157-.123-2.325-.273-3.475a4.754,4.754,0,0,0-1.855-3.224,10.673,10.673,0,0,0-5.129-1.838,22.221,22.221,0,0,0-3.329-.218,80.888,80.888,0,0,0-12.285.382,9.626,9.626,0,0,0-3.971,1.367,4.252,4.252,0,0,0-2.086,2.692c-.261,1.421-.317,2.881-.484,4.32-.051.439.15.545.527.542,1.076-.014,2.154-.03,3.231-.023.33,0,.421-.112.46-.435a20.579,20.579,0,0,1,.432-2.783,3.3,3.3,0,0,1,2.154-2.69,7.7,7.7,0,0,1,2.031-.309c3.3-.03,6.612-.074,9.914.018a23.2,23.2,0,0,1,4.118.639,2.122,2.122,0,0,1,1.5,1.112,11.014,11.014,0,0,1,.822,3.955c.041.369.129.516.514.494.509-.029,1.022-.007,1.533-.007m-12.565,13.392a43.225,43.225,0,0,0,8.654-.38,9.609,9.609,0,0,0,3.747-1.457,4.332,4.332,0,0,0,1.837-2.372,17.791,17.791,0,0,0,.506-5.022c-.005-.292-.119-.391-.386-.391-1.149,0-2.3-.011-3.449.014a.511.511,0,0,0-.354.337c-.17,1.055-.235,2.131-.465,3.172a3.428,3.428,0,0,1-1.577,2.473,5.112,5.112,0,0,1-1.949.565c-1.253.1-2.517.052-3.776.077a72.385,72.385,0,0,1-10.261-.265,2.451,2.451,0,0,1-1.753-1.134,9.007,9.007,0,0,1-1.231-4.712c-.027-.394-.122-.545-.531-.536-1.039.022-2.082.027-3.121,0-.468-.012-.61.162-.569.6.037.379-.019.767.023,1.145a23.153,23.153,0,0,0,.5,3.711,4.85,4.85,0,0,0,2.826,2.93,14.92,14.92,0,0,0,5.8,1.224c1.838.1,3.685.02,5.528.02m-18.377-23.574c.129-.294.26-.587.386-.882a3.589,3.589,0,0,1,3.507-2.3q14.517-.049,29.037-.01a3.853,3.853,0,0,1,3.871,3.929q0,11.451,0,22.9a3.815,3.815,0,0,1-2.421,3.78,3.643,3.643,0,0,1-1.421.313q-14.546.027-29.092,0a3.819,3.819,0,0,1-3.66-2.764c-.029-.1-.137-.179-.208-.267Z" transform="translate(-834.568 -1200.867)" fill="#fff"/>
    <path id="Path_2" data-name="Path 2" d="M927.506,1212.567h3.462c.043.477.06.963.133,1.44.186,1.239.591,1.733,1.853,1.819,2.253.155,4.515.218,6.773.241a25.8,25.8,0,0,0,3.435-.235c1.779-.222,2.029-1.633,1.592-2.919a1.123,1.123,0,0,0-1.018-.8c-1.563-.1-3.128-.216-4.7-.259a36.064,36.064,0,0,1-6.537-.493c-.232-.049-.462-.1-.689-.17-2.5-.73-3.608-2.1-3.635-4.706a8.84,8.84,0,0,1,.387-2.727c.479-1.507,1.75-2.1,3.213-2.354a38.708,38.708,0,0,1,7.145-.421,23.463,23.463,0,0,1,5.639.618,4.083,4.083,0,0,1,3.214,3.813c.082.646.1,1.3.151,2.006h-3.385c-.045-.482-.063-.97-.142-1.447a1.643,1.643,0,0,0-1.506-1.5,25.867,25.867,0,0,0-3.155-.287c-2.113,0-4.229.06-6.338.2a1.766,1.766,0,0,0-1.792,1.483,1.92,1.92,0,0,0,1.387,2.291,48.071,48.071,0,0,0,4.877.54c2.255.156,4.526.133,6.772.361a3.574,3.574,0,0,1,3.607,3.5,8.892,8.892,0,0,1-.11,3.132c-.461,2.048-2.034,2.927-3.982,3.192a41.9,41.9,0,0,1-12.1,0,9.877,9.877,0,0,1-2.046-.572,3.767,3.767,0,0,1-2.273-3.235c-.133-.8-.153-1.625-.231-2.512" transform="translate(-800.39 -1200.827)" fill="#fff"/>
    <path id="Path_3" data-name="Path 3" d="M878.087,1216.067v.06c.766,0,1.534.008,2.3,0s1.533-.027,2.3-.064a2.633,2.633,0,0,0,2.819-2.363,22.115,22.115,0,0,0,.068-6.7c-.274-2.008-.615-2.377-2.634-2.5-2.655-.17-5.32-.187-7.982-.241a18.186,18.186,0,0,0-2.184.122,2.329,2.329,0,0,0-2.251,1.964,21.255,21.255,0,0,0-.152,6.851c.213,1.831.845,2.766,3.284,2.863,1.476.059,2.956.011,4.434.011m-.122-15.12c2,.119,4.01.167,6,.389a8.813,8.813,0,0,1,2.691.85,4.151,4.151,0,0,1,2.383,3.659,49.789,49.789,0,0,1-.011,8.778,4.436,4.436,0,0,1-3.149,3.94,12.985,12.985,0,0,1-4.624.71q-3.8.025-7.6-.046a10.091,10.091,0,0,1-4.087-.894,4.282,4.282,0,0,1-2.644-3.72,50.513,50.513,0,0,1-.009-8.725,4.345,4.345,0,0,1,3.361-4.1,21.948,21.948,0,0,1,4.028-.666c1.212-.108,2.441-.022,3.663-.022,0-.051,0-.1.005-.149" transform="translate(-822.742 -1200.838)" fill="#fff"/>
    <path id="Path_4" data-name="Path 4" d="M891.9,1209.58a.823.823,0,0,0,.157.047c3.739,0,7.477.015,11.217,0a1.564,1.564,0,0,0,1.641-1.322,7.376,7.376,0,0,0,.127-1.941,1.885,1.885,0,0,0-2.147-1.994q-5.2,0-10.4,0h-.6Zm-.032,3.242v6.162h-3.415v-17.758c.175-.009.352-.026.528-.026,4.747,0,9.495-.014,14.242.013a7.954,7.954,0,0,1,2.152.3,3.966,3.966,0,0,1,2.723,2.631,8.361,8.361,0,0,1,.085,5.368,4.606,4.606,0,0,1-4.4,3.269c-3.723.062-7.449.03-11.173.038h-.74" transform="translate(-814.75 -1200.745)" fill="#fff"/>
    <path id="Path_5" data-name="Path 5" d="M907.28,1201.211h3.4c.015.256.042.5.044.747,0,3.789.039,7.577-.015,11.365-.023,1.723.658,2.626,2.6,2.715,2.786.128,5.584.056,8.377.016a3.9,3.9,0,0,0,1.511-.425,1.962,1.962,0,0,0,1.079-1.987q0-5.929,0-11.857v-.561h3.451v.6c0,4.008.011,8.014-.01,12.021a8.364,8.364,0,0,1-.238,1.942,4.268,4.268,0,0,1-4.033,3.354,15.226,15.226,0,0,1-1.744.107c-2.976.011-5.952.023-8.929-.008a9.965,9.965,0,0,1-2.1-.284,4.176,4.176,0,0,1-3.316-3.867,8.847,8.847,0,0,1-.1-1.3q-.013-5.982,0-11.967c0-.179.016-.358.029-.6" transform="translate(-807.839 -1200.741)" fill="#fff"/>
    <path id="Path_6" data-name="Path 6" d="M902.442,1218.147c.651,0,1.269-.026,1.882.019.146.01.335.238.4.406.525,1.316,1.026,2.641,1.536,3.963.055.144.122.282.237.546.465-1.234.892-2.343,1.3-3.46.543-1.483.537-1.485,2.134-1.478h.491a4.5,4.5,0,0,1,.051.479c.006,2.059,0,4.117.016,6.175,0,.4-.107.566-.524.529-.34-.032-.686-.007-1.07-.007V1221.2c-.029-.011-.057-.022-.087-.031a1.965,1.965,0,0,0-.16.268c-.464,1.167-.951,2.325-1.369,3.507-.208.586-.644.32-1,.377a.52.52,0,0,1-.669-.377c-.428-1.179-.9-2.343-1.353-3.513a.6.6,0,0,0-.239-.313v4.162h-1.582Z" transform="translate(-809.607 -1194.516)" fill="#fff"/>
    <path id="Path_7" data-name="Path 7" d="M898.379,1221.746a2.048,2.048,0,0,0,0-.274,2.177,2.177,0,0,0-1.1-1.887,2.055,2.055,0,0,0-2.177.161,2.831,2.831,0,0,0-.669,3.056,1.781,1.781,0,0,0,1.394,1.309c1.543.283,2.571-.673,2.558-2.365m1.664.042a3.734,3.734,0,1,1-3.748-3.779,3.563,3.563,0,0,1,3.748,3.779" transform="translate(-813.236 -1194.563)" fill="#fff"/>
    <path id="Path_8" data-name="Path 8" d="M921.287,1222.751h1.55a1.757,1.757,0,0,0,2.493,1.333.794.794,0,0,0,.64-.783c0-.443-.327-.595-.658-.688-.77-.214-1.561-.359-2.326-.589a1.825,1.825,0,0,1-1.459-2.022,1.949,1.949,0,0,1,1.36-1.693,4.025,4.025,0,0,1,3.34.111,2.026,2.026,0,0,1,1.164,2.147c-.44,0-.89.019-1.338-.013-.107-.007-.257-.165-.293-.283a1.541,1.541,0,0,0-2.331-.618.648.648,0,0,0-.177.562,1.106,1.106,0,0,0,.58.5c.711.223,1.446.367,2.165.562a2,2,0,0,1,1.653,1.848,2.024,2.024,0,0,1-1.428,2.093,4.212,4.212,0,0,1-4.069-.378,2.121,2.121,0,0,1-.867-2.084" transform="translate(-802.682 -1194.567)" fill="#fff"/>
    <path id="Path_9" data-name="Path 9" d="M888.212,1218.161v2.63h-3v-2.629h-1.63v7.124h1.656v-3.03h2.987v3.04h1.644v-7.136Z" transform="translate(-816.541 -1194.507)" fill="#fff"/>
    <path id="Path_10" data-name="Path 10" d="M918.682,1219.529h-4v1.391h3.674v1.351h-3.66v1.591h4.033v1.451q-1.828,0-3.652,0c-.566,0-1.133.022-1.7,0-.131-.005-.366-.163-.366-.25-.021-2.288-.016-4.576-.016-6.895h5.687Z" transform="translate(-805.726 -1194.506)" fill="#fff"/>
  </g>
</svg>
