<svg xmlns="http://www.w3.org/2000/svg" width="191.618" height="17.606" viewBox="0 0 191.618 17.606">
  <g id="logo-bh-wht" transform="translate(0)">
    <path id="Path_20742" data-name="Path 20742" d="M277.317,79.241v6.833h-7.006V79.241h-3.8V96.507h3.8V89.576h7.006v6.931h3.8V79.241Zm39.661,0L312.465,91.4l-4.514-12.16h-4.193l6.98,17.389h3.354l6.98-17.389Zm8.238,0V96.507h13.147V93.128H328.99V89.5h8.14V86.123h-8.14v-3.5h9.25V79.241Zm30.092,0v10.63l-8.09-10.63h-3.5V96.507h3.749V85.531l8.361,10.976h3.231V79.241Zm-60.948,4.44,2.294,5.6h-4.588Zm-1.7-4.563-7.4,17.389h3.873l1.579-3.872h7.3l1.579,3.872h3.971l-7.4-17.389Z" transform="translate(-167.439 -79.024)" fill="#fff"/>
    <g id="Group_1372" data-name="Group 1372" transform="translate(0 0)">
      <path id="Path_20743" data-name="Path 20743" d="M162.257,80.678V79.513h-13.28v1.165h6V96.506h1.279V80.678ZM143.615,96.506V79.513h-1.23V94.3L130.507,79.513H129.3V96.506h1.23v-15.1l12.124,15.1Zm-23.56-5.9h-9.075l4.55-9.832Zm4.132,5.9L116.17,79.391h-1.23l-8.018,17.115h1.328l2.189-4.758H120.6l2.189,4.758ZM101.242,84.441c0,2.452-2.14,3.885-5.017,3.885h-5.8V80.678H96.3c3.124,0,4.943,1.433,4.943,3.714Zm1.918,12.066-5.681-7.259c2.9-.389,5.042-2.015,5.042-4.855v-.049c0-2.84-2.435-4.831-6.148-4.831H89.142V96.506h1.279v-7.04h5.631l5.484,7.04ZM81.272,91.869c0,2.136-1.869,3.472-4.82,3.472H70.206V88.519h5.829c3.394,0,5.238,1.214,5.238,3.3Zm-.959-8.011c0,2.258-1.844,3.5-4.427,3.5H70.206V80.678h5.8c2.754,0,4.3,1.263,4.3,3.132Zm2.263,8.011v-.049c0-2.355-1.82-3.52-3.885-4.054a4.207,4.207,0,0,0,2.926-4.03v-.049c0-2.549-2.238-4.176-5.583-4.176H68.927V96.506H76.4c3.713,0,6.173-1.8,6.173-4.637" transform="translate(-68.697 -79.161)" fill="#fff"/>
      <path id="Path_20744" data-name="Path 20744" d="M156.257,96.507h-1.74V80.678h-6V79.053h13.741v1.625h-6Zm-1.28-.46h.819V80.218h6v-.705h-12.82v.705h6Zm-11.362.46h-1.3L130.532,81.83V96.507h-1.69V79.053h1.546l.069.086,11.469,14.275V79.053h1.689Zm-1.079-.46h.619V79.513h-.77V94.721L130.167,79.513H129.3V96.046h.77V80.522Zm-18.218.46h-1.911l-2.189-4.758h-9.862l-2.189,4.758H106.33l8.233-17.576h1.522l.063.133Zm-1.616-.46h.892l-7.8-16.655h-.936l-7.8,16.655h.819l2.189-4.758h10.452Zm-19.3.46h-2.208l-5.484-7.04H90.421v7.04H88.682V79.053h7.461c3.815,0,6.378,2.034,6.378,5.061,0,2.678-1.8,4.536-4.848,5.071Zm-1.983-.46h1.039l-5.637-7.2.4-.054c3.033-.406,4.842-2.136,4.842-4.627,0-2.8-2.378-4.649-5.918-4.649h-7V96.046h.819v-7.04h5.974Zm-25.245.46H68.467V79.053H75.8c3.531,0,5.813,1.729,5.813,4.405a4.3,4.3,0,0,1-2.5,4.032c2.264.746,3.456,2.154,3.456,4.1v.049C82.576,94.6,80.063,96.507,76.173,96.507Zm-7.246-.46h7.246c3.61,0,5.943-1.73,5.943-4.406v-.049c0-1.906-1.249-3.195-3.713-3.831l-.681-.176.654-.261a3.985,3.985,0,0,0,2.782-3.816c0-2.445-2.1-3.994-5.353-3.994H68.927Zm7.3-.7H69.745V88.059H75.8c3.475,0,5.468,1.288,5.468,3.532v.049C81.272,93.889,79.29,95.341,76.222,95.341Zm-6.017-.46h6.017c2.831,0,4.589-1.242,4.589-3.241v-.049c0-1.981-1.778-3.072-5.008-3.072h-5.6Zm49.979-4.274H110.39L115.3,80Zm-9.074-.46h8.356L115.3,81.095ZM96,88.326H89.961V80.218h6.108c3.191,0,5.173,1.511,5.173,3.944v.048C101.241,86.672,99.133,88.326,96,88.326Zm-5.574-.46H96c2.907,0,4.786-1.434,4.786-3.655v-.048c0-2.182-1.761-3.484-4.712-3.484H90.421Zm-14.764-.511H69.745V80.218H75.78c2.8,0,4.533,1.288,4.533,3.362v.049C80.313,85.927,78.529,87.354,75.657,87.354Zm-5.451-.46h5.451c2.588,0,4.2-1.252,4.2-3.266V83.58c0-1.817-1.522-2.9-4.073-2.9H70.205Z" transform="translate(-68.467 -78.931)" fill="#fff"/>
    </g>
  </g>
</svg>
