<svg xmlns="http://www.w3.org/2000/svg" width="160.173" height="29.343" viewBox="0 0 160.173 29.343">
  <path id="logo-CAIVAN-wht" d="M110.4,9.6h8.251v28.06h-4.326V14.089c0-2.726-.561-3.528-2.924-3.808l-1-.12Zm51.594,18.239,4.749-11.291,4.933,11.291Zm-6.574,9.821h2.443l3.356-7.977h11.263l3.485,7.977h4.807l-13.058-28.5Zm54.753.441L191.267,17.9V37.659h-2.4V17.736c0-5.892-.8-7.3-3.765-7.576l-.44-.04V9.6h.721a7.235,7.235,0,0,1,5.768,2.365L207.93,29.979V9.6h2.243Zm-58.6-28.5h2.363L141.161,38.5,131.027,14.449c-1.482-3.488-2.163-4.008-4.846-4.249l-.441-.04V9.6h2.724c3.765,0,5.447.842,6.569,3.568l7.29,17.586ZM74.753,29.963l.521.762c-2.684,4.81-6.809,7.5-11.656,7.5C55.807,38.22,50,31.887,50,23.629c0-7.9,5.287-14.351,13.9-14.351A12.611,12.611,0,0,1,74.072,14.53l-1.2,2.2c-2.283-4.089-5.167-5.612-8.411-5.612-5.247,0-9.292,5.652-9.292,12.507s4.125,12.066,9.853,12.066C69.025,35.695,71.869,34.011,74.753,29.963Zm11.962-2.125,4.753-11.353,4.976,11.353ZM80.2,37.659h2.4l3.339-7.977H97.251l3.5,7.977h4.806L92.5,9.158Z" transform="translate(-50 -9.158)" fill="#fff" fill-rule="evenodd"/>
</svg>
