<?xml version="1.0" encoding="utf-8"?>
<!-- Generator: Adobe Illustrator 26.2.0, SVG Export Plug-In . SVG Version: 6.00 Build 0)  -->
<svg version="1.1" id="Layer_1" xmlns="http://www.w3.org/2000/svg" xmlns:xlink="http://www.w3.org/1999/xlink" x="0px" y="0px"
	 viewBox="0 0 102.2 39" style="enable-background:new 0 0 102.2 39;" xml:space="preserve">
<style type="text/css">
	.st0{fill:#05446C;}
</style>
<g id="logo-TRIDEL" transform="translate(-59 26.117)">
	<g id="logo-transp-tridel" transform="translate(59)">
		<path id="Path_60" class="st0" d="M6.7,7.6h1.6c1.4,0,2,0.3,2,1.3c0,1.2-1.2,1.4-2.1,1.4H6.7L6.7,7.6z M5,11.8h3.4
			c1.8,0,3.6-0.6,3.6-2.7c0-1.2-0.9-2.2-2-2.3v0c1-0.2,1.7-1.1,1.6-2.1c0-1.7-1.5-2.4-2.9-2.4H5V11.8z M6.7,3.8h1.4
			c1.3,0,1.8,0.4,1.8,1.2c0,0.7-0.6,1.2-1.7,1.2H6.7L6.7,3.8z"/>
		<path id="Path_61" class="st0" d="M21.3,8.3c-0.1,2.1-1.8,3.8-3.9,3.7c-2-0.1-3.6-1.7-3.7-3.7v-6h1.7v5.9c0,1.2,0.9,2.1,2.1,2.2
			c1.2,0,2.1-0.9,2.2-2.1c0,0,0-0.1,0-0.1V2.3h1.7L21.3,8.3z"/>
		<rect id="Rectangle_10" x="23.4" y="2.3" class="st0" width="1.7" height="9.5"/>
		<path id="Path_62" class="st0" d="M27.2,2.3v9.5h5.7v-1.5h-4V2.3H27.2z"/>
		<path id="Path_63" class="st0" d="M32,2.3v1.5h2.9v7.9h1.7V3.9h2.9V2.3H32z"/>
		<path id="Path_64" class="st0" d="M44.7,2.3v9.5h1.7V7.9h4.2V6.3h-4.2V3.9h4.4V2.3L44.7,2.3z"/>
		<path id="Path_65" class="st0" d="M52,7.1c-0.1,2.6,1.9,4.8,4.5,4.9c0.2,0,0.3,0,0.5,0c2.7,0.1,4.9-1.9,5-4.6c0-0.1,0-0.3,0-0.4
			c0.2-2.6-1.8-4.8-4.4-5c-0.2,0-0.4,0-0.6,0c-2.6-0.1-4.9,1.9-5,4.5C51.9,6.8,51.9,6.9,52,7.1 M53.7,7c-0.1-1.8,1.3-3.3,3.1-3.4
			c1.8-0.1,3.3,1.3,3.4,3.1c0,0.1,0,0.2,0,0.3c0.1,1.8-1.2,3.4-3,3.5c-1.8,0.1-3.4-1.2-3.5-3C53.7,7.3,53.7,7.2,53.7,7"/>
		<path id="Path_66" class="st0" d="M63.6,11.8h1.7v-4h1.2l2.2,4h2l-2.5-4.2c1.3-0.1,2.3-1.3,2.2-2.6c0-2.1-1.7-2.7-3.5-2.7h-3.3
			L63.6,11.8z M65.3,6.3V3.8h1.5c0.9,0,1.9,0.1,1.9,1.3c0,1.2-1.1,1.3-2.1,1.3L65.3,6.3z"/>
		<path id="Path_67" class="st0" d="M76.1,2.3v9.5h5.7v-1.5h-4V2.3H76.1z"/>
		<rect id="Rectangle_11" x="83.1" y="2.3" class="st0" width="1.7" height="9.5"/>
		<path id="Path_68" class="st0" d="M86.9,2.3v9.5h1.7V7.9h4.2V6.3h-4.2V3.9H93V2.3L86.9,2.3z"/>
		<path id="Path_69" class="st0" d="M94.6,2.3v9.5h6.5v-1.5h-4.8V7.7h4.3V6.2h-4.3V3.9h4.6V2.3H94.6z"/>
		<path id="Path_70" class="st0" d="M97.6-21.4h0.5v-1.1h0.4c0.2,0,0.4,0,0.6,0.1c0.2,0.2,0.3,0.4,0.3,0.7v0.2l0,0.1l0,0l0,0h0.5
			l0,0l0-0.2l0-0.2V-22c0-0.2-0.1-0.3-0.2-0.5c-0.1-0.2-0.3-0.3-0.5-0.3c0.1,0,0.3-0.1,0.4-0.1c0.2-0.1,0.3-0.3,0.3-0.6
			c0-0.3-0.2-0.6-0.5-0.7c-0.3-0.1-0.5-0.1-0.8-0.1h-1V-21.4z M99.1-22.9c-0.2,0.1-0.3,0.1-0.5,0.1h-0.5v-1.1h0.4
			c0.2,0,0.4,0,0.6,0.1c0.1,0.1,0.2,0.3,0.2,0.4C99.4-23.2,99.3-23,99.1-22.9 M100.6-24.7c-1-1-2.7-1-3.8,0
			c-0.5,0.5-0.8,1.2-0.8,1.9c0,0.7,0.3,1.4,0.8,1.9c1,1.1,2.7,1.1,3.8,0.1C101.6-21.9,101.7-23.5,100.6-24.7
			C100.6-24.6,100.6-24.6,100.6-24.7 M100.3-24.4c0.9,0.9,0.9,2.3,0,3.2c-0.9,0.9-2.3,0.9-3.2,0c-0.9-0.9-0.9-2.3,0-3.2
			c0.4-0.4,1-0.7,1.6-0.7C99.3-25.1,99.9-24.9,100.3-24.4"/>
		<path id="Path_71" class="st0" d="M1.2-25.2h17.1v3.7h-5.5c0,0-0.8,0-0.8,1.1v16.4H7.6v-16.3c0,0,0-1.1-0.9-1.1H1.2L1.2-25.2z"/>
		<path id="Path_72" class="st0" d="M20.9-25.2h11.1c0,0,3.3,0.4,4.4,2.5c1.2,2.2,1.5,4.6,0,6.7c-0.6,0.8-1.5,1.4-2.5,1.6l-0.1,0.2
			c0,0,2,0,2.7,2.6c0.5,1.9,0.7,3.9,0.6,5.8c0.1,0.6,0.3,1.2,0.7,1.7h-4.7c-0.2-0.5-0.3-1-0.3-1.5c0-1.4-0.2-2.9-0.3-4.3
			c-0.2-0.7-1.4-2.7-3-2.7h-2.8v-3.3H31c1.3-0.4,2.1-1.6,2.1-3c0.1-1.4-1-2.7-2.5-2.7c0,0,0,0-0.1,0c-0.3,0-2.7,0-4,0
			c-1.2,0-1.2,0.6-1.2,1.7v15.9h-4.5V-25.2z"/>
		<rect id="Rectangle_12" x="39.3" y="-25.2" class="st0" width="4.3" height="21.1"/>
		<path id="Path_73" class="st0" d="M48.5-11.1c-1.1,1.8,0.6,1.4,0.6,1.4h13.5c2,0,0.8-1.6,0.8-1.6s-5.7-9.8-6.6-11.2
			c-1-1.7-1.6,0-1.6,0S49.6-12.9,48.5-11.1 M46.8-25.2h11.7c0,0,8.2,0.1,8.5,10c0.3,11.4-9.4,11.1-9.4,11.1H46.8L46.8-25.2z"/>
		<path id="Path_74" class="st0" d="M68.2-25.2h15.6v3.7H73.6c0,0-1.2,0-1.2,1.1v2.3c0,0,0,1.1,1.4,1.1h8.5v3.6h-8.8
			c0,0-1,0.1-1,1.3s0,2.8,0,2.8c-0.1,0.7,0.4,1.4,1.2,1.5c0.1,0,0.2,0,0.2,0h10v3.7H70.6c-1.3,0-2.4-1-2.4-2.3c0-0.1,0-0.2,0-0.3
			L68.2-25.2"/>
		<path id="Path_75" class="st0" d="M85.9-25.2h4.5v16c0,0-0.2,1.4,1.3,1.4h8.7v3.7H88.1c-1.3-0.1-2.3-1.2-2.2-2.5L85.9-25.2"/>
	</g>
</g>
</svg>
