<svg xmlns="http://www.w3.org/2000/svg" xmlns:xlink="http://www.w3.org/1999/xlink" width="466.096" height="299.877" viewBox="0 0 466.096 299.877">
  <defs>
    <style>
      .cls-1 {
        fill: #fff;
      }

      .cls-2 {
        fill: #05446c;
      }

      .cls-3 {
        filter: url(#Path_20966);
      }

      .cls-4 {
        filter: url(#Path_20967);
      }

      .cls-5 {
        filter: url(#Rectangle_447);
      }
    </style>
    <filter id="Rectangle_447" x="0" y="109.877" width="329.917" height="190" filterUnits="userSpaceOnUse">
      <feOffset input="SourceAlpha"/>
      <feGaussianBlur stdDeviation="25" result="blur"/>
      <feFlood flood-opacity="0.502"/>
      <feComposite operator="in" in2="blur"/>
      <feComposite in="SourceGraphic"/>
    </filter>
    <filter id="Path_20967" x="0.512" y="85.522" width="465.584" height="161.44" filterUnits="userSpaceOnUse">
      <feOffset input="SourceAlpha"/>
      <feGaussianBlur stdDeviation="25" result="blur-2"/>
      <feFlood flood-opacity="0.502"/>
      <feComposite operator="in" in2="blur-2"/>
      <feComposite in="SourceGraphic"/>
    </filter>
    <filter id="Path_20966" x="0" y="0" width="455.7" height="225.7" filterUnits="userSpaceOnUse">
      <feOffset input="SourceAlpha"/>
      <feGaussianBlur stdDeviation="25" result="blur-3"/>
      <feFlood flood-opacity="0.502"/>
      <feComposite operator="in" in2="blur-3"/>
      <feComposite in="SourceGraphic"/>
    </filter>
  </defs>
  <g id="plan-420" transform="translate(-97.911 -395.42)">
    <g id="btn-HERO" transform="translate(172.911 668.77)">
      <g class="cls-5" transform="matrix(1, 0, 0, 1, -75, -273.35)">
        <rect id="Rectangle_447-2" data-name="Rectangle 447" class="cls-1" width="179.917" height="40" rx="20" transform="translate(75 184.88)"/>
      </g>
      <path id="Path_20968" data-name="Path 20968" class="cls-2" d="M1.2-11.125v7.977H5.206V-4.2h-2.7v-6.921ZM6.3-3.147H7.6v-7.977H6.3ZM12.448-4.49l-2.364-6.634h-1.4l3.007,7.977h1.515l3-7.977H14.824ZM21.7-11.136H17.292v7.989H21.7V-4.215H18.6V-6.66h2.755V-7.727H18.6v-2.341h3.1Zm9.974,7.989h1.377l-2.858-7.989H28.678L25.82-3.147h1.366l.574-1.63H31.1Zm-.941-2.7H28.127l1.308-3.707Zm3.145-4.212h2.135v6.91h1.308v-6.91h2.123v-1.067H33.877Zm9.871-1.067v7.977h4.006V-4.2h-2.7v-6.921ZM54.227-3.147H55.6l-2.858-7.989H51.232L48.374-3.147h1.366l.574-1.63h3.34Zm-.941-2.7H50.681l1.308-3.707Zm7.954,2.7h1.71L59.427-7.13l3.466-3.994H61.252l-3.1,3.638v-3.638H56.844v7.977h1.308v-3.57Zm7.277-7.989H64.11v7.989h4.407V-4.215h-3.1V-6.66h2.755V-7.727H65.418v-2.341h3.1ZM73.246-4.49l-2.364-6.634h-1.4l3.007,7.977H74l3-7.977H75.622ZM78.09-3.147H79.4v-7.977H78.09Zm7.438-7.989H81.12v7.989h4.407V-4.215h-3.1V-6.66h2.755V-7.727H82.428v-2.341h3.1Zm3.225,8,1.469-.011L92-9.185l1.676,6.037h1.481l2.364-7.977h-1.4L94.457-4.663l-1.664-6.462H91.323l-1.791,6.5-1.653-6.5H86.491Z" transform="translate(37.8 -61.337)"/>
    </g>
    <g class="cls-4" transform="matrix(1, 0, 0, 1, 97.91, 395.42)">
      <path id="Path_20967-2" data-name="Path 20967" class="cls-1" d="M.512-9.36H3.488V0h2.24V-9.36H8.7v-1.808H.512ZM17.36,0H19.6V-11.168H17.36v4.592H12.576v-4.592h-2.24V0h2.24V-4.752H17.36ZM28.288-11.184h-6.48V0h6.48V-1.824h-4.24v-2.96h3.76V-6.56h-3.76v-2.8h4.24ZM40.352-3.3c0,.944-.64,1.472-1.728,1.472H36.368V-4.832h2.208C39.664-4.832,40.352-4.256,40.352-3.3ZM40.08-7.952c0,.912-.608,1.392-1.664,1.392H36.368v-2.8h2.048C39.472-9.36,40.08-8.848,40.08-7.952Zm2.544,4.928a2.708,2.708,0,0,0-2.16-2.7,2.575,2.575,0,0,0,1.9-2.56c0-1.664-1.3-2.88-3.632-2.88H34.128V0h4.816C41.264,0,42.624-1.248,42.624-3.024Zm1.76-1.248A4.132,4.132,0,0,0,48.848.112c2.448,0,4.56-1.44,4.56-4.384v-6.9H51.152v6.912A2.077,2.077,0,0,1,48.88-1.92a2.072,2.072,0,0,1-2.256-2.336v-6.912h-2.24ZM55.568,0h2.24V-11.168h-2.24Zm4.448-11.168V0h5.92V-1.776h-3.68v-9.392Zm11.248,0h-3.9V0h3.9c3.568,0,5.888-2.192,5.888-5.568C77.152-8.96,74.832-11.168,71.264-11.168ZM69.6-1.9V-9.28h1.584a3.376,3.376,0,0,1,3.68,3.712A3.34,3.34,0,0,1,71.184-1.9Zm15.712-9.28h-6.48V0h6.48V-1.824h-4.24v-2.96h3.76V-6.56h-3.76v-2.8h4.24ZM93.264-7.7c0,1.008-.56,1.664-1.808,1.664H89.584v-3.28h1.872C92.7-9.312,93.264-8.688,93.264-7.7Zm-5.92-3.472V0h2.24V-4.352H90.64L93.1,0H95.7L93.024-4.528a3.225,3.225,0,0,0,2.544-3.216c0-1.872-1.344-3.424-4.032-3.424Zm18.064,7.936c0-3.936-5.728-2.688-5.728-4.928,0-.912.656-1.344,1.536-1.312a1.474,1.474,0,0,1,1.6,1.328h2.464c-.144-2.016-1.712-3.184-4-3.184-2.3,0-3.936,1.216-3.936,3.232-.016,4.048,5.744,2.592,5.744,5.008,0,.8-.624,1.36-1.68,1.36a1.533,1.533,0,0,1-1.7-1.488h-2.4C97.344-1.1,99.136.112,101.456.112,104,.112,105.408-1.472,105.408-3.232ZM117.376-3.3c0,.944-.64,1.472-1.728,1.472h-2.256V-4.832H115.6C116.688-4.832,117.376-4.256,117.376-3.3ZM117.1-7.952c0,.912-.608,1.392-1.664,1.392h-2.048v-2.8h2.048C116.5-9.36,117.1-8.848,117.1-7.952Zm2.544,4.928a2.708,2.708,0,0,0-2.16-2.7,2.575,2.575,0,0,0,1.9-2.56c0-1.664-1.3-2.88-3.632-2.88h-4.608V0h4.816C118.288,0,119.648-1.248,119.648-3.024Zm8.272-8.16h-6.48V0h6.48V-1.824h-4.24v-2.96h3.76V-6.56h-3.76v-2.8h4.24ZM136.976,0h2.24V-11.168h-2.24v4.592h-4.784v-4.592h-2.24V0h2.24V-4.752h4.784Zm4.448,0h2.24V-11.168h-2.24Zm11.76-11.184V-3.5l-5.072-7.68h-2.24V0h2.24V-7.664L153.184,0h2.24V-11.184Zm8.352.016h-3.9V0h3.9c3.568,0,5.888-2.192,5.888-5.568C167.424-8.96,165.1-11.168,161.536-11.168ZM159.872-1.9V-9.28h1.584a3.376,3.376,0,0,1,3.68,3.712,3.34,3.34,0,0,1-3.68,3.664Zm13.04-9.264V0h5.92V-1.776h-3.68v-9.392ZM187.84,0h2.368l-4.016-11.184h-2.608L179.568,0h2.352l.736-2.128H187.1ZM186.5-3.92h-3.232l1.616-4.672ZM198.016,0h2.832l-4.736-5.632,4.608-5.536h-2.7L193.952-6.16v-5.008h-2.24V0h2.24V-4.976ZM208.8-11.184h-6.48V0h6.48V-1.824h-4.24v-2.96h3.76V-6.56h-3.76v-2.8h4.24Zm6.624,8.9-3.072-8.88h-2.4L214.048,0h2.72l4.1-11.168H218.48ZM222.208,0h2.24V-11.168h-2.24Zm10.928-11.184h-6.48V0h6.48V-1.824H228.9v-2.96h3.76V-6.56H228.9v-2.8h4.24Zm4.288,11.2L240.048,0l2.192-7.952L244.336,0h2.64l3.12-11.168H247.68L245.7-2.544l-2.144-8.624h-2.5L238.784-2.5l-1.968-8.672h-2.4Zm22.528-2.3-3.072-8.88h-2.4L258.576,0h2.72l4.1-11.168h-2.384ZM266.736,0h2.24V-11.168h-2.24Zm4.448-11.168V0h5.92V-1.776h-3.68v-9.392Zm7.344,0V0h5.92V-1.776h-3.68v-9.392ZM293.456,0h2.368l-4.016-11.184H289.2L285.184,0h2.352l.736-2.128h4.448Zm-1.344-3.92H288.88L290.5-8.592Zm10.368-7.392a5.536,5.536,0,0,0-5.7,5.712A5.527,5.527,0,0,0,302.5.1a5.458,5.458,0,0,0,5.456-4.352V-6.208H301.9V-4.5h3.84a3.032,3.032,0,0,1-3.168,2.576,3.363,3.363,0,0,1-3.488-3.68,3.332,3.332,0,0,1,3.392-3.648,2.808,2.808,0,0,1,2.624,1.44h2.576A5.13,5.13,0,0,0,302.48-11.312Zm13.616.128h-6.48V0h6.48V-1.824h-4.24v-2.96h3.76V-6.56h-3.76v-2.8h4.24Z" transform="translate(75 171.85)"/>
    </g>
    <g class="cls-3" transform="matrix(1, 0, 0, 1, 97.91, 395.42)">
      <path id="Path_20966-2" data-name="Path 20966" class="cls-1" d="M4,53H7.5V25.55L19.8,53h2.55l12.3-27.55V53h3.5V18.5H34.4L21.05,48.4,7.7,18.5H4Zm65.4,0h3.7L60.4,18.5H56.45L43.7,53h3.7l3.05-8.3h15.9ZM65.3,41.8H51.5l6.9-18.9ZM97.35,53h4.6L85.45,35.5,101.8,18.05H97.35L82.2,34.4V18.05H78.7V53h3.5V36.85Zm9.75,0h3.5V18.05h-3.5Zm34.3-34.95V47.4L122.05,18.05h-3.5V53h3.5V23.6L141.4,53h3.5V18.05Zm27.15-.4c-9.8,0-17.3,7.4-17.3,17.85,0,10.5,7.5,17.85,17.3,17.85,9.55,0,16.45-7.1,17-16.35V34.45h-18.4V37.3h14.7c-.55,7.95-5.95,12.9-13.3,12.9-7.75,0-13.7-5.65-13.7-14.7s5.95-14.65,13.7-14.65c5.6,0,9.85,2.9,11.8,7.4h4.1C181.95,21.6,176.05,17.65,168.55,17.65Zm34.6,3.3h9.75V53h3.5V20.95h9.7v-2.9H203.15ZM254.1,53h3.5V18.05h-3.5v15.7H235.15V18.05h-3.5V53h3.5V36.65H254.1Zm29.75-35H265.6V53h18.25V50.1H269.1V36.85h13.25v-2.9H269.1V20.9h14.75ZM4,93H7.5V65.55L19.8,93h2.55l12.3-27.55V93h3.5V58.5H34.4L21.05,88.4,7.7,58.5H4Zm65.4,0h3.7L60.4,58.5H56.45L43.7,93h3.7l3.05-8.3h15.9ZM65.3,81.8H51.5l6.9-18.9Zm35.25,2c0-13-19.2-6.8-19.2-16.9,0-4.05,3.4-6.3,7.5-6.25,4.85.05,7.2,3.05,7.6,5.5h3.8c-.6-4.8-4.6-8.5-11.25-8.5-6.75,0-11.2,3.95-11.2,9.35C77.8,80.15,97,73.65,97,83.95c0,3.6-2.85,6.45-7.7,6.45-5.65,0-7.8-3.5-8.1-6.4H77.5c.2,5.35,4.8,9.35,11.8,9.35C96.7,93.35,100.55,88.55,100.55,83.8Zm4.25-22.85h9.75V93h3.5V60.95h9.7v-2.9H104.8ZM151.55,58H133.3V93h18.25V90.1H136.8V76.85h13.25v-2.9H136.8V60.9h14.75Zm25.7,10.2c0,4.25-2.55,7.35-8.25,7.35h-7.05V61h7C174.85,61,177.25,63.8,177.25,68.2Zm-18.8-10.15V93h3.5V78.4h6.45L177.05,93h4.2l-9-14.85c5.9-1.1,8.6-5.15,8.6-9.95,0-5.75-3.8-10.15-11.9-10.15ZM205,75.1V61h7.05c5.9,0,8.2,2.6,8.2,7.1,0,4.3-2.3,7-8.2,7Zm18.85-7c0-5.75-3.7-10.05-11.8-10.05H201.5V93H205V78.1h7.05C220.25,78.1,223.85,73.75,223.85,68.1Zm5.85-10.05V93h16.05V90.15H233.2V58.05ZM274.05,93h3.7l-12.7-34.5H261.1L248.35,93h3.7l3.05-8.3H271Zm-4.1-11.2h-13.8l6.9-18.9ZM306.2,58.05V87.4L286.85,58.05h-3.5V93h3.5V63.6L306.2,93h3.5V58.05Z" transform="translate(71 57.35)"/>
    </g>
  </g>
</svg>
