<svg xmlns="http://www.w3.org/2000/svg" width="1869.403" height="1051.539" viewBox="0 0 1869.403 1051.539">
  <defs>
    <style>
      .cls-1 {
        fill: rgba(255,255,255,0);
      }

      .cls-2 {
        fill: #fff;
      }

      .cls-3 {
        fill: #05446c;
      }
    </style>
  </defs>
  <g id="plan-1900" transform="translate(-14.667 -16)">
    <rect id="hero-BG" class="cls-1" width="1869.403" height="1051.539" transform="translate(14.667 16)"/>
    <g id="btn-HERO" transform="translate(172.911 744.77)">
      <rect id="Rectangle_447" data-name="Rectangle 447" class="cls-2" width="316.554" height="84.461" rx="40" transform="translate(0.089)"/>
      <path id="Path_20959" data-name="Path 20959" class="cls-3" d="M1.575-14.6V0H8.9V-1.932H3.969V-14.6ZM10.9,0h2.394V-14.6H10.9ZM22.155-2.457,17.829-14.6H15.267L20.769,0h2.772l5.481-14.6H26.5ZM39.081-14.616H31.017V0h8.064V-1.953h-5.67V-6.426h5.04V-8.379h-5.04v-4.284h5.67ZM57.33,0h2.52L54.621-14.616H51.849L46.62,0h2.5l1.05-2.982H56.28ZM55.608-4.935H50.841l2.394-6.783Zm5.754-7.707h3.906V0h2.394V-12.642h3.885V-14.6H61.362ZM79.422-14.6V0h7.329V-1.932H81.816V-14.6ZM98.6,0h2.52L95.886-14.616H93.114L87.885,0h2.5l1.05-2.982h6.111ZM96.873-4.935H92.106L94.5-11.718ZM111.426,0h3.129l-6.447-7.287L114.45-14.6h-3l-5.67,6.657V-14.6h-2.394V0h2.394V-6.531ZM124.74-14.616h-8.064V0h8.064V-1.953h-5.67V-6.426h5.04V-8.379h-5.04v-4.284h5.67Zm8.652,12.159L129.066-14.6H126.5l5.5,14.6h2.772l5.481-14.6h-2.52ZM142.254,0h2.394V-14.6h-2.394Zm13.608-14.616H147.8V0h8.064V-1.953h-5.67V-6.426h5.04V-8.379h-5.04v-4.284h5.67Zm5.9,14.637L164.451,0l3.255-11.046L170.772,0h2.709l4.326-14.6h-2.562L172.2-2.772,169.155-14.6h-2.688L163.191-2.709,160.167-14.6h-2.541Z" transform="translate(68.514 50.506)"/>
    </g>
    <path id="Path_20958" data-name="Path 20958" class="cls-2" d="M1.056-19.3H7.194V0h4.62V-19.3h6.138v-3.729H1.056ZM35.805,0h4.62V-23.034h-4.62v9.471H25.938v-9.471h-4.62V0h4.62V-9.8h9.867ZM58.344-23.067H44.979V0H58.344V-3.762H49.6v-6.1h7.755V-13.53H49.6V-19.3h8.745ZM83.226-6.8c0,1.947-1.32,3.036-3.564,3.036H75.009v-6.2h4.554C81.807-9.966,83.226-8.778,83.226-6.8Zm-.561-9.6c0,1.881-1.254,2.871-3.432,2.871H75.009V-19.3h4.224C81.411-19.3,82.665-18.249,82.665-16.4ZM87.912-6.237a5.585,5.585,0,0,0-4.455-5.577,5.311,5.311,0,0,0,3.927-5.28c0-3.432-2.673-5.94-7.491-5.94h-9.5V0h9.933C85.107,0,87.912-2.574,87.912-6.237Zm3.63-2.574c0,6.072,4.158,9.042,9.207,9.042s9.4-2.97,9.4-9.042V-23.034H105.5V-8.778c0,3.168-1.716,4.818-4.686,4.818-2.937,0-4.653-1.65-4.653-4.818V-23.034h-4.62ZM114.609,0h4.62V-23.034h-4.62Zm9.174-23.034V0h12.21V-3.663H128.4V-23.034Zm23.2,0H138.93V0h8.052c7.359,0,12.144-4.521,12.144-11.484C159.126-18.48,154.341-23.034,146.982-23.034ZM143.55-3.927V-19.14h3.267c4.851,0,7.59,2.871,7.59,7.656s-2.739,7.557-7.59,7.557Zm32.406-19.14H162.591V0h13.365V-3.762h-8.745v-6.1h7.755V-13.53h-7.755V-19.3h8.745Zm16.4,7.194c0,2.079-1.155,3.432-3.729,3.432h-3.861v-6.765h3.861C191.2-19.206,192.357-17.919,192.357-15.873Zm-12.21-7.161V0h4.62V-8.976h2.178L192.027,0h5.346l-5.511-9.339a6.651,6.651,0,0,0,5.247-6.633c0-3.861-2.772-7.062-8.316-7.062ZM217.4-6.666c0-8.118-11.814-5.544-11.814-10.164,0-1.881,1.353-2.772,3.168-2.706a3.041,3.041,0,0,1,3.3,2.739h5.082c-.3-4.158-3.531-6.567-8.25-6.567-4.752,0-8.118,2.508-8.118,6.666-.033,8.349,11.847,5.346,11.847,10.329,0,1.65-1.287,2.8-3.465,2.8a3.162,3.162,0,0,1-3.5-3.069h-4.95c.066,4.356,3.762,6.864,8.547,6.864C214.5.231,217.4-3.036,217.4-6.666ZM242.088-6.8c0,1.947-1.32,3.036-3.564,3.036h-4.653v-6.2h4.554C240.669-9.966,242.088-8.778,242.088-6.8Zm-.561-9.6c0,1.881-1.254,2.871-3.432,2.871h-4.224V-19.3H238.1C240.273-19.3,241.527-18.249,241.527-16.4Zm5.247,10.164a5.585,5.585,0,0,0-4.455-5.577,5.311,5.311,0,0,0,3.927-5.28c0-3.432-2.673-5.94-7.491-5.94h-9.5V0h9.933C243.969,0,246.774-2.574,246.774-6.237Zm17.061-16.83H250.47V0h13.365V-3.762H255.09v-6.1h7.755V-13.53H255.09V-19.3h8.745ZM282.513,0h4.62V-23.034h-4.62v9.471h-9.867v-9.471h-4.62V0h4.62V-9.8h9.867Zm9.174,0h4.62V-23.034h-4.62Zm24.255-23.067v15.84l-10.461-15.84h-4.62V0h4.62V-15.807L315.942,0h4.62V-23.067Zm17.226.033h-8.052V0h8.052c7.359,0,12.144-4.521,12.144-11.484C345.312-18.48,340.527-23.034,333.168-23.034ZM329.736-3.927V-19.14H333c4.851,0,7.59,2.871,7.59,7.656S337.854-3.927,333-3.927Zm26.9-19.107V0h12.21V-3.663h-7.59V-23.034ZM387.42,0H392.3l-8.283-23.067h-5.379L370.359,0h4.851l1.518-4.389H385.9Zm-2.772-8.085h-6.666l3.333-9.636ZM408.408,0h5.841l-9.768-11.616,9.5-11.418h-5.577L400.026-12.7V-23.034h-4.62V0h4.62V-10.263ZM430.65-23.067H417.285V0H430.65V-3.762H421.9v-6.1h7.755V-13.53H421.9V-19.3h8.745ZM444.312-4.719l-6.336-18.315h-4.95L441.474,0h5.61l8.448-23.034h-4.917ZM458.3,0h4.62V-23.034H458.3Zm22.539-23.067H467.478V0h13.365V-3.762H472.1v-6.1h7.755V-13.53H472.1V-19.3h8.745Zm8.844,23.1L495.1,0l4.521-16.4L503.943,0h5.445l6.435-23.034H510.84L506.748-5.247l-4.422-17.787h-5.148L492.492-5.148l-4.059-17.886h-4.95Zm46.464-4.752-6.336-18.315h-4.95L533.313,0h5.61l8.448-23.034h-4.917ZM550.143,0h4.62V-23.034h-4.62Zm9.174-23.034V0h12.21V-3.663h-7.59V-23.034Zm15.147,0V0h12.21V-3.663h-7.59V-23.034ZM605.253,0h4.884l-8.283-23.067h-5.379L588.192,0h4.851l1.518-4.389h9.174Zm-2.772-8.085h-6.666l3.333-9.636Zm21.384-15.246A11.419,11.419,0,0,0,612.117-11.55,11.4,11.4,0,0,0,623.9.2a11.257,11.257,0,0,0,11.253-8.976V-12.8H622.677v3.531h7.92a6.254,6.254,0,0,1-6.534,5.313c-4.29,0-7.194-2.9-7.194-7.59,0-4.587,2.871-7.524,7-7.524a5.792,5.792,0,0,1,5.412,2.97h5.313C633.1-20.724,629.013-23.331,623.865-23.331Zm28.083.264H638.583V0h13.365V-3.762H643.2v-6.1h7.755V-13.53H643.2V-19.3h8.745Z" transform="translate(172.911 714.27)"/>
    <path id="Path_20957" data-name="Path 20957" class="cls-2" d="M8.96,118H16.8V56.512L44.352,118h5.712L77.616,56.288V118h7.84V40.72h-8.4L47.152,107.7,17.248,40.72H8.96Zm146.5,0h8.288L135.3,40.72h-8.848L97.888,118h8.288l6.832-18.592h35.616Zm-9.184-25.088H115.36l15.456-42.336ZM218.064,118h10.3l-36.96-39.2,36.624-39.088h-9.968L184.128,76.336V39.712h-7.84V118h7.84V81.824Zm21.84,0h7.84V39.712H239.9Zm76.832-78.288v65.744L273.392,39.712h-7.84V118h7.84V52.144L316.736,118h7.84V39.712Zm60.816-.9C355.6,38.816,338.8,55.392,338.8,78.8c0,23.52,16.8,39.984,38.752,39.984,21.392,0,36.848-15.9,38.08-36.624V76.448H374.416v6.384h32.928c-1.232,17.808-13.328,28.9-29.792,28.9-17.36,0-30.688-12.656-30.688-32.928s13.328-32.816,30.688-32.816c12.544,0,22.064,6.5,26.432,16.576h9.184C407.568,47.664,394.352,38.816,377.552,38.816Zm77.5,7.392H476.9V118h7.84V46.208h21.728v-6.5H455.056ZM569.184,118h7.84V39.712h-7.84V74.88H526.736V39.712H518.9V118h7.84V81.376h42.448Zm66.64-78.4h-40.88V118h40.88v-6.5h-33.04V81.824h29.68v-6.5h-29.68V46.1h33.04ZM8.96,211H16.8V149.512L44.352,211h5.712l27.552-61.712V211h7.84V133.72h-8.4L47.152,200.7l-29.9-66.976H8.96Zm146.5,0h8.288L135.3,133.72h-8.848L97.888,211h8.288l6.832-18.592h35.616Zm-9.184-25.088H115.36l15.456-42.336Zm78.96,4.48c0-29.12-43.008-15.232-43.008-37.856,0-9.072,7.616-14.112,16.8-14,10.864.112,16.128,6.832,17.024,12.32h8.512c-1.344-10.752-10.3-19.04-25.2-19.04-15.12,0-25.088,8.848-25.088,20.944,0,29.456,43.008,14.9,43.008,37.968,0,8.064-6.384,14.448-17.248,14.448-12.656,0-17.472-7.84-18.144-14.336H173.6c.448,11.984,10.752,20.944,26.432,20.944C216.608,211.784,225.232,201.032,225.232,190.392Zm9.52-51.184h21.84V211h7.84V139.208H286.16v-6.5H234.752Zm104.72-6.608h-40.88V211h40.88v-6.5h-33.04v-29.68h29.68v-6.5h-29.68V139.1h33.04Zm57.568,22.848c0,9.52-5.712,16.464-18.48,16.464H362.768V139.32h15.68C391.664,139.32,397.04,145.592,397.04,155.448Zm-42.112-22.736V211h7.84V178.3h14.448L396.592,211H406l-20.16-33.264c13.216-2.464,19.264-11.536,19.264-22.288,0-12.88-8.512-22.736-26.656-22.736ZM459.2,170.9V139.32h15.792c13.216,0,18.368,5.824,18.368,15.9,0,9.632-5.152,15.68-18.368,15.68Zm42.224-15.68c0-12.88-8.288-22.512-26.432-22.512H451.36V211h7.84V177.624h15.792C493.36,177.624,501.424,167.88,501.424,155.224Zm13.1-22.512V211H550.48v-6.384H522.368v-71.9ZM613.872,211h8.288l-28.448-77.28h-8.848L556.3,211h8.288l6.832-18.592H607.04Zm-9.184-25.088H573.776l15.456-42.336Zm81.2-53.2v65.744l-43.344-65.744H634.7V211h7.84V145.144L685.888,211h7.84V132.712Z" transform="translate(166.04 452.77)"/>
  </g>
</svg>
