<svg xmlns="http://www.w3.org/2000/svg" xmlns:xlink="http://www.w3.org/1999/xlink" width="838" height="1104" viewBox="0 0 838 1104">
  <defs>
    <style>
      .cls-1 {
        fill: rgba(255,255,255,0);
      }

      .cls-2 {
        fill: #fff;
      }

      .cls-3 {
        fill: #05446c;
      }

      .cls-4 {
        filter: url(#Path_20965);
      }

      .cls-5 {
        filter: url(#Path_20964);
      }

      .cls-6 {
        filter: url(#Rectangle_447);
      }
    </style>
    <filter id="Rectangle_447" x="0" y="646" width="370.04" height="208.71" filterUnits="userSpaceOnUse">
      <feOffset input="SourceAlpha"/>
      <feGaussianBlur stdDeviation="25" result="blur"/>
      <feFlood flood-opacity="0.502"/>
      <feComposite operator="in" in2="blur"/>
      <feComposite in="SourceGraphic"/>
    </filter>
    <filter id="Path_20964" x="0.647" y="606.163" width="603.652" height="166.445" filterUnits="userSpaceOnUse">
      <feOffset input="SourceAlpha"/>
      <feGaussianBlur stdDeviation="25" result="blur-2"/>
      <feFlood flood-opacity="0.502"/>
      <feComposite operator="in" in2="blur-2"/>
      <feComposite in="SourceGraphic"/>
    </filter>
    <filter id="Path_20965" x="1.551" y="458.266" width="657.462" height="279.262" filterUnits="userSpaceOnUse">
      <feOffset input="SourceAlpha"/>
      <feGaussianBlur stdDeviation="25" result="blur-3"/>
      <feFlood flood-opacity="0.502"/>
      <feComposite operator="in" in2="blur-3"/>
      <feComposite in="SourceGraphic"/>
    </filter>
  </defs>
  <g id="plan-800" transform="translate(-98 52.177)">
    <g id="btn-HERO" transform="translate(172.911 668.77)">
      <rect id="hero-800" class="cls-1" width="786" height="1104" transform="translate(-22.911 -720.947)"/>
      <g class="cls-6" transform="matrix(1, 0, 0, 1, -74.91, -720.95)">
        <rect id="Rectangle_447-2" data-name="Rectangle 447" class="cls-2" width="220.04" height="58.71" rx="29.355" transform="translate(75 721)"/>
      </g>
      <path id="Path_20963" data-name="Path 20963" class="cls-3" d="M1.2-11.12V0H6.784V-1.472H3.024V-11.12ZM8.3,0h1.824V-11.12H8.3ZM16.88-1.872l-3.3-9.248H11.632L15.824,0h2.112l4.176-11.12h-1.92Zm12.9-9.264H23.632V0h6.144V-1.488h-4.32V-4.9H29.3V-6.384h-3.84V-9.648h4.32ZM43.68,0H45.6L41.616-11.136H39.5L35.52,0h1.9l.8-2.272H42.88ZM42.368-3.76H38.736L40.56-8.928Zm4.384-5.872h2.976V0h1.824V-9.632h2.96V-11.12h-7.76Zm13.76-1.488V0H66.1V-1.472h-3.76V-11.12ZM75.12,0h1.92L73.056-11.136H70.944L66.96,0h1.9l.8-2.272H74.32ZM73.808-3.76H70.176L72-8.928ZM84.9,0H87.28L82.368-5.552,87.2-11.12H84.912l-4.32,5.072V-11.12H78.768V0h1.824V-4.976ZM95.04-11.136H88.9V0H95.04V-1.488H90.72V-4.9h3.84V-6.384H90.72V-9.648h4.32Zm6.592,9.264-3.3-9.248H96.384L100.576,0h2.112l4.176-11.12h-1.92ZM108.384,0h1.824V-11.12h-1.824Zm10.368-11.136h-6.144V0h6.144V-1.488h-4.32V-4.9h3.84V-6.384h-3.84V-9.648h4.32Zm4.5,11.152L125.3,0l2.48-8.416L130.112,0h2.064l3.3-11.12H133.52L131.2-2.112l-2.32-9.008h-2.048l-2.5,9.056-2.3-9.056H120.1Z" transform="translate(41.889 35.189)"/>
    </g>
    <g class="cls-5" transform="matrix(1, 0, 0, 1, 98, -52.18)">
      <path id="Path_20964-2" data-name="Path 20964" class="cls-2" d="M.736-13.455H5.014V0h3.22V-13.455h4.278v-2.6H.736ZM24.955,0h3.22V-16.054h-3.22v6.6H18.078v-6.6h-3.22V0h3.22V-6.831h6.877ZM40.664-16.077H31.349V0h9.315V-2.622h-6.1V-6.877h5.4V-9.43h-5.4v-4.025h6.1ZM58.006-4.738c0,1.357-.92,2.116-2.484,2.116H52.279V-6.946h3.174C57.017-6.946,58.006-6.118,58.006-4.738Zm-.391-6.693c0,1.311-.874,2-2.392,2H52.279v-4.025h2.944C56.741-13.455,57.615-12.719,57.615-11.431Zm3.657,7.084a3.892,3.892,0,0,0-3.1-3.887,3.7,3.7,0,0,0,2.737-3.68c0-2.392-1.863-4.14-5.221-4.14H49.059V0h6.923C59.317,0,61.272-1.794,61.272-4.347ZM63.8-6.141c0,4.232,2.9,6.3,6.417,6.3s6.555-2.07,6.555-6.3v-9.913H73.531v9.936c0,2.208-1.2,3.358-3.266,3.358-2.047,0-3.243-1.15-3.243-3.358v-9.936H63.8ZM79.879,0H83.1V-16.054h-3.22Zm6.394-16.054V0h8.51V-2.553h-5.29v-13.5Zm16.169,0H96.83V0h5.612c5.129,0,8.464-3.151,8.464-8C110.906-12.88,107.571-16.054,102.442-16.054ZM100.05-2.737v-10.6h2.277c3.381,0,5.29,2,5.29,5.336s-1.909,5.267-5.29,5.267Zm22.586-13.34h-9.315V0h9.315V-2.622h-6.1V-6.877h5.4V-9.43h-5.4v-4.025h6.1Zm11.431,5.014c0,1.449-.8,2.392-2.6,2.392h-2.691v-4.715h2.691C133.262-13.386,134.067-12.489,134.067-11.063Zm-8.51-4.991V0h3.22V-6.256h1.518L133.837,0h3.726l-3.841-6.509a4.636,4.636,0,0,0,3.657-4.623c0-2.691-1.932-4.922-5.8-4.922ZM151.524-4.646c0-5.658-8.234-3.864-8.234-7.084,0-1.311.943-1.932,2.208-1.886a2.119,2.119,0,0,1,2.3,1.909h3.542c-.207-2.9-2.461-4.577-5.75-4.577-3.312,0-5.658,1.748-5.658,4.646-.023,5.819,8.257,3.726,8.257,7.2,0,1.15-.9,1.955-2.415,1.955a2.2,2.2,0,0,1-2.438-2.139h-3.45c.046,3.036,2.622,4.784,5.957,4.784C149.5.161,151.524-2.116,151.524-4.646Zm17.2-.092c0,1.357-.92,2.116-2.484,2.116H163V-6.946h3.174C167.739-6.946,168.728-6.118,168.728-4.738Zm-.391-6.693c0,1.311-.874,2-2.392,2H163v-4.025h2.944C167.463-13.455,168.337-12.719,168.337-11.431Zm3.657,7.084a3.892,3.892,0,0,0-3.1-3.887,3.7,3.7,0,0,0,2.737-3.68c0-2.392-1.863-4.14-5.221-4.14h-6.624V0H166.7C170.039,0,171.994-1.794,171.994-4.347Zm11.891-11.73H174.57V0h9.315V-2.622h-6.1V-6.877h5.4V-9.43h-5.4v-4.025h6.1ZM196.9,0h3.22V-16.054H196.9v6.6h-6.877v-6.6h-3.22V0h3.22V-6.831H196.9ZM203.3,0h3.22V-16.054H203.3Zm16.9-16.077v11.04l-7.291-11.04h-3.22V0h3.22V-11.017L220.2,0h3.22V-16.077Zm12.006.023H226.6V0h5.612c5.129,0,8.464-3.151,8.464-8C240.672-12.88,237.337-16.054,232.208-16.054ZM229.816-2.737v-10.6h2.277c3.381,0,5.29,2,5.29,5.336s-1.909,5.267-5.29,5.267Zm18.745-13.317V0h8.51V-2.553h-5.29v-13.5ZM270.02,0h3.4l-5.773-16.077H263.9L258.129,0h3.381l1.058-3.059h6.394Zm-1.932-5.635h-4.646l2.323-6.716ZM284.648,0h4.071l-6.808-8.1,6.624-7.958h-3.887l-5.842,7.2v-7.2h-3.22V0h3.22V-7.153Zm15.5-16.077h-9.315V0h9.315V-2.622h-6.1V-6.877h5.4V-9.43h-5.4v-4.025h6.1Zm9.522,12.788-4.416-12.765h-3.45L307.694,0h3.91l5.888-16.054h-3.427ZM319.424,0h3.22V-16.054h-3.22Zm15.709-16.077h-9.315V0h9.315V-2.622h-6.1V-6.877h5.4V-9.43h-5.4v-4.025h6.1ZM341.3.023,345.069,0l3.151-11.431L351.233,0h3.8l4.485-16.054H356.04l-2.852,12.4-3.082-12.4h-3.588L343.252-3.588l-2.829-12.466h-3.45Zm32.384-3.312-4.416-12.765h-3.45L371.7,0h3.91L381.5-16.054h-3.427ZM383.433,0h3.22V-16.054h-3.22Zm6.394-16.054V0h8.51V-2.553h-5.29v-13.5Zm10.557,0V0h8.51V-2.553H403.6v-13.5ZM421.843,0h3.4l-5.773-16.077h-3.749L409.952,0h3.381l1.058-3.059h6.394Zm-1.932-5.635h-4.646l2.323-6.716Zm14.9-10.626a7.959,7.959,0,0,0-8.188,8.211A7.945,7.945,0,0,0,434.838.138a7.846,7.846,0,0,0,7.843-6.256V-8.924h-8.694v2.461h5.52a4.359,4.359,0,0,1-4.554,3.7c-2.99,0-5.014-2.024-5.014-5.29,0-3.2,2-5.244,4.876-5.244a4.037,4.037,0,0,1,3.772,2.07h3.7C441.255-14.444,438.4-16.261,434.815-16.261Zm19.573.184h-9.315V0h9.315V-2.622h-6.1V-6.877h5.4V-9.43h-5.4v-4.025h6.1Z" transform="translate(74.91 697.45)"/>
    </g>
    <g class="cls-4" transform="matrix(1, 0, 0, 1, 98, -52.18)">
      <path id="Path_20965-2" data-name="Path 20965" class="cls-2" d="M6.64,87h5.81V41.433L32.868,87H37.1L57.519,41.267V87h5.81V29.73H57.1L34.943,79.364,12.782,29.73H6.64ZM115.2,87h6.142L100.264,29.73H93.707L72.542,87h6.142l5.063-13.778h26.394ZM108.4,68.408H85.49L96.944,37.034ZM161.6,87h7.636l-27.39-29.05,27.141-28.967H161.6L136.452,56.124V28.983h-5.81V87h5.81V60.191Zm16.185,0h5.81V28.983h-5.81Zm56.938-58.017V77.7L202.6,28.983h-5.81V87h5.81V38.2L234.724,87h5.81V28.983Zm45.069-.664c-16.268,0-28.718,12.284-28.718,29.631,0,17.43,12.45,29.631,28.718,29.631,15.853,0,27.307-11.786,28.22-27.141V56.207H277.469v4.731h24.4c-.913,13.2-9.877,21.414-22.078,21.414-12.865,0-22.742-9.379-22.742-24.4s9.877-24.319,22.742-24.319c9.3,0,16.351,4.814,19.588,12.284h6.806C302.037,34.876,292.243,28.319,279.793,28.319ZM337.229,33.8h16.185V87h5.81V33.8h16.1V28.983h-38.1ZM421.806,87h5.81V28.983h-5.81V55.045H390.349V28.983h-5.81V87h5.81V59.859h31.457Zm49.385-58.1H440.9V87h30.295V82.186H446.706V60.191H468.7V55.377H446.706V33.714h24.485ZM6.64,157h5.81V111.433L32.868,157H37.1l20.418-45.733V157h5.81V99.73H57.1L34.943,149.364,12.782,99.73H6.64ZM115.2,157h6.142L100.264,99.73H93.707L72.542,157h6.142l5.063-13.778h26.394ZM108.4,138.408H85.49l11.454-31.374Zm58.515,3.32c0-21.58-31.872-11.288-31.872-28.054,0-6.723,5.644-10.458,12.45-10.375,8.051.083,11.952,5.063,12.616,9.13h6.308c-1-7.968-7.636-14.11-18.675-14.11-11.205,0-18.592,6.557-18.592,15.521,0,21.829,31.872,11.039,31.872,28.137,0,5.976-4.731,10.707-12.782,10.707-9.379,0-12.948-5.81-13.446-10.624H128.65c.332,8.881,7.968,15.521,19.588,15.521C160.522,157.581,166.913,149.613,166.913,141.728Zm7.055-37.931h16.185V157h5.81V103.8h16.1V98.983h-38.1Zm77.6-4.9H221.278V157h30.295v-4.814H227.088v-22h22v-4.814h-22V103.714h24.485Zm42.662,16.932c0,7.055-4.233,12.2-13.7,12.2h-11.7V103.88h11.62C290.251,103.88,294.235,108.528,294.235,115.832ZM263.027,98.983V157h5.81V132.764h10.707L293.9,157h6.972l-14.94-24.651c9.794-1.826,14.276-8.549,14.276-16.517,0-9.545-6.308-16.849-19.754-16.849Zm77.273,28.3V103.88H352c9.794,0,13.612,4.316,13.612,11.786,0,7.138-3.818,11.62-13.612,11.62Zm31.291-11.62c0-9.545-6.142-16.683-19.588-16.683H334.49V157h5.81V132.266H352C365.615,132.266,371.591,125.045,371.591,115.666ZM381.3,98.983V157h26.643v-4.731H387.112V98.983ZM454.923,157h6.142L439.983,99.73h-6.557L412.261,157H418.4l5.063-13.778H449.86Zm-6.806-18.592H425.209l11.454-31.374Zm60.175-39.425V147.7L476.171,98.983h-5.81V157h5.81V108.2L508.292,157h5.81V98.983Z" transform="translate(69.91 504.95)"/>
    </g>
  </g>
</svg>
