<svg xmlns="http://www.w3.org/2000/svg" width="1255" height="705.938" viewBox="0 0 1255 705.938">
  <defs>
    <style>
      .cls-1 {
        fill: rgba(255,255,255,0);
      }

      .cls-2 {
        fill: #fff;
      }

      .cls-3 {
        fill: #05446c;
      }
    </style>
  </defs>
  <g id="plan-1280" transform="translate(-91.667 -163)">
    <rect id="hero-1280" class="cls-1" width="1255" height="705.938" transform="translate(91.667 163)"/>
    <g id="btn-HERO" transform="translate(172.911 668.77)">
      <rect id="Rectangle_447" data-name="Rectangle 447" class="cls-2" width="224.876" height="60" rx="30" transform="translate(0.089)"/>
      <path id="Path_20960" data-name="Path 20960" class="cls-3" d="M1.05-9.73V0H5.936V-1.288H2.646V-9.73ZM7.266,0h1.6V-9.73h-1.6Zm7.5-1.638L11.886-9.73H10.178L13.846,0h1.848l3.654-9.73h-1.68ZM26.054-9.744H20.678V0h5.376V-1.3h-3.78V-4.284h3.36v-1.3h-3.36V-8.442h3.78ZM38.22,0H39.9L36.414-9.744H34.566L31.08,0h1.666l.7-1.988H37.52ZM37.072-3.29H33.894l1.6-4.522Zm3.836-5.138h2.6V0h1.6V-8.428H47.7v-1.3h-6.79Zm12.04-1.3V0h4.886V-1.288h-3.29V-9.73ZM65.73,0h1.68L63.924-9.744H62.076L58.59,0h1.666l.7-1.988H65.03ZM64.582-3.29H61.4L63-7.812ZM74.284,0H76.37l-4.3-4.858L76.3-9.73h-2l-3.78,4.438V-9.73h-1.6V0h1.6V-4.354ZM83.16-9.744H77.784V0H83.16V-1.3H79.38V-4.284h3.36v-1.3H79.38V-8.442h3.78Zm5.768,8.106L86.044-9.73H84.336L88,0h1.848l3.654-9.73h-1.68ZM94.836,0h1.6V-9.73h-1.6Zm9.072-9.744H98.532V0h5.376V-1.3h-3.78V-4.284h3.36v-1.3h-3.36V-8.442h3.78ZM107.842.014,109.634,0l2.17-7.364L113.848,0h1.806l2.884-9.73H116.83L114.8-1.848,112.77-9.73h-1.792l-2.184,7.924L106.778-9.73h-1.694Z" transform="translate(53.039 35.25)"/>
    </g>
    <path id="Path_20962" data-name="Path 20962" class="cls-2" d="M.768-14.04H5.232V0h3.36V-14.04h4.464v-2.712H.768ZM26.04,0H29.4V-16.752H26.04v6.888H18.864v-6.888H15.5V0h3.36V-7.128H26.04ZM42.432-16.776h-9.72V0h9.72V-2.736h-6.36v-4.44h5.64V-9.84h-5.64v-4.2h6.36Zm18.1,11.832c0,1.416-.96,2.208-2.592,2.208H54.552V-7.248h3.312C59.5-7.248,60.528-6.384,60.528-4.944Zm-.408-6.984c0,1.368-.912,2.088-2.5,2.088H54.552v-4.2h3.072C59.208-14.04,60.12-13.272,60.12-11.928Zm3.816,7.392A4.061,4.061,0,0,0,60.7-8.592a3.862,3.862,0,0,0,2.856-3.84c0-2.5-1.944-4.32-5.448-4.32H51.192V0h7.224C61.9,0,63.936-1.872,63.936-4.536Zm2.64-1.872c0,4.416,3.024,6.576,6.7,6.576s6.84-2.16,6.84-6.576V-16.752H76.728V-6.384c0,2.3-1.248,3.5-3.408,3.5-2.136,0-3.384-1.2-3.384-3.5V-16.752h-3.36ZM83.352,0h3.36V-16.752h-3.36Zm6.672-16.752V0H98.9V-2.664h-5.52V-16.752Zm16.872,0H101.04V0H106.9c5.352,0,8.832-3.288,8.832-8.352C115.728-13.44,112.248-16.752,106.9-16.752Zm-2.5,13.9V-13.92h2.376c3.528,0,5.52,2.088,5.52,5.568s-1.992,5.5-5.52,5.5Zm23.568-13.92h-9.72V0h9.72V-2.736h-6.36v-4.44h5.64V-9.84h-5.64v-4.2h6.36ZM139.9-11.544c0,1.512-.84,2.5-2.712,2.5h-2.808v-4.92h2.808C139.056-13.968,139.9-13.032,139.9-11.544Zm-8.88-5.208V0h3.36V-6.528h1.584L139.656,0h3.888l-4.008-6.792a4.837,4.837,0,0,0,3.816-4.824c0-2.808-2.016-5.136-6.048-5.136Zm27.1,11.9c0-5.9-8.592-4.032-8.592-7.392,0-1.368.984-2.016,2.3-1.968a2.211,2.211,0,0,1,2.4,1.992h3.7c-.216-3.024-2.568-4.776-6-4.776-3.456,0-5.9,1.824-5.9,4.848-.024,6.072,8.616,3.888,8.616,7.512,0,1.2-.936,2.04-2.52,2.04a2.3,2.3,0,0,1-2.544-2.232h-3.6c.048,3.168,2.736,4.992,6.216,4.992C156,.168,158.112-2.208,158.112-4.848Zm17.952-.1c0,1.416-.96,2.208-2.592,2.208h-3.384V-7.248H173.4C175.032-7.248,176.064-6.384,176.064-4.944Zm-.408-6.984c0,1.368-.912,2.088-2.5,2.088h-3.072v-4.2h3.072C174.744-14.04,175.656-13.272,175.656-11.928Zm3.816,7.392a4.061,4.061,0,0,0-3.24-4.056,3.862,3.862,0,0,0,2.856-3.84c0-2.5-1.944-4.32-5.448-4.32h-6.912V0h7.224C177.432,0,179.472-1.872,179.472-4.536Zm12.408-12.24h-9.72V0h9.72V-2.736h-6.36v-4.44h5.64V-9.84h-5.64v-4.2h6.36ZM205.464,0h3.36V-16.752h-3.36v6.888h-7.176v-6.888h-3.36V0h3.36V-7.128h7.176Zm6.672,0h3.36V-16.752h-3.36Zm17.64-16.776v11.52l-7.608-11.52h-3.36V0h3.36V-11.5L229.776,0h3.36V-16.776Zm12.528.024h-5.856V0H242.3c5.352,0,8.832-3.288,8.832-8.352C251.136-13.44,247.656-16.752,242.3-16.752Zm-2.5,13.9V-13.92h2.376c3.528,0,5.52,2.088,5.52,5.568s-1.992,5.5-5.52,5.5Zm19.56-13.9V0h8.88V-2.664h-5.52V-16.752ZM281.76,0h3.552l-6.024-16.776h-3.912L269.352,0h3.528l1.1-3.192h6.672Zm-2.016-5.88H274.9l2.424-7.008ZM297.024,0h4.248l-7.1-8.448,6.912-8.3h-4.056l-6.1,7.512v-7.512h-3.36V0h3.36V-7.464ZM313.2-16.776h-9.72V0h9.72V-2.736h-6.36v-4.44h5.64V-9.84h-5.64v-4.2h6.36Zm9.936,13.344-4.608-13.32h-3.6L321.072,0h4.08L331.3-16.752H327.72ZM333.312,0h3.36V-16.752h-3.36ZM349.7-16.776h-9.72V0h9.72V-2.736h-6.36v-4.44h5.64V-9.84h-5.64v-4.2h6.36Zm6.432,16.8L360.072,0l3.288-11.928L366.5,0h3.96l4.68-16.752H371.52L368.544-3.816l-3.216-12.936h-3.744L358.176-3.744l-2.952-13.008h-3.6Zm33.792-3.456-4.608-13.32h-3.6L387.864,0h4.08l6.144-16.752h-3.576ZM400.1,0h3.36V-16.752H400.1Zm6.672-16.752V0h8.88V-2.664h-5.52V-16.752Zm11.016,0V0h8.88V-2.664h-5.52V-16.752ZM440.184,0h3.552l-6.024-16.776H433.8L427.776,0H431.3l1.1-3.192h6.672Zm-2.016-5.88H433.32l2.424-7.008ZM453.72-16.968A8.3,8.3,0,0,0,445.176-8.4,8.291,8.291,0,0,0,453.744.144a8.187,8.187,0,0,0,8.184-6.528V-9.312h-9.072v2.568h5.76a4.548,4.548,0,0,1-4.752,3.864c-3.12,0-5.232-2.112-5.232-5.52,0-3.336,2.088-5.472,5.088-5.472a4.212,4.212,0,0,1,3.936,2.16h3.864C460.44-15.072,457.464-16.968,453.72-16.968Zm20.424.192h-9.72V0h9.72V-2.736h-6.36v-4.44h5.64V-9.84h-5.64v-4.2h6.36Z" transform="translate(172.911 651.27)"/>
    <path id="Path_20961" data-name="Path 20961" class="cls-2" d="M6.64,87h5.81V41.433L32.868,87H37.1L57.519,41.267V87h5.81V29.73H57.1L34.943,79.364,12.782,29.73H6.64ZM115.2,87h6.142L100.264,29.73H93.707L72.542,87h6.142l5.063-13.778h26.394ZM108.4,68.408H85.49L96.944,37.034ZM161.6,87h7.636l-27.39-29.05,27.141-28.967H161.6L136.452,56.124V28.983h-5.81V87h5.81V60.191Zm16.185,0h5.81V28.983h-5.81Zm56.938-58.017V77.7L202.6,28.983h-5.81V87h5.81V38.2L234.724,87h5.81V28.983Zm45.069-.664c-16.268,0-28.718,12.284-28.718,29.631,0,17.43,12.45,29.631,28.718,29.631,15.853,0,27.307-11.786,28.22-27.141V56.207H277.469v4.731h24.4c-.913,13.2-9.877,21.414-22.078,21.414-12.865,0-22.742-9.379-22.742-24.4s9.877-24.319,22.742-24.319c9.3,0,16.351,4.814,19.588,12.284h6.806C302.037,34.876,292.243,28.319,279.793,28.319ZM337.229,33.8h16.185V87h5.81V33.8h16.1V28.983h-38.1ZM421.806,87h5.81V28.983h-5.81V55.045H390.349V28.983h-5.81V87h5.81V59.859h31.457Zm49.385-58.1H440.9V87h30.295V82.186H446.706V60.191H468.7V55.377H446.706V33.714h24.485ZM6.64,157h5.81V111.433L32.868,157H37.1l20.418-45.733V157h5.81V99.73H57.1L34.943,149.364,12.782,99.73H6.64ZM115.2,157h6.142L100.264,99.73H93.707L72.542,157h6.142l5.063-13.778h26.394ZM108.4,138.408H85.49l11.454-31.374Zm58.515,3.32c0-21.58-31.872-11.288-31.872-28.054,0-6.723,5.644-10.458,12.45-10.375,8.051.083,11.952,5.063,12.616,9.13h6.308c-1-7.968-7.636-14.11-18.675-14.11-11.205,0-18.592,6.557-18.592,15.521,0,21.829,31.872,11.039,31.872,28.137,0,5.976-4.731,10.707-12.782,10.707-9.379,0-12.948-5.81-13.446-10.624H128.65c.332,8.881,7.968,15.521,19.588,15.521C160.522,157.581,166.913,149.613,166.913,141.728Zm7.055-37.931h16.185V157h5.81V103.8h16.1V98.983h-38.1Zm77.6-4.9H221.278V157h30.295v-4.814H227.088v-22h22v-4.814h-22V103.714h24.485Zm42.662,16.932c0,7.055-4.233,12.2-13.7,12.2h-11.7V103.88h11.62C290.251,103.88,294.235,108.528,294.235,115.832ZM263.027,98.983V157h5.81V132.764h10.707L293.9,157h6.972l-14.94-24.651c9.794-1.826,14.276-8.549,14.276-16.517,0-9.545-6.308-16.849-19.754-16.849Zm77.273,28.3V103.88H352c9.794,0,13.612,4.316,13.612,11.786,0,7.138-3.818,11.62-13.612,11.62Zm31.291-11.62c0-9.545-6.142-16.683-19.588-16.683H334.49V157h5.81V132.266H352C365.615,132.266,371.591,125.045,371.591,115.666ZM381.3,98.983V157h26.643v-4.731H387.112V98.983ZM454.923,157h6.142L439.983,99.73h-6.557L412.261,157H418.4l5.063-13.778H449.86Zm-6.806-18.592H425.209l11.454-31.374Zm60.175-39.425V147.7L476.171,98.983h-5.81V157h5.81V108.2L508.292,157h5.81V98.983Z" transform="translate(167.36 457.77)"/>
  </g>
</svg>
