<?xml version="1.0" encoding="utf-8"?>
<!-- Generator: Adobe Illustrator 26.2.0, SVG Export Plug-In . SVG Version: 6.00 Build 0)  -->
<svg version="1.1" id="Layer_1" xmlns="http://www.w3.org/2000/svg" xmlns:xlink="http://www.w3.org/1999/xlink" x="0px" y="0px"
	 viewBox="0 0 60 199.5" style="enable-background:new 0 0 60 199.5;" xml:space="preserve">
<style type="text/css">
	.st0{fill:#00B9F2;}
	.st1{enable-background:new    ;}
	.st2{fill:#FFFFFF;}
</style>
<g>
	<rect y="-0.5" class="st0" width="60" height="200"/>
	<g class="st1">
		<path class="st2" d="M22.7,175.8c0-3.4,1.9-5,4.3-5c1.7,0,3.4,0.9,4,3.2l5.7-3.3v3.2l-5.4,3.1v1.3h5.4v2.8h-14V175.8z M25,175.9
			v2.3h4.1v-2.3c0-1.6-0.8-2.3-2.1-2.3C25.8,173.7,25,174.4,25,175.9z"/>
		<path class="st2" d="M24.9,160.2v5.3h3.5v-4.7h2.2v4.7h3.7v-5.3h2.3v8.1h-14v-8.1H24.9z"/>
		<path class="st2" d="M26.9,144.7v3.2c-1.2,0.6-1.8,1.8-1.8,3.3c0,2.5,1.8,4.2,4.6,4.2c2.8,0,4.6-1.8,4.6-4.4c0-2.2-1.2-3.5-3.2-4
			v4.8h-2.1v-7.6h2.4c2.8,0.6,5.4,3.1,5.4,6.8c0,4.1-2.9,7.1-7.1,7.1c-4.2,0-7.1-3.1-7.1-7.1C22.5,148.1,24.1,145.6,26.9,144.7z"/>
		<path class="st2" d="M22.7,142.3v-2.8h14v2.8H22.7z"/>
		<path class="st2" d="M36.8,131.9c0,2.9-1.5,5.1-4.2,5.2v-3c1.1-0.1,1.9-0.8,1.9-2.1c0-1.3-0.7-2.1-1.7-2.1c-3,0-1.2,7.2-6.3,7.2
			c-2.5,0-4-2-4-4.9c0-2.9,1.5-4.8,4-5v3.1c-0.9,0.1-1.6,0.8-1.7,2c0,1.1,0.5,1.9,1.6,1.9c2.8,0,1.2-7.2,6.2-7.2
			C34.8,126.9,36.8,128.7,36.8,131.9z"/>
		<path class="st2" d="M22.7,125.3V115h2.3v3.7h11.7v2.8H24.9v3.7H22.7z"/>
		<path class="st2" d="M24.9,104.9v5.3h3.5v-4.7h2.2v4.7h3.7v-5.3h2.3v8.1h-14v-8.1H24.9z"/>
		<path class="st2" d="M22.7,97.1c0-3.4,1.9-5,4.3-5c1.7,0,3.4,0.9,4,3.2l5.7-3.3v3.2l-5.4,3.1v1.3h5.4v2.8h-14V97.1z M25,97.2v2.3
			h4.1v-2.3c0-1.6-0.8-2.3-2.1-2.3C25.8,94.9,25,95.6,25,97.2z"/>
		<path class="st2" d="M22.7,85.5V75.3h2.3V79h11.7v2.8H24.9v3.7H22.7z"/>
		<path class="st2" d="M36.8,66.7c0,3.9-3,7.2-7.2,7.2c-4.2,0-7.1-3.2-7.1-7.2c0-4,3-7.1,7.1-7.1C33.8,59.6,36.8,62.8,36.8,66.7z
			 M34.3,66.7c0-2.5-1.8-4.3-4.7-4.3S25,64.2,25,66.7c0,2.5,1.8,4.3,4.6,4.3S34.3,69.3,34.3,66.7z"/>
		<path class="st2" d="M29.7,45.3c4.2,0,7,2.9,7,7.4v4.9h-14v-4.9C22.7,48.2,25.4,45.3,29.7,45.3z M34.3,52.7c0-2.9-1.7-4.6-4.6-4.6
			c-2.9,0-4.6,1.7-4.6,4.6v2h9.2V52.7z"/>
		<path class="st2" d="M34,34.6v5.6l2.7,0.9V44l-14-5v-3.3l14-5v3L34,34.6z M25.9,37.4l5.8,2v-4L25.9,37.4z"/>
		<path class="st2" d="M22.7,30v-3.2l6.4-3l-6.4-3v-3.1l9.1,4.7h4.9v2.8h-4.9L22.7,30z"/>
	</g>
</g>
</svg>
