<?xml version="1.0" encoding="utf-8"?>
<!-- Generator: Adobe Illustrator 26.2.1, SVG Export Plug-In . SVG Version: 6.00 Build 0)  -->
<svg version="1.1" id="Layer_1" xmlns="http://www.w3.org/2000/svg" xmlns:xlink="http://www.w3.org/1999/xlink" x="0px" y="0px"
	 viewBox="0 0 1869.4 1051.5" style="enable-background:new 0 0 1869.4 1051.5;" xml:space="preserve">
<style type="text/css">
	.st0{fill:#FFFFFF;}
	.st1{fill:#05446C;}
</style>
<g>
	<polyline class="st0" points="1869.4,0 0,0 0,1051.5 1869.4,1051.5 1869.4,0 	"/>
	<path class="st0" d="M198.2,673.7h195.6c22.1,0,40,17.9,40,40v4.5c0,22.1-17.9,40-40,40H198.2c-22.1,0-40-17.9-40-40v-4.5
		C158.2,691.6,176.2,673.7,198.2,673.7z"/>
	<polygon class="st1" points="212.3,720.8 217.1,720.8 217.1,723.2 209.4,723.2 209.4,708.7 212.3,708.7 	"/>
	<rect x="218.6" y="708.7" class="st1" width="2.9" height="14.5"/>
	<polygon class="st1" points="237.1,708.7 231.8,723.2 228.2,723.2 222.9,708.7 226,708.7 230,720.2 234,708.7 	"/>
	<polygon class="st1" points="241.4,711 241.4,714.6 246.3,714.6 246.3,716.9 241.4,716.9 241.4,720.8 246.9,720.8 246.9,723.2 
		238.5,723.2 238.5,708.6 246.9,708.6 246.9,711 	"/>
	<path class="st1" d="M262.7,720.4H257l-1,2.8H253l5.2-14.5h3.4l5.2,14.5h-3.1L262.7,720.4z M262,718.1l-2.1-6.1l-2.1,6.1H262z"/>
	<polygon class="st1" points="278.3,708.7 278.3,711 274.4,711 274.4,723.2 271.5,723.2 271.5,711 267.6,711 267.6,708.7 	"/>
	<polygon class="st1" points="287.6,720.8 292.4,720.8 292.4,723.2 284.7,723.2 284.7,708.7 287.6,708.7 	"/>
	<path class="st1" d="M302.8,720.4H297l-1,2.8H293l5.2-14.5h3.4l5.2,14.5h-3.1L302.8,720.4z M302,718.1l-2.1-6.1l-2.1,6.1H302z"/>
	<polygon class="st1" points="316.7,723.2 311.4,716.7 311.4,723.2 308.5,723.2 308.5,708.7 311.4,708.7 311.4,715.2 316.7,708.7 
		320.2,708.7 314.2,715.8 320.3,723.2 	"/>
	<polygon class="st1" points="324.8,711 324.8,714.6 329.7,714.6 329.7,716.9 324.8,716.9 324.8,720.8 330.3,720.8 330.3,723.2 
		321.9,723.2 321.9,708.6 330.3,708.6 330.3,711 	"/>
	<polygon class="st1" points="345.7,708.7 340.4,723.2 336.8,723.2 331.5,708.7 334.6,708.7 338.6,720.2 342.6,708.7 	"/>
	<rect x="347.1" y="708.7" class="st1" width="2.9" height="14.5"/>
	<polygon class="st1" points="355.5,711 355.5,714.6 360.4,714.6 360.4,716.9 355.5,716.9 355.5,720.8 361,720.8 361,723.2 
		352.6,723.2 352.6,708.6 361,708.6 361,711 	"/>
	<polygon class="st1" points="382.7,708.7 378.6,723.2 375.2,723.2 372.5,712.8 369.6,723.2 366.2,723.2 362.3,708.7 365.4,708.7 
		368,719.9 370.9,708.7 374.2,708.7 377,719.9 379.5,708.7 	"/>
	<path class="st0" d="M159.4,636c-0.2,6.3,4.7,11.5,11,11.7c0.2,0,0.5,0,0.7,0c5.1,0,9.3-2.7,10.8-7.5h-5.3c-1,2.1-3.2,3.5-5.5,3.3
		c-4,0-6.9-3-6.9-7.6c0-4.7,2.9-7.6,6.9-7.6c2.3-0.1,4.5,1.2,5.5,3.3h5.3c-1.6-4.7-5.7-7.5-10.8-7.5c-6.3-0.2-11.5,4.8-11.7,11.1
		C159.4,635.5,159.4,635.7,159.4,636z M208.3,635.9c0.2-6.3-4.9-11.6-11.2-11.8c-0.2,0-0.4,0-0.6,0c-6.4-0.1-11.7,4.9-11.8,11.3
		c0,0.2,0,0.3,0,0.5c-0.1,6.4,4.9,11.7,11.3,11.8c0.2,0,0.3,0,0.5,0c6.4,0.1,11.6-4.9,11.8-11.3
		C208.3,636.3,208.3,636.1,208.3,635.9z M189.5,635.9c0-4.7,2.9-7.6,7.1-7.6c4.2,0,7,2.9,7,7.6s-2.9,7.7-7,7.7
		C192.4,643.6,189.5,640.6,189.5,635.9z M211.8,647.5h4.6v-15l6.2,15h3.5l6.2-15v15h4.6v-23h-5.2l-7.3,17.1l-7.3-17.1h-5.2V647.5z
		 M241.4,647.5h4.6v-23h-4.6V647.5z M265.7,624.4v15.8l-10.5-15.8h-4.6v23.1h4.6v-15.8l10.5,15.8h4.6v-23.1H265.7z M285.5,624.2
		c-6.3-0.2-11.6,4.8-11.7,11.1c0,0.2,0,0.5,0,0.7c-0.2,6.3,4.7,11.6,11,11.8c0.2,0,0.5,0,0.7,0c5.4,0.1,10.2-3.7,11.3-9v-4h-12.5
		v3.5h7.9c-0.5,3.2-3.3,5.5-6.5,5.3c-4.3,0-7.2-2.9-7.2-7.6c0-4.6,2.9-7.5,7-7.5c2.2-0.1,4.3,1,5.4,3h5.3
		C294.7,626.8,290.6,624.2,285.5,624.2z M306.8,628.2h6.1v19.3h4.6v-19.3h6.1v-3.7h-16.9V628.2z M349.6,635.9
		c0.2-6.3-4.9-11.6-11.2-11.8c-0.2,0-0.4,0-0.6,0c-6.4-0.1-11.7,4.9-11.8,11.3c0,0.2,0,0.3,0,0.5c-0.1,6.4,4.9,11.7,11.3,11.8
		c0.2,0,0.3,0,0.5,0c6.4,0.1,11.6-4.9,11.8-11.3C349.6,636.3,349.6,636.1,349.6,635.9L349.6,635.9z M330.7,635.9
		c0-4.7,2.9-7.6,7.1-7.6c4.2,0,7,2.9,7,7.6s-2.9,7.7-7,7.7C333.6,643.6,330.7,640.6,330.7,635.9L330.7,635.9z M359.6,628.2h6.1v19.3
		h4.6v-19.3h6.1v-3.7h-16.9V628.2z M394.4,647.5h4.6v-23h-4.6v9.5h-9.9v-9.5h-4.6v23h4.6v-9.8h9.9V647.5z M416.9,624.4h-13.4v23.1
		h13.4v-3.8h-8.7v-6.1h7.8V634h-7.8v-5.8h8.7L416.9,624.4z M445.1,640.8c0-8.1-11.8-5.5-11.8-10.2c0-1.9,1.4-2.8,3.2-2.7
		c1.7-0.2,3.1,1.1,3.3,2.7h5.1c-0.3-4.2-3.5-6.6-8.2-6.6c-4.8,0-8.1,2.5-8.1,6.7c0,8.3,11.8,5.3,11.8,10.3c0,1.7-1.3,2.8-3.5,2.8
		c-1.7,0.2-3.3-1.1-3.5-2.8l0-0.3h-5c0.1,4.4,3.8,6.9,8.5,6.9C442.2,647.7,445.1,644.5,445.1,640.8L445.1,640.8z M463.6,647.5h4.6
		v-23h-4.6v9.5h-9.9v-9.5h-4.6v23h4.6v-9.8h9.9V647.5z M495.2,635.9c0.2-6.3-4.9-11.6-11.2-11.8c-0.2,0-0.4,0-0.6,0
		c-6.4-0.1-11.7,4.9-11.8,11.3c0,0.2,0,0.3,0,0.5c-0.1,6.4,4.9,11.7,11.3,11.8c0.2,0,0.3,0,0.5,0c6.4,0.1,11.6-4.9,11.8-11.3
		C495.2,636.3,495.2,636.1,495.2,635.9z M476.4,635.9c0-4.7,2.9-7.6,7.1-7.6c4.2,0,7,2.9,7,7.6s-2.9,7.7-7,7.7
		C479.2,643.6,476.4,640.6,476.4,635.9L476.4,635.9z M510.8,631.6c0,2.1-1.2,3.4-3.7,3.4h-3.9v-6.8h3.9
		C509.7,628.3,510.8,629.6,510.8,631.6L510.8,631.6z M498.6,624.5v23h4.6v-9h2.2l5.1,9h5.3l-5.5-9.3c3.1-0.7,5.3-3.5,5.2-6.6
		c0-3.9-2.8-7.1-8.3-7.1H498.6z M533.2,624.4h-13.4v23.1h13.4v-3.8h-8.7v-6.1h7.8V634h-7.8v-5.8h8.7L533.2,624.4z M553.5,640.8
		c0-8.1-11.8-5.5-11.8-10.2c0-1.9,1.4-2.8,3.2-2.7c1.7-0.2,3.1,1.1,3.3,2.7h5.1c-0.3-4.2-3.5-6.6-8.2-6.6c-4.8,0-8.1,2.5-8.1,6.7
		c0,8.3,11.8,5.3,11.8,10.3c0,1.7-1.3,2.8-3.5,2.8c-1.7,0.2-3.3-1.1-3.5-2.8l0-0.3h-5c0.1,4.4,3.8,6.9,8.5,6.9
		C550.5,647.7,553.5,644.5,553.5,640.8L553.5,640.8z M587.8,635.9c0.2-6.3-4.9-11.6-11.2-11.8c-0.2,0-0.4,0-0.6,0
		c-6.4-0.1-11.7,4.9-11.8,11.3c0,0.2,0,0.3,0,0.5c-0.1,6.4,4.9,11.7,11.3,11.8c0.2,0,0.3,0,0.5,0c6.4,0.1,11.6-4.9,11.8-11.3
		C587.8,636.3,587.8,636.1,587.8,635.9L587.8,635.9z M568.9,635.9c0-4.7,2.9-7.6,7.1-7.6c4.2,0,7,2.9,7,7.6c0,4.7-2.9,7.7-7,7.7
		C571.8,643.6,568.9,640.6,568.9,635.9L568.9,635.9z M591.2,647.5h4.6v-9.7h7.4v-3.7h-7.4v-5.9h9.6v-3.7h-14.2V647.5z M616.5,647.5
		h4.6v-15l6.2,15h3.5l6.2-15v15h4.6v-23h-5.2l-7.3,17.1l-7.3-17.1h-5.3V647.5z M646.2,647.5h4.6v-23h-4.6V647.5z M671.5,640.8
		c0-8.1-11.8-5.5-11.8-10.2c0-1.9,1.4-2.8,3.2-2.7c1.7-0.2,3.1,1.1,3.3,2.7h5.1c-0.3-4.2-3.5-6.6-8.2-6.6c-4.8,0-8.1,2.5-8.1,6.7
		c0,8.3,11.8,5.3,11.8,10.3c0,1.7-1.3,2.8-3.5,2.8c-1.7,0.2-3.3-1.1-3.5-2.8l0-0.3h-5c0.1,4.4,3.8,6.9,8.5,6.9
		C668.6,647.7,671.5,644.5,671.5,640.8L671.5,640.8z M691.6,640.8c0-8.1-11.8-5.5-11.8-10.2c0-1.9,1.4-2.8,3.2-2.7
		c1.7-0.2,3.1,1.1,3.3,2.7h5.1c-0.3-4.2-3.5-6.6-8.2-6.6c-4.8,0-8.1,2.5-8.1,6.7c0,8.3,11.8,5.3,11.8,10.3c0,1.7-1.3,2.8-3.5,2.8
		c-1.7,0.2-3.3-1.1-3.5-2.8l0-0.3h-5c0.1,4.4,3.8,6.9,8.6,6.9C688.7,647.7,691.6,644.5,691.6,640.8L691.6,640.8z M695.6,647.5h4.6
		v-23h-4.6V647.5z M720.9,640.8c0-8.1-11.8-5.5-11.8-10.2c0-1.9,1.4-2.8,3.2-2.7c1.7-0.2,3.1,1.1,3.3,2.7h5.1
		c-0.3-4.2-3.5-6.6-8.2-6.6c-4.8,0-8.1,2.5-8.1,6.7c0,8.3,11.8,5.3,11.8,10.3c0,1.7-1.3,2.8-3.5,2.8c-1.7,0.2-3.3-1.1-3.5-2.8l0-0.3
		h-5c0.1,4.4,3.8,6.9,8.5,6.9C718,647.7,720.9,644.5,720.9,640.8z M741,640.8c0-8.1-11.8-5.5-11.8-10.2c0-1.9,1.4-2.8,3.2-2.7
		c1.7-0.2,3.1,1.1,3.3,2.7h5.1c-0.3-4.2-3.5-6.6-8.2-6.6c-4.8,0-8.1,2.5-8.1,6.7c0,8.3,11.8,5.3,11.8,10.3c0,1.7-1.3,2.8-3.5,2.8
		c-1.7,0.2-3.3-1.1-3.5-2.8l0-0.3h-5c0.1,4.4,3.8,6.9,8.5,6.9C738.1,647.7,741,644.5,741,640.8L741,640.8z M760.6,647.5h4.9
		l-8.3-23.1h-5.4l-8.3,23.1h4.9l1.5-4.4h9.2L760.6,647.5z M757.8,639.4h-6.7l3.3-9.6L757.8,639.4z M768.5,638.7c0,6.1,4.2,9,9.2,9
		s9.4-3,9.4-9v-14.2h-4.7v14.3c0,3.2-1.7,4.8-4.7,4.8c-2.9,0-4.7-1.7-4.7-4.8v-14.3h-4.6V638.7z M802.2,624.2
		c-6.3-0.2-11.6,4.8-11.7,11.1c0,0.2,0,0.5,0,0.7c-0.2,6.3,4.7,11.6,11,11.8c0.2,0,0.5,0,0.7,0c5.4,0.1,10.2-3.7,11.3-9v-4H801v3.5
		h7.9c-0.5,3.2-3.3,5.5-6.5,5.3c-4.3,0-7.2-2.9-7.2-7.6c0-4.6,2.9-7.5,7-7.5c2.2-0.1,4.3,1,5.4,3h5.3
		C811.4,626.8,807.4,624.2,802.2,624.2L802.2,624.2z M832.6,647.5h4.9l-8.3-23.1h-5.4l-8.3,23.1h4.9l1.5-4.4h9.2L832.6,647.5z
		 M829.8,639.4h-6.7l3.3-9.6L829.8,639.4z M845.4,645c0-1.5-1.2-2.7-2.7-2.7l-0.1,0c-1.5-0.1-2.8,1.1-2.9,2.6l0,0.1
		c0,1.5,1.2,2.7,2.7,2.7l0.1,0c1.5,0.1,2.7-1.1,2.8-2.6L845.4,645z"/>
	<path class="st0" d="M182.9,411.1l8.5-0.1l20.2-66.8l19.7,66.8h8.7l22.2-78.3h-8.4l-18,68.7l-19.5-68.7h-8.7l-20,68.7l-17.9-68.7
		h-8.4L182.9,411.1z M348.1,371.8c0-23.4-16.7-40-38.8-40c-22,0-38.8,16.6-38.8,40c0,23.5,16.8,40,38.8,40
		C331.4,411.8,348.1,395.3,348.1,371.8z M278.6,371.8c0-20.5,13.3-33,30.7-33c17.4,0,30.7,12.5,30.7,33S326.7,405,309.3,405
		C292,405,278.6,392.3,278.6,371.8z M362.1,381.9c0,20.7,12.5,29.9,28.4,29.9s28.4-9.2,28.4-29.9v-49.2h-7.8V382
		c0,16.2-8.3,22.8-20.5,22.8s-20.7-6.6-20.7-22.8v-49.3h-7.8V381.9z M436.5,332.7V411h36v-6.4h-28.1v-71.9L436.5,332.7z
		 M506.8,332.7h-23.2V411h23.2c26.1,0,41.4-14.7,41.4-39C548.2,347.5,532.9,332.7,506.8,332.7z M491.4,404.5v-65.3h15.3
		c22.2,0,33.5,12.5,33.5,32.8c0,20.2-11.3,32.5-33.5,32.5L491.4,404.5z M613.9,332.7v65.7l-43.3-65.7h-7.8V411h7.8v-65.9l43.3,65.9
		h7.8v-78.3H613.9z M639.7,356.9l9.9-24.2h-9.1l-6.5,24.2H639.7z M656,339.2h21.8V411h7.8v-71.8h21.7v-6.5H656V339.2z M750.5,411
		h7.8v-78.3h-7.8V411z M770.5,339.2h21.8V411h7.8v-71.8H822v-6.5h-51.4V339.2z M211.8,482.3c0,9.4-6.7,15.1-18,15.1H175v-30.6h18.4
		C204.6,466.8,211.8,472.9,211.8,482.3z M209.9,446.2c0,8.7-5.9,14.1-16.6,14.1H175v-28H193C204.3,432.3,209.9,437.8,209.9,446.2
		L209.9,446.2z M219.6,483.1c0.1-9.4-6.5-17.6-15.8-19.5c7.5-2.1,14-7.8,14-18.1c0-11-7.8-19.7-24.3-19.7h-26.3V504h27.1
		C210.8,504,219.6,494.8,219.6,483.1L219.6,483.1z M274.9,425.6h-40.9V504h40.9v-6.5h-33v-29.7h29.7v-6.5h-29.7v-29.2h33V425.6z
		 M372.3,425.7v65.7l-43.3-65.7h-7.8V504h7.8v-65.9l43.3,65.9h7.8v-78.3H372.3z M397.9,504h7.8v-78.3h-7.8V504z M420,464.8
		c0,23.5,16.6,39.9,38.3,39.9c17.5,0,30.5-8.7,36.1-23.5h-9.2c-4.4,10.2-13.6,16.7-26.9,16.7c-17.1,0-30.2-12.7-30.2-33
		c0-20.5,13.1-33.2,30.2-33.2c13.3,0,22.5,6.5,26.9,16.9h9.2c-5.6-15-18.6-23.7-36.1-23.7C436.6,424.8,420,441.3,420,464.8z
		 M550.8,425.6h-40.9V504h40.9v-6.5h-33v-29.7h29.7v-6.5h-29.7v-29.2h33V425.6z M591.3,432.2h21.8V504h7.8v-71.8h21.7v-6.5h-51.4
		L591.3,432.2z M729.1,464.8c0-23.4-16.7-40-38.8-40c-22,0-38.8,16.6-38.8,40c0,23.5,16.8,40,38.8,40
		C712.4,504.8,729.1,488.3,729.1,464.8z M659.7,464.8c0-20.5,13.3-33,30.7-33s30.7,12.5,30.7,33S707.7,498,690.4,498
		S659.7,485.3,659.7,464.8z M774.1,425.7V504h36v-6.4H782v-71.9L774.1,425.7z M821.3,504h7.8v-78.3h-7.8V504z M874.8,495.5
		l-25.6-69.8h-8.5l29.7,78.3h9l29.7-78.3h-8.3L874.8,495.5z M961.6,425.6h-40.9V504h40.9v-6.5h-33v-29.7h29.7v-6.5h-29.7v-29.2h33
		L961.6,425.6z M161.6,525.2h21.8V597h7.8v-71.8H213v-6.5h-51.4V525.2z M299.4,557.8c0-23.4-16.7-40-38.8-40
		c-22,0-38.8,16.6-38.8,40c0,23.5,16.8,40,38.8,40C282.7,597.8,299.4,581.3,299.4,557.8z M229.9,557.8c0-20.5,13.3-33,30.7-33
		c17.4,0,30.7,12.5,30.7,33S278,591,260.6,591C243.3,591,229.9,578.3,229.9,557.8z M348.9,517.8c-22,0-38.8,16.6-38.8,40
		c0,23.5,16.8,40,38.8,40c21.4,0,36.8-15.9,38.1-36.6v-5.7h-41.2v6.4h32.9c-1.2,17.8-13.3,28.9-29.8,28.9
		c-17.4,0-30.7-12.7-30.7-32.9c0-20.3,13.3-32.8,30.7-32.8c12.5,0,22.1,6.5,26.4,16.6h9.2C378.9,526.7,365.7,517.8,348.9,517.8z
		 M442.2,518.6h-40.9V597h40.9v-6.5h-33v-29.7h29.7v-6.5h-29.7v-29.2h33L442.2,518.6z M452,525.2h21.8V597h7.8v-71.8h21.7v-6.5H452
		L452,525.2z M566.1,597h7.8v-78.3h-7.8v35.2h-42.4v-35.2h-7.8V597h7.8v-36.6h42.4V597z M632.8,518.6h-40.9V597h40.9v-6.5h-33v-29.7
		h29.7v-6.5h-29.7v-29.2h33L632.8,518.6z M690.4,541.4c0,9.5-5.7,16.5-18.5,16.5h-15.8v-32.6h15.7
		C685,525.3,690.4,531.6,690.4,541.4L690.4,541.4z M648.2,518.7V597h7.8v-32.7h14.4l19.4,32.7h9.4l-20.2-33.3
		c13.2-2.5,19.3-11.5,19.3-22.3c0-12.9-8.5-22.7-26.7-22.7H648.2z M720.9,591.7c0-3.1-2.5-5.7-5.7-5.7s-5.7,2.5-5.7,5.7
		c-0.1,3.1,2.4,5.7,5.5,5.8s5.7-2.4,5.8-5.5C720.9,591.9,720.9,591.8,720.9,591.7z"/>
</g>
</svg>
