<?xml version="1.0" encoding="utf-8"?>
<!-- Generator: Adobe Illustrator 26.2.1, SVG Export Plug-In . SVG Version: 6.00 Build 0)  -->
<svg version="1.1" id="Layer_1" xmlns="http://www.w3.org/2000/svg" xmlns:xlink="http://www.w3.org/1999/xlink" x="0px" y="0px"
	 viewBox="0 0 800 1104" style="enable-background:new 0 0 800 1104;" xml:space="preserve">
<style type="text/css">
	.st0{fill:#FFFFFF;fill-opacity:0;}
	.st1{fill:#FFFFFF;}
	.st2{fill:#05446C;}
</style>
<g>
	<polyline class="st0" points="800,0 0,0 0,1104 800,1104 800,0 	"/>
	<path class="st1" d="M81.1,720.9h136.1c16.6,0,30.1,13.5,30.1,30.1s-13.5,30.1-30.1,30.1H81.1C64.5,781.1,51,767.6,51,751
		S64.5,720.9,81.1,720.9z"/>
	<polygon class="st2" points="90.1,754.5 93.4,754.5 93.4,756.1 88,756.1 88,745.9 90.1,745.9 	"/>
	<rect x="94.5" y="745.9" class="st2" width="2" height="10.2"/>
	<polygon class="st2" points="107.5,745.9 103.8,756.1 101.3,756.1 97.6,745.9 99.8,745.9 102.6,754 105.4,745.9 	"/>
	<polygon class="st2" points="110.6,747.5 110.6,750.1 114,750.1 114,751.7 110.6,751.7 110.6,754.4 114.5,754.4 114.5,756.1 
		108.6,756.1 108.6,745.9 114.5,745.9 114.5,747.5 	"/>
	<path class="st2" d="M125.6,754.2h-4.1l-0.7,1.9h-2.2l3.7-10.2h2.4l3.7,10.2h-2.2L125.6,754.2z M125.1,752.5l-1.5-4.3l-1.5,4.3
		H125.1z"/>
	<polygon class="st2" points="136.6,745.9 136.6,747.5 133.9,747.5 133.9,756.1 131.8,756.1 131.8,747.5 129.1,747.5 129.1,745.9 	
		"/>
	<polygon class="st2" points="143.2,754.5 146.5,754.5 146.5,756.1 141.1,756.1 141.1,745.9 143.2,745.9 	"/>
	<path class="st2" d="M153.9,754.2h-4.1l-0.7,1.9H147l3.7-10.2h2.4l3.7,10.2h-2.2L153.9,754.2z M153.3,752.5l-1.5-4.3l-1.5,4.3
		H153.3z"/>
	<polygon class="st2" points="163.7,756.1 159.9,751.6 159.9,756.1 157.9,756.1 157.9,745.9 159.9,745.9 159.9,750.5 163.7,745.9 
		166.1,745.9 161.9,751 166.2,756.1 	"/>
	<polygon class="st2" points="169.4,747.5 169.4,750.1 172.9,750.1 172.9,751.7 169.4,751.7 169.4,754.4 173.3,754.4 173.3,756.1 
		167.4,756.1 167.4,745.9 173.3,745.9 173.3,747.5 	"/>
	<polygon class="st2" points="184.1,745.9 180.4,756.1 177.9,756.1 174.1,745.9 176.3,745.9 179.1,754 181.9,745.9 	"/>
	<rect x="185.1" y="745.9" class="st2" width="2" height="10.2"/>
	<polygon class="st2" points="191,747.5 191,750.1 194.5,750.1 194.5,751.7 191,751.7 191,754.4 194.9,754.4 194.9,756.1 189,756.1 
		189,745.9 194.9,745.9 194.9,747.5 	"/>
	<polygon class="st2" points="210.2,745.9 207.3,756.1 204.9,756.1 203,748.8 201,756.1 198.6,756.1 195.8,745.9 198,745.9 
		199.8,753.8 201.9,745.9 204.2,745.9 206.2,753.8 208,745.9 	"/>
	<path class="st1" d="M51.8,693.5c-0.2,4.6,3.4,8.4,8,8.5c0.2,0,0.4,0,0.5,0c3.5,0.2,6.8-2,7.9-5.4h-3.9c-0.7,1.6-2.3,2.5-4,2.4
		c-2.9,0-5-2.2-5-5.5c0-3.4,2.1-5.5,5-5.5c1.7-0.1,3.3,0.9,4,2.4h3.9c-1.1-3.4-4.3-5.6-7.9-5.4c-4.6-0.1-8.4,3.5-8.5,8.1
		C51.8,693.2,51.8,693.4,51.8,693.5z M87.4,693.5c0.1-4.6-3.5-8.5-8.2-8.6c-0.1,0-0.3,0-0.4,0c-4.6-0.1-8.5,3.6-8.6,8.2
		c0,0.1,0,0.2,0,0.3c-0.1,4.6,3.6,8.5,8.2,8.6c0.1,0,0.2,0,0.3,0c4.6,0.1,8.5-3.6,8.6-8.2C87.4,693.8,87.4,693.6,87.4,693.5z
		 M73.7,693.5c0-3.4,2.1-5.5,5.1-5.5s5.1,2.1,5.1,5.5s-2.1,5.6-5.1,5.6C75.8,699.1,73.7,696.9,73.7,693.5L73.7,693.5z M89.9,701.9
		h3.4V691l4.5,10.9h2.5l4.5-10.9v10.9h3.4v-16.8h-3.8l-5.3,12.5l-5.3-12.5H90L89.9,701.9L89.9,701.9z M111.5,701.9h3.4v-16.8h-3.4
		V701.9z M129.1,685.2v11.5l-7.6-11.5h-3.4V702h3.4v-11.5l7.6,11.5h3.4v-16.8H129.1z M143.5,685c-4.6-0.1-8.4,3.5-8.5,8.1
		c0,0.2,0,0.3,0,0.5c-0.1,4.6,3.5,8.4,8,8.5c0.2,0,0.4,0,0.5,0c3.9,0.1,7.4-2.7,8.2-6.5v-2.9h-9.1v2.6h5.8c-0.3,2.3-2.4,4-4.8,3.9
		c-3.1,0-5.2-2.1-5.2-5.5c0-3.3,2.1-5.5,5.1-5.5c1.6-0.1,3.1,0.7,3.9,2.2h3.9C150.3,686.9,147.3,685,143.5,685L143.5,685z
		 M159.1,687.9h4.5v14h3.4v-14h4.5v-2.7h-12.3L159.1,687.9z M190.1,693.5c0.1-4.6-3.5-8.5-8.2-8.6c-0.1,0-0.3,0-0.4,0
		c-4.6-0.1-8.5,3.6-8.6,8.2c0,0.1,0,0.2,0,0.3c-0.1,4.6,3.6,8.5,8.2,8.6c0.1,0,0.2,0,0.4,0c4.6,0.1,8.5-3.6,8.6-8.2
		C190.2,693.8,190.2,693.6,190.1,693.5L190.1,693.5z M176.4,693.5c0-3.4,2.1-5.5,5.1-5.5s5.1,2.1,5.1,5.5s-2.1,5.6-5.1,5.6
		S176.4,696.9,176.4,693.5z M197.5,687.9h4.5v14h3.4v-14h4.5v-2.7h-12.3L197.5,687.9L197.5,687.9z M222.7,701.9h3.4v-16.8h-3.4v6.9
		h-7.2v-6.9h-3.4v16.8h3.4v-7.1h7.2V701.9z M239.1,685.2h-9.7V702h9.7v-2.7h-6.4v-4.4h5.6v-2.7h-5.6V688h6.4V685.2z M259.6,697.1
		c0-5.9-8.6-4-8.6-7.4c0-1.4,1-2,2.3-2c1.2-0.1,2.3,0.8,2.4,2h3.7c-0.2-3-2.6-4.8-6-4.8c-3.5,0-5.9,1.8-5.9,4.8
		c0,6.1,8.6,3.9,8.6,7.5c0,1.2-0.9,2-2.5,2c-1.3,0.1-2.4-0.8-2.5-2V697h-3.6c0,3.2,2.7,5,6.2,5C257.5,702.1,259.6,699.7,259.6,697.1
		z M273,701.9h3.4v-16.8H273v6.9h-7.2v-6.9h-3.4v16.8h3.4v-7.1h7.2V701.9z M296.1,693.5c0.1-4.6-3.5-8.5-8.2-8.6c-0.1,0-0.3,0-0.4,0
		c-4.6-0.1-8.5,3.6-8.6,8.2c0,0.1,0,0.2,0,0.3c-0.1,4.6,3.6,8.5,8.2,8.6c0.1,0,0.2,0,0.4,0c4.6,0.1,8.5-3.6,8.6-8.2
		C296.1,693.8,296.1,693.6,296.1,693.5L296.1,693.5z M282.4,693.5c0-3.4,2.1-5.5,5.1-5.5s5.1,2.1,5.1,5.5s-2.1,5.6-5.1,5.6
		C284.4,699.1,282.4,696.9,282.4,693.5L282.4,693.5z M307.4,690.4c0,1.5-0.8,2.5-2.7,2.5h-2.8V688h2.8
		C306.6,688,307.4,688.9,307.4,690.4L307.4,690.4z M298.6,685.2V702h3.4v-6.5h1.6l3.7,6.5h3.9l-4-6.8c2.3-0.5,3.9-2.5,3.8-4.8
		c0-2.8-2-5.1-6-5.1h-6.4V685.2z M323.7,685.2H314V702h9.7v-2.7h-6.4v-4.4h5.6v-2.7h-5.6V688h6.4V685.2z M338.4,697.1
		c0-5.9-8.6-4-8.6-7.4c0-1.4,1-2,2.3-2c1.2-0.1,2.3,0.8,2.4,2h3.7c-0.2-3-2.6-4.8-6-4.8c-3.5,0-5.9,1.8-5.9,4.8
		c0,6.1,8.6,3.9,8.6,7.5c0,1.2-0.9,2-2.5,2c-1.3,0.1-2.4-0.8-2.5-2V697h-3.6c0,3.2,2.7,5,6.2,5C336.3,702.1,338.4,699.7,338.4,697.1
		z M363.4,693.5c0.1-4.6-3.5-8.5-8.2-8.6c-0.1,0-0.3,0-0.4,0c-4.6-0.1-8.5,3.6-8.6,8.2c0,0.1,0,0.2,0,0.3c-0.1,4.6,3.6,8.5,8.2,8.6
		c0.1,0,0.2,0,0.3,0c4.6,0.1,8.5-3.6,8.6-8.2C363.4,693.8,363.4,693.6,363.4,693.5z M349.7,693.5c0-3.4,2.1-5.5,5.1-5.5
		s5.1,2.1,5.1,5.5s-2.1,5.6-5.1,5.6C351.8,699.1,349.7,696.9,349.7,693.5L349.7,693.5z M365.9,701.9h3.4v-7.1h5.4v-2.7h-5.4v-4.3h7
		v-2.7H366v16.8H365.9z M384.3,701.9h3.4V691l4.5,10.9h2.5l4.5-10.9v10.9h3.4v-16.8h-3.8l-5.3,12.5l-5.3-12.5h-3.8L384.3,701.9z
		 M405.9,701.9h3.4v-16.8h-3.4V701.9z M424.3,697.1c0-5.9-8.6-4-8.6-7.4c0-1.4,1-2,2.3-2c1.2-0.1,2.3,0.8,2.4,2h3.7
		c-0.2-3-2.6-4.8-6-4.8c-3.5,0-5.9,1.8-5.9,4.8c0,6.1,8.6,3.9,8.6,7.5c0,1.2-0.9,2-2.5,2c-1.3,0.1-2.4-0.8-2.5-2V697h-3.6
		c0,3.2,2.7,5,6.2,5C422.2,702.1,424.3,699.7,424.3,697.1z M438.9,697.1c0-5.9-8.6-4-8.6-7.4c0-1.4,1-2,2.3-2c1.2-0.1,2.3,0.8,2.4,2
		h3.7c-0.2-3-2.6-4.8-6-4.8c-3.5,0-5.9,1.8-5.9,4.8c0,6.1,8.6,3.9,8.6,7.5c0,1.2-0.9,2-2.5,2c-1.3,0.1-2.4-0.8-2.5-2V697h-3.6
		c0,3.2,2.7,5,6.2,5C436.8,702.1,438.9,699.7,438.9,697.1z M441.8,701.9h3.4v-16.8h-3.4V701.9z M460.2,697.1c0-5.9-8.6-4-8.6-7.4
		c0-1.4,1-2,2.3-2c1.2-0.1,2.3,0.8,2.4,2h3.7c-0.2-3-2.6-4.8-6-4.8c-3.5,0-5.9,1.8-5.9,4.8c0,6.1,8.6,3.9,8.6,7.5c0,1.2-0.9,2-2.5,2
		c-1.3,0.1-2.4-0.8-2.5-2V697H448c0,3.2,2.7,5,6.2,5C458.1,702.1,460.2,699.7,460.2,697.1z M474.8,697.1c0-5.9-8.6-4-8.6-7.4
		c0-1.4,1-2,2.3-2c1.2-0.1,2.3,0.8,2.4,2h3.7c-0.2-3-2.6-4.8-6-4.8c-3.5,0-5.9,1.8-5.9,4.8c0,6.1,8.6,3.9,8.6,7.5c0,1.2-0.9,2-2.5,2
		c-1.3,0.1-2.4-0.8-2.5-2V697h-3.6c0,3.2,2.7,5,6.2,5C472.7,702.1,474.8,699.7,474.8,697.1z M489.1,701.9h3.6l-6-16.8h-3.9l-6,16.8
		h3.5l1.1-3.2h6.7L489.1,701.9z M487.1,696h-4.8l2.4-7L487.1,696z M494.8,695.5c0,4.4,3,6.6,6.7,6.6s6.8-2.2,6.8-6.6v-10.3H505v10.4
		c0,2.3-1.2,3.5-3.4,3.5c-2.1,0-3.4-1.2-3.4-3.5v-10.4h-3.4L494.8,695.5z M519.3,685c-4.6-0.1-8.4,3.5-8.5,8.1c0,0.2,0,0.3,0,0.5
		c-0.1,4.6,3.5,8.4,8,8.5c0.2,0,0.4,0,0.5,0c3.9,0.1,7.4-2.7,8.2-6.5v-2.9h-9.1v2.6h5.8c-0.3,2.3-2.4,4-4.8,3.9
		c-3.1,0-5.2-2.1-5.2-5.5c0-3.3,2.1-5.5,5.1-5.5c1.6-0.1,3.1,0.7,3.9,2.2h3.9C526.1,686.9,523.1,685,519.3,685L519.3,685z
		 M541.4,701.9h3.6l-6-16.8h-4l-6,16.8h3.5l1.1-3.2h6.7L541.4,701.9z M539.4,696h-4.8l2.4-7L539.4,696z M550.8,700.1
		c0-1.1-0.9-2-2-2h-0.1c-1.1-0.1-2,0.8-2.1,1.9v0.1c0,1.1,0.9,2,2,2h0.1C549.8,702.1,550.7,701.3,550.8,700.1L550.8,700.1z"/>
	<path class="st1" d="M68.6,465l6.1-0.1l14.4-47.7l14.1,47.7h6.2l15.8-55.9h-6l-12.9,49l-13.9-49h-6.2l-14.3,49l-12.8-49h-6
		L68.6,465z M186.6,436.9c0-16.7-11.9-28.6-27.7-28.6c-15.7,0-27.7,11.8-27.7,28.6c0,16.8,12,28.6,27.7,28.6
		C174.7,465.5,186.6,453.7,186.6,436.9z M137,436.9c0-14.6,9.5-23.6,21.9-23.6s21.9,9,21.9,23.6s-9.5,23.7-21.9,23.7
		S137,451.6,137,436.9z M196.6,444.1c0,14.8,9,21.4,20.3,21.4s20.3-6.6,20.3-21.4V409h-5.6v35.2c0,11.6-5.9,16.3-14.6,16.3
		s-14.8-4.7-14.8-16.3V409h-5.6L196.6,444.1z M249.7,409v55.9h25.7v-4.6h-20.1V409H249.7z M300,409h-16.6v55.9H300
		c18.6,0,29.6-10.5,29.6-27.8C329.6,419.6,318.6,409,300,409z M289,460.3v-46.6h11c15.8,0,23.9,9,23.9,23.4s-8.1,23.2-23.9,23.2H289
		z M376.4,409v47l-31-47h-5.6v55.9h5.6v-47l31,47h5.6V409H376.4z M394.9,426.3l7-17.3h-6.5l-4.6,17.3H394.9z M406.5,413.7h15.6V465
		h5.6v-51.3h15.5V409h-36.7V413.7z M57.4,531.9H63V476h-5.6V531.9z M71.7,480.7h15.6V532h5.6v-51.3h15.5V476H71.7V480.7z
		 M171.1,516.4c0,6.7-4.8,10.8-12.9,10.8h-13.4v-21.8H158C166,505.4,171.1,509.7,171.1,516.4z M169.7,490.6
		c0,6.2-4.2,10.1-11.8,10.1h-13v-20h12.8C165.7,480.7,169.7,484.7,169.7,490.6z M176.7,517c0.1-6.7-4.7-12.6-11.3-13.9
		c5.4-1.5,10-5.6,10-13c0-7.8-5.6-14.1-17.4-14.1h-18.8v55.9h19.4C170.4,531.9,176.7,525.4,176.7,517z M216.2,475.9H187v56h29.2
		v-4.6h-23.6v-21.2h21.2v-4.6h-21.2v-20.9h23.6V475.9z M285.7,476v47l-31-47h-5.6v55.9h5.6v-47l31,47h5.6V476H285.7z M304,531.9h5.6
		V476H304V531.9z M319.8,503.9c0,16.8,11.8,28.5,27.4,28.5c12.5,0,21.8-6.2,25.8-16.8h-6.6c-3.1,7.3-9.7,11.9-19.2,11.9
		c-12.2,0-21.6-9-21.6-23.6s9.4-23.7,21.6-23.7c9.5,0,16.1,4.6,19.2,12.1h6.6c-4-10.7-13.3-17-25.8-17
		C331.6,475.4,319.8,487.1,319.8,503.9z M413.2,475.9H384v56h29.2v-4.6h-23.6v-21.2h21.2v-4.6h-21.2v-20.9h23.6V475.9z M53.4,547.7
		H69V599h5.6v-51.3h15.5V543H53.4V547.7z M151.8,570.9c0-16.7-11.9-28.6-27.7-28.6c-15.7,0-27.7,11.8-27.7,28.6s12,28.6,27.7,28.6
		C139.9,599.5,151.8,587.7,151.8,570.9z M102.2,570.9c0-14.6,9.5-23.6,21.9-23.6s21.9,9,21.9,23.6s-9.5,23.7-21.9,23.7
		S102.2,585.6,102.2,570.9z M184,543v55.9h25.7v-4.6h-20.1V543H184z M217.6,598.9h5.6V543h-5.6V598.9z M255.9,592.8L237.6,543h-6.1
		l21.2,55.9h6.4l21.2-55.9h-5.9L255.9,592.8z M317.9,542.9h-29.2v56h29.2v-4.6h-23.6v-21.2h21.2v-4.6h-21.2v-20.9h23.6V542.9z
		 M53.4,614.7H69V666h5.6v-51.3h15.5V610H53.4V614.7z M151.8,637.9c0-16.7-11.9-28.6-27.7-28.6c-15.7,0-27.7,11.8-27.7,28.6
		s12,28.6,27.7,28.6C139.9,666.5,151.8,654.7,151.8,637.9z M102.2,637.9c0-14.6,9.5-23.6,21.9-23.6s21.9,9,21.9,23.6
		s-9.5,23.7-21.9,23.7S102.2,652.6,102.2,637.9z M187.2,609.4c-15.7,0-27.7,11.8-27.7,28.6s12,28.6,27.7,28.6
		c15.3,0,26.3-11.4,27.2-26.2v-4.1H185v4.6h23.5c-0.9,12.7-9.5,20.6-21.3,20.6c-12.4,0-21.9-9-21.9-23.5s9.5-23.4,21.9-23.4
		c9,0,15.8,4.6,18.9,11.8h6.6C208.6,615.7,199.2,609.4,187.2,609.4z M253.8,609.9h-29.2v56h29.2v-4.6h-23.6v-21.2h21.2v-4.6h-21.2
		v-20.9h23.6V609.9z M260.8,614.7h15.6V666h5.6v-51.3h15.5V610h-36.7V614.7z M342.4,665.9h5.6V610h-5.6v25.1H312V610h-5.6v55.9h5.6
		v-26.2h30.3L342.4,665.9z M390,609.9h-29.2v56H390v-4.6h-23.6v-21.2h21.2v-4.6h-21.2v-20.9H390V609.9z M431.1,626.2
		c0,6.8-4.1,11.8-13.2,11.8h-11.3v-23.3h11.2C427.2,614.7,431.1,619.2,431.1,626.2z M401,610v55.9h5.6v-23.4h10.3l13.8,23.4h6.7
		L423,642.1c9.4-1.8,13.8-8.2,13.8-15.9c0-9.2-6.1-16.2-19-16.2H401z M452.9,662.2c0-2.2-1.8-4-4-4s-4,1.8-4,4l0,0
		c-0.1,2.2,1.7,4.1,3.9,4.2c2.2,0.1,4.1-1.7,4.2-3.9v-0.3H452.9z"/>
</g>
</svg>
