<svg xmlns="http://www.w3.org/2000/svg" xmlns:xlink="http://www.w3.org/1999/xlink" width="1255" height="705.938" viewBox="0 0 1255 705.938">
  <defs>
    <filter id="Rectangle_447" x="3.708" y="391.397" width="346.211" height="210.141" filterUnits="userSpaceOnUse">
      <feOffset input="SourceAlpha"/>
      <feGaussianBlur stdDeviation="25" result="blur"/>
      <feFlood flood-opacity="0.502"/>
      <feComposite operator="in" in2="blur"/>
      <feComposite in="SourceGraphic"/>
    </filter>
    <filter id="Path_20940" x="4.531" y="356.12" width="638.476" height="166.801" filterUnits="userSpaceOnUse">
      <feOffset input="SourceAlpha"/>
      <feGaussianBlur stdDeviation="25" result="blur-2"/>
      <feFlood flood-opacity="0.502"/>
      <feComposite operator="in" in2="blur-2"/>
      <feComposite in="SourceGraphic"/>
    </filter>
    <filter id="Path_20939" x="5.782" y="147.97" width="719.979" height="339.385" filterUnits="userSpaceOnUse">
      <feOffset input="SourceAlpha"/>
      <feGaussianBlur stdDeviation="25" result="blur-3"/>
      <feFlood flood-opacity="0.502"/>
      <feComposite operator="in" in2="blur-3"/>
      <feComposite in="SourceGraphic"/>
    </filter>
  </defs>
  <g id="text-1280" transform="translate(-95.203 -302.365)">
    <rect id="hero-1280" width="1255" height="705.938" transform="translate(95.203 302.365)" fill="rgba(255,255,255,0)"/>
    <g id="btn-HERO" transform="translate(173.911 768.762)">
      <g transform="matrix(1, 0, 0, 1, -78.71, -466.4)" filter="url(#Rectangle_447)">
        <rect id="Rectangle_447-2" data-name="Rectangle 447" width="196.211" height="60.141" rx="30.071" transform="translate(78.71 466.4)" fill="#fff"/>
      </g>
      <path id="Path_20941" data-name="Path 20941" d="M7.093-11.539c0,1.032-.6,1.764-1.929,1.764H3.28v-3.484H5.164C6.495-13.259,7.093-12.586,7.093-11.539Zm-5.518-3.11V-4.257h1.7V-8.414h1.3L6.973-4.257H9.007L6.435-8.563a2.958,2.958,0,0,0,2.407-2.976c0-1.69-1.211-3.11-3.679-3.11Zm15.193-.015H11.025V-4.257h5.742V-5.648H12.73V-8.833h3.589v-1.391H12.73v-3.05h4.037Zm6.834-.12a5.2,5.2,0,0,0-5.308,5.308A5.189,5.189,0,0,0,23.6-4.167a5.124,5.124,0,0,0,5.144-4.456V-9.954H23.018v1.361h3.9A3.147,3.147,0,0,1,23.6-5.707a3.489,3.489,0,0,1-3.559-3.768A3.477,3.477,0,0,1,23.6-13.229a2.954,2.954,0,0,1,2.781,1.57h2.049A4.954,4.954,0,0,0,23.6-14.784ZM30.42-4.257h1.7V-14.649h-1.7ZM41.381-7.2c0-3.8-5.5-2.333-5.5-4.68,0-1,.763-1.48,1.75-1.45a1.626,1.626,0,0,1,1.75,1.376h1.884c-.15-1.779-1.555-2.826-3.544-2.826-2.123,0-3.574,1.136-3.574,2.961,0,3.828,5.518,2.2,5.518,4.71,0,.882-.673,1.525-1.869,1.525a1.668,1.668,0,0,1-1.854-1.54H34.113c0,1.839,1.6,2.976,3.679,2.976C40.11-4.152,41.381-5.648,41.381-7.2Zm1.48-6.056h2.781v9h1.7v-9h2.766v-1.391H42.861Zm14.714-1.406H51.833V-4.257h5.742V-5.648H53.538V-8.833h3.589v-1.391H53.538v-3.05h4.037Zm7.611,3.125c0,1.032-.6,1.764-1.929,1.764H61.373v-3.484h1.884C64.588-13.259,65.186-12.586,65.186-11.539Zm-5.518-3.11V-4.257h1.7V-8.414h1.3l2.393,4.157H67.1L64.528-8.563a2.958,2.958,0,0,0,2.407-2.976c0-1.69-1.211-3.11-3.679-3.11Zm20.172-.015v7.746l-5.129-7.746h-1.7V-4.257h1.7v-7.761L79.84-4.257h1.7V-14.664Zm14,5.189a5.181,5.181,0,0,0-5.308-5.308A5.2,5.2,0,0,0,83.22-9.476a5.2,5.2,0,0,0,5.308,5.323A5.184,5.184,0,0,0,93.837-9.476Zm-8.867,0a3.5,3.5,0,0,1,3.559-3.813,3.5,3.5,0,0,1,3.559,3.813,3.52,3.52,0,0,1-3.559,3.843A3.52,3.52,0,0,1,84.969-9.476ZM97.62-4.242l1.914-.015,2.318-7.865,2.183,7.865h1.929l3.08-10.393H107.22l-2.168,8.419-2.168-8.419h-1.914L98.637-6.186l-2.153-8.464H94.674Z" transform="translate(45.404 40.22)" fill="#05446c"/>
    </g>
    <g transform="matrix(1, 0, 0, 1, 95.2, 302.37)" filter="url(#Path_20940)">
      <path id="Path_20940-2" data-name="Path 20940" d="M1.155-14.952A8.087,8.087,0,0,0,9.473-6.586,7.7,7.7,0,0,0,17.181-11.9H13.4A4.118,4.118,0,0,1,9.45-9.524c-2.867,0-4.911-2.115-4.911-5.428,0-3.337,2.044-5.428,4.911-5.428A4.135,4.135,0,0,1,13.4-18.03h3.783a7.729,7.729,0,0,0-7.707-5.311A8.106,8.106,0,0,0,1.155-14.952ZM36-14.975a8.191,8.191,0,0,0-8.389-8.389A8.238,8.238,0,0,0,19.2-14.975a8.243,8.243,0,0,0,8.412,8.412A8.21,8.21,0,0,0,36-14.975Zm-13.417,0c0-3.337,2.044-5.428,5.029-5.428,2.961,0,5.005,2.091,5.005,5.428S30.574-9.5,27.614-9.5C24.63-9.5,22.585-11.638,22.585-14.975ZM38.446-6.727h3.29V-17.4L46.154-6.727h2.491L53.039-17.4V-6.727h3.29v-16.4H52.616L47.4-10.934l-5.217-12.2H38.446Zm21.125,0h3.29v-16.4h-3.29ZM76.842-23.153v11.279L69.393-23.153H66.1V-6.727h3.29V-17.983L76.842-6.727h3.29V-23.153Zm14.1-.188a8.131,8.131,0,0,0-8.365,8.389,8.117,8.117,0,0,0,8.389,8.365,8.016,8.016,0,0,0,8.013-6.391v-2.867H90.095v2.514h5.64a4.453,4.453,0,0,1-4.653,3.783c-3.055,0-5.123-2.068-5.123-5.4,0-3.266,2.044-5.358,4.982-5.358a4.124,4.124,0,0,1,3.854,2.115h3.783C97.52-21.484,94.607-23.341,90.941-23.341Zm15.2,2.867h4.371V-6.727h3.29V-20.474h4.371v-2.655H106.144Zm30.43,5.5a8.191,8.191,0,0,0-8.389-8.389,8.238,8.238,0,0,0-8.412,8.389,8.243,8.243,0,0,0,8.412,8.412A8.21,8.21,0,0,0,136.574-14.975Zm-13.417,0c0-3.337,2.044-5.428,5.029-5.428,2.961,0,5.005,2.091,5.005,5.428S131.146-9.5,128.185-9.5C125.2-9.5,123.157-11.638,123.157-14.975Zm20.584-5.5h4.371V-6.727h3.29V-20.474h4.371v-2.655H143.741ZM168.484-6.727h3.29v-16.4h-3.29v6.744h-7.026v-6.744h-3.29v16.4h3.29v-6.979h7.026Zm16.049-16.425h-9.517V-6.727h9.517V-9.406h-6.227v-4.347h5.522v-2.608h-5.522v-4.112h6.227Zm20.044,11.679c0-5.781-8.412-3.948-8.412-7.237,0-1.339.963-1.974,2.256-1.927a2.165,2.165,0,0,1,2.35,1.95h3.619c-.211-2.961-2.514-4.676-5.875-4.676-3.384,0-5.781,1.786-5.781,4.747-.023,5.945,8.436,3.807,8.436,7.355,0,1.175-.916,2-2.467,2a2.252,2.252,0,0,1-2.491-2.185h-3.525c.047,3.1,2.679,4.888,6.086,4.888C202.509-6.563,204.577-8.889,204.577-11.474Zm13.159,4.747h3.29v-16.4h-3.29v6.744H210.71v-6.744h-3.29v16.4h3.29v-6.979h7.026Zm22.535-8.248a8.191,8.191,0,0,0-8.389-8.389,8.238,8.238,0,0,0-8.412,8.389,8.243,8.243,0,0,0,8.412,8.412A8.21,8.21,0,0,0,240.271-14.975Zm-13.417,0c0-3.337,2.044-5.428,5.029-5.428,2.961,0,5.005,2.091,5.005,5.428S234.843-9.5,231.882-9.5C228.9-9.5,226.853-11.638,226.853-14.975Zm24.555-3.055c0,1.48-.822,2.444-2.655,2.444H246V-20.4h2.749C250.586-20.4,251.409-19.487,251.409-18.03Zm-8.694-5.1v16.4H246v-6.391h1.551l3.619,6.391h3.807l-3.924-6.65a4.736,4.736,0,0,0,3.736-4.723c0-2.749-1.974-5.029-5.921-5.029Zm24.579-.023h-9.517V-6.727h9.517V-9.406h-6.227v-4.347h5.522v-2.608h-5.522v-4.112h6.227Zm14.451,11.679c0-5.781-8.412-3.948-8.412-7.237,0-1.339.963-1.974,2.256-1.927a2.165,2.165,0,0,1,2.35,1.95h3.619c-.211-2.961-2.514-4.676-5.874-4.676-3.384,0-5.781,1.786-5.781,4.747-.023,5.945,8.436,3.807,8.436,7.355,0,1.175-.916,2-2.467,2a2.252,2.252,0,0,1-2.491-2.185h-3.525c.047,3.1,2.679,4.888,6.086,4.888C279.677-6.563,281.745-8.889,281.745-11.474Zm24.438-3.5a8.191,8.191,0,0,0-8.389-8.389,8.238,8.238,0,0,0-8.412,8.389,8.243,8.243,0,0,0,8.412,8.412A8.21,8.21,0,0,0,306.183-14.975Zm-13.417,0c0-3.337,2.044-5.428,5.029-5.428,2.961,0,5.005,2.091,5.005,5.428S300.755-9.5,297.794-9.5C294.81-9.5,292.765-11.638,292.765-14.975Zm15.861,8.248h3.29v-6.932h5.24v-2.608h-5.24v-4.206h6.838v-2.655H308.626Zm18.046,0h3.29V-17.4L334.38-6.727h2.491L341.265-17.4V-6.727h3.29v-16.4h-3.713l-5.217,12.2-5.217-12.2h-3.736Zm21.125,0h3.29v-16.4H347.8Zm18-4.747c0-5.781-8.412-3.948-8.412-7.237,0-1.339.963-1.974,2.256-1.927a2.165,2.165,0,0,1,2.35,1.95h3.619c-.211-2.961-2.514-4.676-5.874-4.676-3.384,0-5.781,1.786-5.781,4.747-.023,5.945,8.436,3.807,8.436,7.355,0,1.175-.916,2-2.467,2a2.252,2.252,0,0,1-2.491-2.185h-3.525c.047,3.1,2.679,4.888,6.086,4.888C363.729-6.563,365.8-8.889,365.8-11.474Zm14.31,0c0-5.781-8.412-3.948-8.412-7.237,0-1.339.963-1.974,2.256-1.927a2.165,2.165,0,0,1,2.35,1.95h3.619c-.211-2.961-2.514-4.676-5.874-4.676-3.384,0-5.781,1.786-5.781,4.747-.023,5.945,8.436,3.807,8.436,7.355,0,1.175-.916,2-2.467,2a2.252,2.252,0,0,1-2.491-2.185h-3.525c.047,3.1,2.679,4.888,6.086,4.888C378.039-6.563,380.107-8.889,380.107-11.474Zm2.843,4.747h3.29v-16.4h-3.29Zm18-4.747c0-5.781-8.412-3.948-8.412-7.237,0-1.339.963-1.974,2.256-1.927a2.165,2.165,0,0,1,2.35,1.95h3.619c-.211-2.961-2.514-4.676-5.875-4.676-3.384,0-5.78,1.786-5.78,4.747-.023,5.945,8.436,3.807,8.436,7.355,0,1.175-.916,2-2.467,2a2.252,2.252,0,0,1-2.491-2.185H389.06c.047,3.1,2.679,4.888,6.086,4.888C398.882-6.563,400.95-8.889,400.95-11.474Zm14.31,0c0-5.781-8.412-3.948-8.412-7.237,0-1.339.963-1.974,2.256-1.927a2.165,2.165,0,0,1,2.35,1.95h3.619c-.211-2.961-2.514-4.676-5.875-4.676-3.384,0-5.78,1.786-5.78,4.747-.023,5.945,8.436,3.807,8.436,7.355,0,1.175-.916,2-2.467,2a2.252,2.252,0,0,1-2.491-2.185H403.37c.047,3.1,2.679,4.888,6.086,4.888C413.192-6.563,415.26-8.889,415.26-11.474Zm13.981,4.747h3.478l-5.9-16.425h-3.83l-5.9,16.425h3.454l1.081-3.125h6.532Zm-1.974-5.757h-4.747l2.373-6.861ZM434.881-13c0,4.324,2.961,6.438,6.556,6.438s6.7-2.115,6.7-6.438V-23.129h-3.313v10.151c0,2.256-1.222,3.431-3.337,3.431-2.091,0-3.313-1.175-3.313-3.431V-23.129h-3.29Zm23.992-10.339a8.131,8.131,0,0,0-8.365,8.389A8.117,8.117,0,0,0,458.9-6.586a8.016,8.016,0,0,0,8.013-6.391v-2.867h-8.882v2.514h5.639a4.453,4.453,0,0,1-4.653,3.783c-3.055,0-5.123-2.068-5.123-5.4,0-3.266,2.044-5.358,4.982-5.358a4.124,4.124,0,0,1,3.854,2.115h3.783C465.452-21.484,462.538-23.341,458.873-23.341ZM480.491-6.727h3.478l-5.9-16.425h-3.83l-5.9,16.425H471.8l1.081-3.125h6.532Zm-1.974-5.757H473.77l2.373-6.861ZM489.631-8.49a1.923,1.923,0,0,0-2-1.927A1.936,1.936,0,0,0,485.59-8.49a1.936,1.936,0,0,0,2.044,1.927A1.923,1.923,0,0,0,489.631-8.49Z" transform="translate(78.38 454.48)" fill="#fff"/>
    </g>
    <g transform="matrix(1, 0, 0, 1, 95.2, 302.37)" filter="url(#Path_20939)">
      <path id="Path_20939-2" data-name="Path 20939" d="M18.384,95.28l6.061-.08L38.8,47.668,52.836,95.2h6.221L74.847,39.454H68.866L56.026,88.341,42.149,39.454H35.929L21.653,88.341,8.893,39.454H2.912ZM136.016,67.287c0-16.668-11.883-28.471-27.594-28.471-15.631,0-27.594,11.8-27.594,28.471,0,16.748,11.963,28.471,27.594,28.471C124.133,95.758,136.016,84.035,136.016,67.287Zm-49.445,0c0-14.594,9.49-23.526,21.852-23.526s21.852,8.932,21.852,23.526-9.49,23.606-21.852,23.606S86.571,81.881,86.571,67.287Zm59.414,7.178c0,14.754,8.932,21.293,20.257,21.293S186.5,89.219,186.5,74.465V39.454h-5.583v35.09c0,11.564-5.9,16.269-14.594,16.269s-14.754-4.705-14.754-16.269V39.454h-5.583Zm52.954-35.011V95.2h25.6V90.654H204.522v-51.2Zm50.084,0H232.515V95.2h16.508c18.582,0,29.508-10.447,29.508-27.753C278.531,49.981,267.6,39.454,249.023,39.454ZM238.1,90.574V44.08h10.926c15.791,0,23.845,8.932,23.845,23.367,0,14.355-8.055,23.128-23.845,23.128Zm87.168-51.12V86.268L294.4,39.454h-5.583V95.2H294.4V48.306L325.265,95.2h5.583V39.454ZM343.687,56.68l7.018-17.226h-6.46L339.62,56.68Zm11.564-12.6H370.8V95.2h5.583V44.08h15.472V39.454H355.251Zm67.31,51.12h5.583V39.454h-5.583Zm14.275-51.12h15.551V95.2h5.583V44.08h15.472V39.454H436.836ZM38.959,145.95c0,6.7-4.785,10.766-12.84,10.766H12.8V134.944H25.88C33.855,134.944,38.959,139.251,38.959,145.95ZM37.6,120.27c0,6.221-4.227,10.049-11.8,10.049h-13V110.381h12.76C33.616,110.381,37.6,114.289,37.6,120.27Zm6.938,26.238A14.034,14.034,0,0,0,33.3,132.631c5.343-1.515,9.969-5.583,9.969-12.92,0-7.816-5.583-14.036-17.306-14.036H7.219v55.746h19.3C38.242,161.421,44.542,154.882,44.542,146.508Zm39.4-40.912H54.83v55.826H83.939V156.8H60.412V135.662H81.546v-4.626H60.412V110.221H83.939Zm69.3.08v46.814l-30.864-46.814H116.8v55.746h5.583V114.528l30.864,46.893h5.583V105.676Zm18.263,55.746h5.583V105.676h-5.583Zm15.711-27.913c0,16.748,11.8,28.391,27.275,28.391,12.441,0,21.692-6.221,25.68-16.748h-6.54c-3.11,7.257-9.65,11.883-19.14,11.883-12.2,0-21.533-9.012-21.533-23.526,0-14.594,9.331-23.606,21.533-23.606,9.49,0,16.03,4.626,19.14,12.042h6.54c-3.988-10.687-13.239-16.907-25.68-16.907C199.019,105.038,187.216,116.761,187.216,133.509ZM280.365,105.6H251.256v55.826h29.109V156.8H256.839V135.662h21.134v-4.626H256.839V110.221h23.526Zm28.87,4.705h15.551v51.12h5.583V110.3H345.84v-4.626H309.235Zm98.093,23.207c0-16.668-11.883-28.471-27.594-28.471-15.631,0-27.594,11.8-27.594,28.471,0,16.748,11.963,28.471,27.594,28.471C395.445,161.98,407.328,150.256,407.328,133.509Zm-49.445,0c0-14.594,9.49-23.526,21.852-23.526s21.852,8.932,21.852,23.526-9.49,23.606-21.852,23.606S357.883,148.1,357.883,133.509Zm81.505-27.833v55.746h25.6v-4.546H444.971v-51.2Zm33.575,55.746h5.583V105.676h-5.583Zm38.121-6.061-18.263-49.685H486.76l21.134,55.746h6.38l21.134-55.746h-5.9ZM572.891,105.6H543.782v55.826h29.109V156.8H549.364V135.662H570.5v-4.626H549.364V110.221h23.527ZM3.231,176.523H18.782v51.12h5.583v-51.12H39.837V171.9H3.231Zm98.093,23.207c0-16.668-11.883-28.471-27.594-28.471-15.631,0-27.594,11.8-27.594,28.471,0,16.748,11.963,28.471,27.594,28.471C89.442,228.2,101.324,216.478,101.324,199.73Zm-49.445,0c0-14.594,9.49-23.526,21.852-23.526s21.852,8.932,21.852,23.526-9.49,23.606-21.852,23.606S51.879,214.325,51.879,199.73Zm84.7-28.471c-15.631,0-27.594,11.8-27.594,28.471,0,16.748,11.963,28.471,27.594,28.471,15.232,0,26.238-11.325,27.115-26.078v-4.067H134.341V202.6h23.447c-.877,12.68-9.49,20.576-21.214,20.576-12.361,0-21.852-9.012-21.852-23.447s9.49-23.367,21.852-23.367c8.932,0,15.711,4.626,18.821,11.8h6.54C157.948,177.56,148.537,171.259,136.574,171.259Zm66.432.558H173.9v55.826h29.109v-4.626H179.48V201.884h21.134v-4.626H179.48V176.443h23.526Zm7.018,4.705h15.551v51.12h5.583v-51.12H246.63V171.9H210.025Zm81.266,51.12h5.583V171.9h-5.583v25.042H261.065V171.9h-5.583v55.746h5.583V201.565h30.226Zm47.452-55.826H309.634v55.826h29.109v-4.626H315.216V201.884H336.35v-4.626H315.216V176.443h23.526Zm40.992,16.269c0,6.779-4.067,11.723-13.159,11.723H355.331V176.6H366.5C375.906,176.6,379.734,181.069,379.734,188.087ZM349.748,171.9v55.746h5.583V204.356h10.288l13.8,23.287h6.7l-14.355-23.686c9.411-1.755,13.717-8.214,13.717-15.87,0-9.171-6.061-16.189-18.981-16.189Zm51.758,52a4.028,4.028,0,1,0-8.055,0,4.029,4.029,0,1,0,8.055,0Z" transform="translate(77.87 184.15)" fill="#fff"/>
    </g>
  </g>
</svg>
