<?xml version="1.0" encoding="utf-8"?>
<!-- Generator: Adobe Illustrator 26.2.1, SVG Export Plug-In . SVG Version: 6.00 Build 0)  -->
<svg version="1.1" id="Layer_1" xmlns="http://www.w3.org/2000/svg" xmlns:xlink="http://www.w3.org/1999/xlink" x="0px" y="0px"
	 viewBox="0 0 412 580" style="enable-background:new 0 0 412 580;" xml:space="preserve">
<style type="text/css">
	.st0{fill:#FFFFFF;fill-opacity:0;}
	.st1{fill:#FFFFFF;}
	.st2{fill:#05446C;}
</style>
<g>
	<polyline class="st0" points="412,0 0,0 0,580 412,580 412,0 	"/>
	<path class="st1" d="M36,506.7h90.5c11,0,20,9,20,20s-9,20-20,20H36c-11,0-20-9-20-20C16,515.6,25,506.7,36,506.7z"/>
	<polygon class="st2" points="37.5,529.3 40,529.3 40,530.5 36,530.5 36,522.9 37.5,522.9 	"/>
	<rect x="40.8" y="522.9" class="st2" width="1.5" height="7.6"/>
	<polygon class="st2" points="50.5,522.9 47.7,530.5 45.9,530.5 43.1,522.9 44.7,522.9 46.8,528.9 48.9,522.9 	"/>
	<polygon class="st2" points="52.7,524.1 52.7,526 55.3,526 55.3,527.2 52.7,527.2 52.7,529.2 55.6,529.2 55.6,530.5 51.2,530.5 
		51.2,522.9 55.6,522.9 55.6,524.1 	"/>
	<path class="st2" d="M63.9,529h-3l-0.5,1.4h-1.6l2.7-7.6h1.8l2.7,7.6h-1.6L63.9,529z M63.5,527.8l-1.1-3.2l-1.1,3.2H63.5z"/>
	<polygon class="st2" points="72,522.9 72,524.1 70,524.1 70,530.5 68.5,530.5 68.5,524.1 66.4,524.1 66.4,522.9 	"/>
	<polygon class="st2" points="76.9,529.3 79.4,529.3 79.4,530.5 75.3,530.5 75.3,522.9 76.9,522.9 	"/>
	<path class="st2" d="M84.8,529h-3l-0.5,1.4h-1.6l2.7-7.6h1.8l2.7,7.6h-1.6L84.8,529z M84.4,527.8l-1.1-3.2l-1.1,3.2H84.4z"/>
	<polygon class="st2" points="92,530.5 89.3,527.1 89.3,530.5 87.8,530.5 87.8,522.9 89.3,522.9 89.3,526.3 92,522.9 93.9,522.9 
		90.7,526.6 93.9,530.5 	"/>
	<polygon class="st2" points="96.3,524.1 96.3,526 98.8,526 98.8,527.2 96.3,527.2 96.3,529.2 99.2,529.2 99.2,530.5 94.8,530.5 
		94.8,522.9 99.2,522.9 99.2,524.1 	"/>
	<polygon class="st2" points="107.2,522.9 104.4,530.5 102.6,530.5 99.8,522.9 101.4,522.9 103.5,528.9 105.6,522.9 	"/>
	<rect x="107.9" y="522.9" class="st2" width="1.5" height="7.6"/>
	<polygon class="st2" points="112.3,524.1 112.3,526 114.8,526 114.8,527.2 112.3,527.2 112.3,529.2 115.2,529.2 115.2,530.5 
		110.8,530.5 110.8,522.9 115.2,522.9 115.2,524.1 	"/>
	<polygon class="st2" points="126.5,522.9 124.4,530.5 122.6,530.5 121.2,525.1 119.7,530.5 117.9,530.5 115.9,522.9 117.5,522.9 
		118.8,528.8 120.4,522.9 122,522.9 123.5,528.7 124.8,522.9 	"/>
	<path class="st1" d="M16.6,466.2c-0.1,3.4,2.6,6.3,6,6.4c0.1,0,0.3,0,0.4,0c2.7,0.1,5.1-1.5,5.9-4.1H26c-0.5,1.2-1.7,1.9-3,1.8
		c-2.2,0-3.8-1.6-3.8-4.2s1.6-4.2,3.8-4.2c1.3-0.1,2.5,0.6,3,1.8h2.9c-0.8-2.5-3.2-4.2-5.9-4.1c-3.4-0.1-6.3,2.6-6.4,6
		C16.6,465.9,16.6,466.1,16.6,466.2z M43.3,466.2c0.1-3.5-2.7-6.3-6.1-6.4c-0.1,0-0.2,0-0.3,0c-3.5-0.1-6.4,2.7-6.4,6.2v0.3
		c-0.1,3.5,2.7,6.4,6.2,6.4H37c3.5,0.1,6.3-2.7,6.4-6.2C43.3,466.4,43.3,466.3,43.3,466.2z M33,466.2c0-2.6,1.6-4.2,3.9-4.2
		c2.3,0,3.8,1.6,3.8,4.2s-1.6,4.2-3.8,4.2C34.6,470.4,33,468.7,33,466.2z M45.2,472.5h2.5v-8.2l3.4,8.2H53l3.4-8.2v8.2h2.5v-12.6H56
		l-4,9.3l-4-9.3h-2.8V472.5z M61.4,472.5h2.5v-12.6h-2.5V472.5z M74.6,459.9v8.6l-5.7-8.6h-2.5v12.6h2.5v-8.6l5.7,8.6h2.5v-12.6
		H74.6z M85.4,459.8c-3.4-0.1-6.3,2.6-6.4,6c0,0.1,0,0.3,0,0.4c-0.1,3.4,2.6,6.3,6,6.4c0.1,0,0.3,0,0.4,0c3,0.1,5.5-2,6.1-4.9v-2.2
		h-6.8v1.9H89c-0.3,1.7-1.8,3-3.6,2.9c-2.1,0.1-3.9-1.5-3.9-3.6c0-0.2,0-0.3,0-0.5c0-2.5,1.6-4.1,3.8-4.1c1.2-0.1,2.4,0.6,3,1.6h2.9
		C90.4,461.2,88,459.6,85.4,459.8z M97.1,462h3.3v10.5h2.5V462h3.3v-2H97L97.1,462L97.1,462z M120.4,466.2c0.1-3.5-2.7-6.3-6.1-6.4
		c-0.1,0-0.2,0-0.3,0c-3.5-0.1-6.4,2.7-6.4,6.2v0.3c-0.1,3.5,2.7,6.4,6.2,6.4h0.3c3.5,0.1,6.3-2.7,6.4-6.1
		C120.4,466.4,120.4,466.3,120.4,466.2L120.4,466.2z M110.1,466.2c0-2.6,1.6-4.2,3.9-4.2s3.8,1.6,3.8,4.2s-1.6,4.2-3.8,4.2
		C111.7,470.4,110.1,468.7,110.1,466.2L110.1,466.2z M125.9,462h3.3v10.5h2.5V462h3.3v-2h-9.2L125.9,462z M144.8,472.5h2.5v-12.6
		h-2.5v5.2h-5.4v-5.2h-2.5v12.6h2.5v-5.3h5.4V472.5z M157.1,459.9h-7.3v12.6h7.3v-2.1h-4.8v-3.3h4.2v-2h-4.2V462h4.8V459.9z
		 M172.5,468.9c0-4.4-6.4-3-6.4-5.5c0-1,0.7-1.5,1.7-1.5c0.9-0.1,1.7,0.6,1.8,1.5h2.8c-0.2-2.3-1.9-3.6-4.5-3.6s-4.4,1.4-4.4,3.6
		c0,4.6,6.5,2.9,6.5,5.6c0,0.9-0.7,1.5-1.9,1.5c-0.9,0.1-1.8-0.6-1.9-1.5v-0.1h-2.7c0,2.4,2.1,3.7,4.7,3.7
		C170.9,472.6,172.5,470.8,172.5,468.9L172.5,468.9z M182.5,472.5h2.5v-12.6h-2.5v5.2h-5.4v-5.2h-2.5v12.6h2.5v-5.3h5.4V472.5z
		 M199.8,466.2c0.1-3.5-2.7-6.3-6.1-6.4c-0.1,0-0.2,0-0.3,0c-3.5-0.1-6.4,2.7-6.4,6.2v0.3c-0.1,3.5,2.7,6.4,6.2,6.4h0.3
		c3.5,0.1,6.4-2.7,6.4-6.1C199.8,466.4,199.8,466.3,199.8,466.2z M189.5,466.2c0-2.6,1.6-4.2,3.9-4.2c2.3,0,3.8,1.6,3.8,4.2
		s-1.6,4.2-3.8,4.2C191.1,470.4,189.5,468.7,189.5,466.2L189.5,466.2z M208.3,463.8c0,1.1-0.6,1.9-2,1.9h-2.1V462h2.1
		C207.7,462,208.3,462.7,208.3,463.8L208.3,463.8z M201.7,459.9v12.6h2.5v-4.9h1.2l2.8,4.9h2.9l-3-5.1c1.7-0.4,2.9-1.9,2.9-3.6
		c0-2.1-1.5-3.9-4.5-3.9H201.7z M220.5,459.9h-7.3v12.6h7.3v-2.1h-4.8v-3.3h4.2v-2h-4.2V462h4.8V459.9z M231.6,468.9
		c0-4.4-6.4-3-6.4-5.5c0-1,0.7-1.5,1.7-1.5c0.9-0.1,1.7,0.6,1.8,1.5h2.8c-0.2-2.3-1.9-3.6-4.5-3.6s-4.4,1.4-4.4,3.6
		c0,4.6,6.5,2.9,6.5,5.6c0,0.9-0.7,1.5-1.9,1.5c-0.9,0.1-1.8-0.6-1.9-1.5v-0.1h-2.7c0,2.4,2.1,3.7,4.7,3.7
		C230,472.6,231.6,470.8,231.6,468.9L231.6,468.9z M29.5,485.2c0.1-3.5-2.7-6.3-6.1-6.4c-0.1,0-0.2,0-0.3,0
		c-3.5-0.1-6.4,2.7-6.4,6.2v0.3c-0.1,3.5,2.7,6.4,6.2,6.4h0.3c3.5,0.1,6.3-2.7,6.4-6.1C29.5,485.4,29.5,485.3,29.5,485.2z
		 M19.2,485.2c0-2.6,1.6-4.2,3.9-4.2s3.8,1.6,3.8,4.2s-1.6,4.2-3.8,4.2C20.8,489.4,19.2,487.7,19.2,485.2z M31.4,491.5h2.5v-5.3h4
		v-2h-4V481h5.2v-2h-7.8L31.4,491.5L31.4,491.5z M45.2,491.5h2.5v-8.2l3.4,8.2H53l3.4-8.2v8.2h2.5v-12.6H56l-4,9.3l-4-9.3h-2.8
		V491.5z M61.4,491.5h2.5v-12.6h-2.5V491.5z M75.2,487.9c0-4.4-6.4-3-6.4-5.5c0-1,0.7-1.5,1.7-1.5c0.9-0.1,1.7,0.6,1.8,1.5H75
		c-0.2-2.3-1.9-3.6-4.5-3.6s-4.4,1.4-4.4,3.6c0,4.6,6.5,2.9,6.5,5.6c0,0.9-0.7,1.5-1.9,1.5c-0.9,0.1-1.8-0.6-1.9-1.5v-0.1h-2.7
		c0,2.4,2.1,3.7,4.7,3.7C73.6,491.6,75.2,489.8,75.2,487.9L75.2,487.9z M86.1,487.9c0-4.4-6.4-3-6.4-5.5c0-1,0.7-1.5,1.7-1.5
		c0.9-0.1,1.7,0.6,1.8,1.5H86c-0.2-2.3-1.9-3.6-4.5-3.6s-4.4,1.4-4.4,3.6c0,4.6,6.5,2.9,6.5,5.6c0,0.9-0.7,1.5-1.9,1.5
		c-0.9,0.1-1.8-0.6-1.9-1.5v-0.1H77c0,2.4,2.1,3.7,4.7,3.7C84.5,491.6,86.1,489.8,86.1,487.9L86.1,487.9z M88.3,491.5h2.5v-12.6
		h-2.5V491.5z M102.1,487.9c0-4.4-6.4-3-6.4-5.5c0-1,0.7-1.5,1.7-1.5c0.9-0.1,1.7,0.6,1.8,1.5h2.8c-0.2-2.3-1.9-3.6-4.5-3.6
		s-4.4,1.4-4.4,3.6c0,4.6,6.5,2.9,6.5,5.6c0,0.9-0.7,1.5-1.9,1.5c-0.9,0.1-1.8-0.6-1.9-1.5v-0.1H93c0,2.4,2.1,3.7,4.7,3.7
		C100.5,491.6,102.1,489.8,102.1,487.9z M113.1,487.9c0-4.4-6.4-3-6.4-5.5c0-1,0.7-1.5,1.7-1.5c0.9-0.1,1.7,0.6,1.8,1.5h2.8
		c-0.2-2.3-1.9-3.6-4.5-3.6s-4.4,1.4-4.4,3.6c0,4.6,6.5,2.9,6.5,5.6c0,0.9-0.7,1.5-1.9,1.5c-0.9,0.1-1.8-0.6-1.9-1.5v-0.1h-2.7
		c0,2.4,2.1,3.7,4.7,3.7C111.5,491.6,113.1,489.8,113.1,487.9z M123.8,491.5h2.7l-4.5-12.6h-3l-4.5,12.6h2.6l0.8-2.4h5L123.8,491.5z
		 M122.3,487.1h-3.6l1.8-5.3L122.3,487.1z M128.1,486.7c0,3.3,2.3,4.9,5,4.9s5.1-1.6,5.1-4.9v-7.8h-2.5v7.8c0,1.4-1.1,2.6-2.5,2.6
		s-2.6-1.1-2.6-2.5v-0.1v-7.8h-2.5V486.7z M146.5,478.8c-3.4-0.1-6.3,2.6-6.4,6c0,0.1,0,0.3,0,0.4c-0.1,3.4,2.6,6.3,6,6.4
		c0.1,0,0.3,0,0.4,0c3,0.1,5.5-2,6.1-4.9v-2.2h-6.8v1.9h4.3c-0.3,1.7-1.8,3-3.6,2.9c-2.1,0.1-3.9-1.5-3.9-3.6c0-0.2,0-0.3,0-0.5
		c0-2.5,1.6-4.1,3.8-4.1c1.2-0.1,2.4,0.6,3,1.6h2.9C151.5,480.2,149.1,478.6,146.5,478.8L146.5,478.8z M163,491.5h2.7l-4.5-12.6
		h-2.9l-4.5,12.6h2.6l0.8-2.4h5L163,491.5z M161.5,487.1h-3.6l1.8-5.3L161.5,487.1z M170,490.1c0-0.9-0.6-1.6-1.5-1.6
		s-1.6,0.6-1.6,1.5s0.6,1.6,1.5,1.6h0.1C169.3,491.7,170,491,170,490.1L170,490.1z"/>
	<path class="st1" d="M27,368h3.8l9-29.8l8.8,29.8h3.9l9.9-35h-3.8l-8.1,30.7L41.9,333H38l-9,30.7L21,333h-3.8L27,368z M100.8,350.5
		c0-10.5-7.4-17.9-17.3-17.9c-9.8,0-17.3,7.4-17.3,17.9s7.5,17.9,17.3,17.9S100.8,361,100.8,350.5z M69.8,350.5
		c0-9.1,5.9-14.8,13.7-14.8s13.7,5.6,13.7,14.8s-5.9,14.8-13.7,14.8S69.8,359.6,69.8,350.5z M107,355c0,9.2,5.6,13.4,12.7,13.4
		s12.7-4.1,12.7-13.4v-22h-3.5v22c0,7.2-3.7,10.2-9.2,10.2s-9.2-3-9.2-10.2v-22H107V355z M140.2,333v35h16.1v-2.9h-12.6V333H140.2z
		 M171.6,333h-10.3v35h10.4c11.6,0,18.5-6.5,18.5-17.4C190.1,339.6,183.2,333,171.6,333L171.6,333z M164.8,365.1V336h6.9
		c9.9,0,14.9,5.6,14.9,14.6s-5.1,14.5-14.9,14.5H164.8z M219.4,333v29.4L200.1,333h-3.5v35h3.5v-29.4l19.3,29.4h3.5v-35H219.4z
		 M230.9,343.9l4.4-10.8h-4l-2.9,10.8H230.9z M238.2,336h9.8v32h3.5v-32h9.7v-3h-22.9v3H238.2z M280.4,368h3.5v-35h-3.5V368z
		 M289.4,336h9.8v32h3.5v-32h9.7v-3h-23V336z M39.9,398.3c0,4.2-3,6.8-8.1,6.8h-8.3v-13.6h8.2C36.7,391.4,39.9,394.1,39.9,398.3z
		 M39,382.2c0,3.9-2.6,6.3-7.4,6.3h-8.1V376h8C36.5,376,39,378.5,39,382.2z M43.4,398.6c0-4.2-2.9-7.9-7.1-8.7
		c3.8-0.9,6.4-4.3,6.2-8.1c0-4.9-3.5-8.8-10.9-8.8H20v35h12.1C39.5,408,43.4,403.9,43.4,398.6z M68.1,373H49.8v35H68v-2.9H53.3
		v-13.2h13.2V389H53.3v-13.1h14.8V373z M111.6,373v29.4L92.2,373h-3.5v35h3.5v-29.4l19.4,29.4h3.5v-35H111.6z M123,408h3.5v-35H123
		V408z M132.9,390.5c0,10.5,7.4,17.8,17.1,17.8c7.8,0,13.6-3.9,16.1-10.5H162c-1.9,4.6-6.1,7.5-12,7.5c-7.7,0-13.5-5.6-13.5-14.8
		c0-9.1,5.8-14.8,13.5-14.8c5.9,0,10.1,2.9,12,7.5h4.1c-2.5-6.7-8.3-10.6-16.1-10.6C140.2,372.6,132.9,380,132.9,390.5z M191.2,373
		H173v35h18.2v-2.9h-14.8v-13.2h13.2V389h-13.2v-13.1h14.8V373z M209.4,376h9.8v32h3.5v-32h9.7v-3h-22.9v3H209.4z M270.9,390.5
		c0-10.5-7.4-17.9-17.3-17.9c-9.8,0-17.3,7.4-17.3,17.9s7.5,17.9,17.3,17.9S270.9,401,270.9,390.5z M239.9,390.5
		c0-9.1,5.9-14.8,13.7-14.8c7.7,0,13.7,5.6,13.7,14.8s-6,14.8-13.7,14.8C245.8,405.3,239.9,399.6,239.9,390.5z M20,413v35h16v-2.9
		H23.5V413H20z M41,448h3.5v-35H41V448z M64.9,444.2L53.5,413h-3.8L63,448h4l13.2-35h-3.7L64.9,444.2z M103.7,413H85.4v35h18.2v-2.9
		H88.9v-13.2h13.2V429H88.9v-13.1h14.8C103.7,415.9,103.7,413,103.7,413z M121.8,416h9.7v32h3.5v-32h9.7v-3h-22.9L121.8,416z
		 M183.3,430.5c0-10.5-7.4-17.9-17.3-17.9c-9.8,0-17.3,7.4-17.3,17.9s7.5,17.9,17.3,17.9C175.9,448.4,183.3,441,183.3,430.5
		L183.3,430.5z M152.3,430.5c0-9.1,5.9-14.8,13.7-14.8s13.7,5.6,13.7,14.8s-5.9,14.8-13.7,14.8S152.3,439.6,152.3,430.5L152.3,430.5
		z M205.4,412.6c-9.8,0-17.3,7.4-17.3,17.9s7.5,17.9,17.3,17.9c9.6,0,16.4-7.1,17-16.4v-2.5H204v2.8h14.7c-0.6,8-5.9,12.9-13.3,12.9
		c-7.8,0-13.7-5.7-13.7-14.7s5.9-14.6,13.7-14.6c5.6,0,9.9,2.9,11.8,7.4h4.1C218.8,416.6,212.9,412.6,205.4,412.6z M247,413h-18.2
		v35H247v-2.9h-14.8v-13.2h13.2V429h-13.2v-13.1H247V413z M251.4,416h9.8v32h3.5v-32h9.7v-3h-22.9L251.4,416z M302.4,448h3.5v-35
		h-3.5v15.7h-18.9V413H280v35h3.5v-16.4h18.9V448z M332.1,413h-18.2v35h18.2v-2.9h-14.8v-13.2h13.2V429h-13.2v-13.1h14.8V413z
		 M357.9,423.2c0,4.2-2.5,7.3-8.2,7.3h-7V416h7C355.5,416,357.9,418.8,357.9,423.2z M339.1,413v35h3.5v-14.6h6.4l8.6,14.6h4.2
		l-9-14.9c5.9-1.1,8.6-5.1,8.6-9.9c0-5.8-3.8-10.2-11.9-10.2H339.1z M371.5,445.6c0-1.4-1.1-2.5-2.5-2.5s-2.5,1.1-2.5,2.5l0,0
		c0,1.4,1.1,2.6,2.5,2.6s2.6-1.1,2.6-2.5v-0.1H371.5z"/>
</g>
</svg>
