<svg xmlns="http://www.w3.org/2000/svg" xmlns:xlink="http://www.w3.org/1999/xlink" width="837" height="1104" viewBox="0 0 837 1104">
  <defs>
    <filter id="Rectangle_447" x="0" y="645.93" width="346.211" height="210.141" filterUnits="userSpaceOnUse">
      <feOffset input="SourceAlpha"/>
      <feGaussianBlur stdDeviation="25" result="blur"/>
      <feFlood flood-opacity="0.502"/>
      <feComposite operator="in" in2="blur"/>
      <feComposite in="SourceGraphic"/>
    </filter>
    <filter id="Path_20946" x="0.84" y="609.938" width="648.912" height="167.16" filterUnits="userSpaceOnUse">
      <feOffset input="SourceAlpha"/>
      <feGaussianBlur stdDeviation="25" result="blur-2"/>
      <feFlood flood-opacity="0.502"/>
      <feComposite operator="in" in2="blur-2"/>
      <feComposite in="SourceGraphic"/>
    </filter>
    <filter id="Path_20945" x="2.08" y="333.37" width="549.84" height="408.12" filterUnits="userSpaceOnUse">
      <feOffset input="SourceAlpha"/>
      <feGaussianBlur stdDeviation="25" result="blur-3"/>
      <feFlood flood-opacity="0.502"/>
      <feComposite operator="in" in2="blur-3"/>
      <feComposite in="SourceGraphic"/>
    </filter>
  </defs>
  <g id="text-800" transform="translate(43 -128)">
    <rect id="hero-800" width="786" height="1104" transform="translate(8 128)" fill="rgba(255,255,255,0)"/>
    <g id="Group_1527" data-name="Group 1527">
      <g id="btn-HERO" transform="translate(32 848.93)">
        <g transform="matrix(1, 0, 0, 1, -75, -720.93)" filter="url(#Rectangle_447)">
          <rect id="Rectangle_447-2" data-name="Rectangle 447" width="196.211" height="60.141" rx="30.071" transform="translate(75 720.93)" fill="#fff"/>
        </g>
        <path id="Path_20941" data-name="Path 20941" d="M7.093-11.539c0,1.032-.6,1.764-1.929,1.764H3.28v-3.484H5.164C6.495-13.259,7.093-12.586,7.093-11.539Zm-5.518-3.11V-4.257h1.7V-8.414h1.3L6.973-4.257H9.007L6.435-8.563a2.958,2.958,0,0,0,2.407-2.976c0-1.69-1.211-3.11-3.679-3.11Zm15.193-.015H11.025V-4.257h5.742V-5.648H12.73V-8.833h3.589v-1.391H12.73v-3.05h4.037Zm6.834-.12a5.2,5.2,0,0,0-5.308,5.308A5.189,5.189,0,0,0,23.6-4.167a5.124,5.124,0,0,0,5.144-4.456V-9.954H23.018v1.361h3.9A3.147,3.147,0,0,1,23.6-5.707a3.489,3.489,0,0,1-3.559-3.768A3.477,3.477,0,0,1,23.6-13.229a2.954,2.954,0,0,1,2.781,1.57h2.049A4.954,4.954,0,0,0,23.6-14.784ZM30.42-4.257h1.7V-14.649h-1.7ZM41.381-7.2c0-3.8-5.5-2.333-5.5-4.68,0-1,.763-1.48,1.75-1.45a1.626,1.626,0,0,1,1.75,1.376h1.884c-.15-1.779-1.555-2.826-3.544-2.826-2.123,0-3.574,1.136-3.574,2.961,0,3.828,5.518,2.2,5.518,4.71,0,.882-.673,1.525-1.869,1.525a1.668,1.668,0,0,1-1.854-1.54H34.113c0,1.839,1.6,2.976,3.679,2.976C40.11-4.152,41.381-5.648,41.381-7.2Zm1.48-6.056h2.781v9h1.7v-9h2.766v-1.391H42.861Zm14.714-1.406H51.833V-4.257h5.742V-5.648H53.538V-8.833h3.589v-1.391H53.538v-3.05h4.037Zm7.611,3.125c0,1.032-.6,1.764-1.929,1.764H61.373v-3.484h1.884C64.588-13.259,65.186-12.586,65.186-11.539Zm-5.518-3.11V-4.257h1.7V-8.414h1.3l2.393,4.157H67.1L64.528-8.563a2.958,2.958,0,0,0,2.407-2.976c0-1.69-1.211-3.11-3.679-3.11Zm20.172-.015v7.746l-5.129-7.746h-1.7V-4.257h1.7v-7.761L79.84-4.257h1.7V-14.664Zm14,5.189a5.181,5.181,0,0,0-5.308-5.308A5.2,5.2,0,0,0,83.22-9.476a5.2,5.2,0,0,0,5.308,5.323A5.184,5.184,0,0,0,93.837-9.476Zm-8.867,0a3.5,3.5,0,0,1,3.559-3.813,3.5,3.5,0,0,1,3.559,3.813,3.52,3.52,0,0,1-3.559,3.843A3.52,3.52,0,0,1,84.969-9.476ZM97.62-4.242l1.914-.015,2.318-7.865,2.183,7.865h1.929l3.08-10.393H107.22l-2.168,8.419-2.168-8.419h-1.914L98.637-6.186l-2.153-8.464H94.674Z" transform="translate(45.404 40.22)" fill="#05446c"/>
      </g>
    </g>
    <g transform="matrix(1, 0, 0, 1, -43, 128)" filter="url(#Path_20946)">
      <path id="Path_20946-2" data-name="Path 20946" d="M.84-8.4A8.26,8.26,0,0,0,9.336.144,7.866,7.866,0,0,0,17.208-5.28H13.344A4.206,4.206,0,0,1,9.312-2.856C6.384-2.856,4.3-5.016,4.3-8.4c0-3.408,2.088-5.544,5.016-5.544a4.224,4.224,0,0,1,4.032,2.4h3.864a7.894,7.894,0,0,0-7.872-5.424A8.28,8.28,0,0,0,.84-8.4Zm35.592-.024a8.366,8.366,0,0,0-8.568-8.568,8.414,8.414,0,0,0-8.592,8.568A8.42,8.42,0,0,0,27.864.168,8.386,8.386,0,0,0,36.432-8.424Zm-13.7,0c0-3.408,2.088-5.544,5.136-5.544,3.024,0,5.112,2.136,5.112,5.544s-2.088,5.592-5.112,5.592C24.816-2.832,22.728-5.016,22.728-8.424ZM38.928,0h3.36V-10.9L46.8,0h2.544l4.488-10.9V0h3.36V-16.752H53.4L48.072-4.3,42.744-16.752H38.928ZM60.5,0h3.36V-16.752H60.5Zm17.64-16.776v11.52l-7.608-11.52h-3.36V0h3.36V-11.5L78.144,0H81.5V-16.776Zm14.4-.192A8.3,8.3,0,0,0,84-8.4,8.291,8.291,0,0,0,92.568.144a8.187,8.187,0,0,0,8.184-6.528V-9.312H91.68v2.568h5.76A4.548,4.548,0,0,1,92.688-2.88c-3.12,0-5.232-2.112-5.232-5.52,0-3.336,2.088-5.472,5.088-5.472a4.212,4.212,0,0,1,3.936,2.16h3.864C99.264-15.072,96.288-16.968,92.544-16.968Zm15.528,2.928h4.464V0h3.36V-14.04h4.464v-2.712H108.072Zm31.08,5.616a8.366,8.366,0,0,0-8.568-8.568,8.414,8.414,0,0,0-8.592,8.568A8.42,8.42,0,0,0,130.584.168,8.386,8.386,0,0,0,139.152-8.424Zm-13.7,0c0-3.408,2.088-5.544,5.136-5.544,3.024,0,5.112,2.136,5.112,5.544s-2.088,5.592-5.112,5.592C127.536-2.832,125.448-5.016,125.448-8.424Zm21.024-5.616h4.464V0h3.36V-14.04h4.464v-2.712H146.472ZM171.744,0h3.36V-16.752h-3.36v6.888h-7.176v-6.888h-3.36V0h3.36V-7.128h7.176Zm16.392-16.776h-9.72V0h9.72V-2.736h-6.36v-4.44h5.64V-9.84h-5.64v-4.2h6.36ZM208.608-4.848c0-5.9-8.592-4.032-8.592-7.392,0-1.368.984-2.016,2.3-1.968a2.211,2.211,0,0,1,2.4,1.992h3.7c-.216-3.024-2.568-4.776-6-4.776-3.456,0-5.9,1.824-5.9,4.848-.024,6.072,8.616,3.888,8.616,7.512,0,1.2-.936,2.04-2.52,2.04a2.3,2.3,0,0,1-2.544-2.232h-3.6C196.512-1.656,199.2.168,202.68.168,206.5.168,208.608-2.208,208.608-4.848ZM222.048,0h3.36V-16.752h-3.36v6.888h-7.176v-6.888h-3.36V0h3.36V-7.128h7.176Zm23.016-8.424a8.366,8.366,0,0,0-8.568-8.568A8.414,8.414,0,0,0,227.9-8.424,8.42,8.42,0,0,0,236.5.168,8.386,8.386,0,0,0,245.064-8.424Zm-13.7,0c0-3.408,2.088-5.544,5.136-5.544,3.024,0,5.112,2.136,5.112,5.544S239.52-2.832,236.5-2.832C233.448-2.832,231.36-5.016,231.36-8.424Zm25.08-3.12c0,1.512-.84,2.5-2.712,2.5H250.92v-4.92h2.808C255.6-13.968,256.44-13.032,256.44-11.544Zm-8.88-5.208V0h3.36V-6.528H252.5L256.2,0h3.888L256.08-6.792a4.837,4.837,0,0,0,3.816-4.824c0-2.808-2.016-5.136-6.048-5.136Zm25.1-.024h-9.72V0h9.72V-2.736H266.3v-4.44h5.64V-9.84H266.3v-4.2h6.36Zm14.76,11.928c0-5.9-8.592-4.032-8.592-7.392,0-1.368.984-2.016,2.3-1.968a2.212,2.212,0,0,1,2.4,1.992h3.7c-.216-3.024-2.568-4.776-6-4.776-3.456,0-5.9,1.824-5.9,4.848-.024,6.072,8.616,3.888,8.616,7.512,0,1.2-.936,2.04-2.52,2.04a2.3,2.3,0,0,1-2.544-2.232h-3.6c.048,3.168,2.736,4.992,6.216,4.992C285.312.168,287.424-2.208,287.424-4.848Zm24.96-3.576a8.366,8.366,0,0,0-8.568-8.568,8.414,8.414,0,0,0-8.592,8.568A8.42,8.42,0,0,0,303.816.168,8.386,8.386,0,0,0,312.384-8.424Zm-13.7,0c0-3.408,2.088-5.544,5.136-5.544,3.024,0,5.112,2.136,5.112,5.544s-2.088,5.592-5.112,5.592C300.768-2.832,298.68-5.016,298.68-8.424ZM314.88,0h3.36V-7.08h5.352V-9.744H318.24v-4.3h6.984v-2.712H314.88Zm18.432,0h3.36V-10.9L341.184,0h2.544l4.488-10.9V0h3.36V-16.752h-3.792L342.456-4.3l-5.328-12.456h-3.816Zm21.576,0h3.36V-16.752h-3.36Zm18.384-4.848c0-5.9-8.592-4.032-8.592-7.392,0-1.368.984-2.016,2.3-1.968a2.212,2.212,0,0,1,2.4,1.992h3.7c-.216-3.024-2.568-4.776-6-4.776-3.456,0-5.9,1.824-5.9,4.848-.024,6.072,8.616,3.888,8.616,7.512,0,1.2-.936,2.04-2.52,2.04a2.3,2.3,0,0,1-2.544-2.232h-3.6c.048,3.168,2.736,4.992,6.216,4.992C371.16.168,373.272-2.208,373.272-4.848Zm14.616,0c0-5.9-8.592-4.032-8.592-7.392,0-1.368.984-2.016,2.3-1.968a2.212,2.212,0,0,1,2.4,1.992h3.7c-.216-3.024-2.568-4.776-6-4.776-3.456,0-5.9,1.824-5.9,4.848-.024,6.072,8.616,3.888,8.616,7.512,0,1.2-.936,2.04-2.52,2.04a2.3,2.3,0,0,1-2.544-2.232h-3.6c.048,3.168,2.736,4.992,6.216,4.992C385.776.168,387.888-2.208,387.888-4.848ZM390.792,0h3.36V-16.752h-3.36Zm18.384-4.848c0-5.9-8.592-4.032-8.592-7.392,0-1.368.984-2.016,2.3-1.968a2.212,2.212,0,0,1,2.4,1.992h3.7c-.216-3.024-2.568-4.776-6-4.776-3.456,0-5.9,1.824-5.9,4.848-.024,6.072,8.616,3.888,8.616,7.512,0,1.2-.936,2.04-2.52,2.04a2.3,2.3,0,0,1-2.544-2.232h-3.6c.048,3.168,2.736,4.992,6.216,4.992C407.064.168,409.176-2.208,409.176-4.848Zm14.616,0c0-5.9-8.592-4.032-8.592-7.392,0-1.368.984-2.016,2.3-1.968a2.212,2.212,0,0,1,2.4,1.992h3.7c-.216-3.024-2.568-4.776-6-4.776-3.456,0-5.9,1.824-5.9,4.848-.024,6.072,8.616,3.888,8.616,7.512,0,1.2-.936,2.04-2.52,2.04a2.3,2.3,0,0,1-2.544-2.232h-3.6c.048,3.168,2.736,4.992,6.216,4.992C421.68.168,423.792-2.208,423.792-4.848ZM438.072,0h3.552L435.6-16.776h-3.912L425.664,0h3.528l1.1-3.192h6.672Zm-2.016-5.88h-4.848l2.424-7.008Zm7.776-.528c0,4.416,3.024,6.576,6.7,6.576s6.84-2.16,6.84-6.576V-16.752h-3.384V-6.384c0,2.3-1.248,3.5-3.408,3.5-2.136,0-3.384-1.2-3.384-3.5V-16.752h-3.36Zm24.5-10.56A8.3,8.3,0,0,0,459.792-8.4,8.291,8.291,0,0,0,468.36.144a8.187,8.187,0,0,0,8.184-6.528V-9.312h-9.072v2.568h5.76A4.548,4.548,0,0,1,468.48-2.88c-3.12,0-5.232-2.112-5.232-5.52,0-3.336,2.088-5.472,5.088-5.472a4.212,4.212,0,0,1,3.936,2.16h3.864C475.056-15.072,472.08-16.968,468.336-16.968ZM490.416,0h3.552l-6.024-16.776h-3.912L478.008,0h3.528l1.1-3.192h6.672ZM488.4-5.88h-4.848l2.424-7.008ZM499.752-1.8a1.964,1.964,0,0,0-2.04-1.968A1.977,1.977,0,0,0,495.624-1.8,1.977,1.977,0,0,0,497.712.168,1.964,1.964,0,0,0,499.752-1.8Z" transform="translate(75 701.93)" fill="#fff"/>
    </g>
    <g transform="matrix(1, 0, 0, 1, -43, 128)" filter="url(#Path_20945)">
      <path id="Path_20945-2" data-name="Path 20945" d="M17.6,84.08,23.68,84l14.4-47.68L52.16,84H58.4L74.24,28.08h-6L55.36,77.12,41.44,28.08H35.2L20.88,77.12,8.08,28.08h-6ZM135.6,56c0-16.72-11.92-28.56-27.68-28.56C92.24,27.44,80.24,39.28,80.24,56c0,16.8,12,28.56,27.68,28.56C123.68,84.56,135.6,72.8,135.6,56ZM86,56c0-14.64,9.52-23.6,21.92-23.6s21.92,8.96,21.92,23.6-9.52,23.68-21.92,23.68S86,70.64,86,56Zm59.6,7.2c0,14.8,8.96,21.36,20.32,21.36S186.24,78,186.24,63.2V28.08h-5.6v35.2c0,11.6-5.92,16.32-14.64,16.32s-14.8-4.72-14.8-16.32V28.08h-5.6Zm53.12-35.12V84H224.4V79.44H204.32V28.08Zm50.24,0H232.4V84h16.56c18.64,0,29.6-10.48,29.6-27.84C278.56,38.64,267.6,28.08,248.96,28.08ZM238,79.36V32.72h10.96c15.84,0,23.92,8.96,23.92,23.44,0,14.4-8.08,23.2-23.92,23.2Zm87.44-51.28V75.04L294.48,28.08h-5.6V84h5.6V36.96L325.44,84h5.6V28.08Zm18.48,17.28,7.04-17.28h-6.48l-4.64,17.28Zm11.6-12.64h15.6V84h5.6V32.72h15.52V28.08H355.52ZM6.4,151H12V95.08H6.4ZM20.72,99.72h15.6V151h5.6V99.72H57.44V95.08H20.72Zm99.36,35.76c0,6.72-4.8,10.8-12.88,10.8H93.84V124.44h13.12C114.96,124.44,120.08,128.76,120.08,135.48Zm-1.36-25.76c0,6.24-4.24,10.08-11.84,10.08H93.84v-20h12.8C114.72,99.8,118.72,103.72,118.72,109.72Zm6.96,26.32a14.078,14.078,0,0,0-11.28-13.92c5.36-1.52,10-5.6,10-12.96,0-7.84-5.6-14.08-17.36-14.08H88.24V151H107.6C119.36,151,125.68,144.44,125.68,136.04ZM165.2,95H136v56h29.2v-4.64H141.6v-21.2h21.2v-4.64H141.6V99.64h23.6Zm69.52.08v46.96L203.76,95.08h-5.6V151h5.6V103.96L234.72,151h5.6V95.08ZM253.04,151h5.6V95.08h-5.6Zm15.76-28c0,16.8,11.84,28.48,27.36,28.48,12.48,0,21.76-6.24,25.76-16.8h-6.56c-3.12,7.28-9.68,11.92-19.2,11.92-12.24,0-21.6-9.04-21.6-23.6,0-14.64,9.36-23.68,21.6-23.68,9.52,0,16.08,4.64,19.2,12.08h6.56c-4-10.72-13.28-16.96-25.76-16.96C280.64,94.44,268.8,106.2,268.8,123Zm93.44-28h-29.2v56h29.2v-4.64h-23.6v-21.2h21.2v-4.64h-21.2V99.64h23.6ZM2.4,166.72H18V218h5.6V166.72H39.12v-4.64H2.4ZM100.8,190c0-16.72-11.92-28.56-27.68-28.56-15.68,0-27.68,11.84-27.68,28.56,0,16.8,12,28.56,27.68,28.56C88.88,218.56,100.8,206.8,100.8,190Zm-49.6,0c0-14.64,9.52-23.6,21.92-23.6s21.92,8.96,21.92,23.6-9.52,23.68-21.92,23.68S51.2,204.64,51.2,190Zm81.76-27.92V218h25.68v-4.56H138.56V162.08ZM166.64,218h5.6V162.08h-5.6Zm38.24-6.08-18.32-49.84h-6.08L201.68,218h6.4l21.2-55.92h-5.92Zm62-49.92h-29.2v56h29.2v-4.64h-23.6v-21.2h21.2v-4.64h-21.2V166.64h23.6ZM2.4,233.72H18V285h5.6V233.72H39.12v-4.64H2.4ZM100.8,257c0-16.72-11.92-28.56-27.68-28.56-15.68,0-27.68,11.84-27.68,28.56,0,16.8,12,28.56,27.68,28.56C88.88,285.56,100.8,273.8,100.8,257Zm-49.6,0c0-14.64,9.52-23.6,21.92-23.6s21.92,8.96,21.92,23.6-9.52,23.68-21.92,23.68S51.2,271.64,51.2,257Zm84.96-28.56c-15.68,0-27.68,11.84-27.68,28.56,0,16.8,12,28.56,27.68,28.56,15.28,0,26.32-11.36,27.2-26.16v-4.08H133.92v4.56h23.52c-.88,12.72-9.52,20.64-21.28,20.64-12.4,0-21.92-9.04-21.92-23.52s9.52-23.44,21.92-23.44c8.96,0,15.76,4.64,18.88,11.84h6.56C157.6,234.76,148.16,228.44,136.16,228.44Zm66.64.56H173.6v56h29.2v-4.64H179.2v-21.2h21.2v-4.64H179.2V233.64h23.6Zm7.04,4.72h15.6V285h5.6V233.72h15.52v-4.64H209.84ZM291.36,285h5.6V229.08h-5.6V254.2H261.04V229.08h-5.6V285h5.6V258.84h30.32Zm47.6-56h-29.2v56h29.2v-4.64h-23.6v-21.2h21.2v-4.64h-21.2V233.64h23.6Zm41.12,16.32c0,6.8-4.08,11.76-13.2,11.76H355.6V233.8h11.2C376.24,233.8,380.08,238.28,380.08,245.32ZM350,229.08V285h5.6V261.64h10.32L379.76,285h6.72l-14.4-23.76c9.44-1.76,13.76-8.24,13.76-15.92,0-9.2-6.08-16.24-19.04-16.24Zm51.92,52.16a4.04,4.04,0,1,0-8.08,0,4.042,4.042,0,1,0,8.08,0Z" transform="translate(75 380.93)" fill="#fff"/>
    </g>
  </g>
</svg>
