<?xml version="1.0" encoding="utf-8"?>
<!-- Generator: Adobe Illustrator 26.2.1, SVG Export Plug-In . SVG Version: 6.00 Build 0)  -->
<svg version="1.1" id="Layer_1" xmlns="http://www.w3.org/2000/svg" xmlns:xlink="http://www.w3.org/1999/xlink" x="0px" y="0px"
	 viewBox="0 0 1255 705.9" style="enable-background:new 0 0 1255 705.9;" xml:space="preserve">
<style type="text/css">
	.st0{fill:#FFFFFF;fill-opacity:0;}
	.st1{fill:#FFFFFF;}
	.st2{fill:#05446C;}
</style>
<g>
	<polyline class="st0" points="1255,0 0,0 0,705.9 1255,705.9 1255,0 	"/>
	<path class="st1" d="M108.8,466.4h136.1c16.6,0,30.1,13.5,30.1,30.1c0,16.6-13.5,30.1-30.1,30.1H108.8c-16.6,0-30.1-13.5-30.1-30.1
		S92.2,466.4,108.8,466.4z"/>
	<polygon class="st2" points="117,500 120.4,500 120.4,501.6 114.9,501.6 114.9,491.3 117,491.3 	"/>
	<rect x="121.5" y="491.3" class="st2" width="2.1" height="10.3"/>
	<polygon class="st2" points="134.7,491.3 130.9,501.6 128.4,501.6 124.6,491.3 126.8,491.3 129.7,499.5 132.5,491.3 	"/>
	<polygon class="st2" points="137.8,493 137.8,495.6 141.3,495.6 141.3,497.2 137.8,497.2 137.8,500 141.7,500 141.7,501.6 
		135.7,501.6 135.7,491.3 141.7,491.3 141.7,493 	"/>
	<path class="st2" d="M153.1,499.7H149l-0.7,2h-2.2l3.7-10.4h2.4l3.7,10.4h-2.2L153.1,499.7z M152.5,498l-1.5-4.3l-1.5,4.3H152.5z"
		/>
	<polygon class="st2" points="164.1,491.3 164.1,493 161.4,493 161.4,501.6 159.3,501.6 159.3,493 156.5,493 156.5,491.3 	"/>
	<polygon class="st2" points="170.8,500 174.2,500 174.2,501.6 168.7,501.6 168.7,491.3 170.8,491.3 	"/>
	<path class="st2" d="M181.7,499.7h-4.1l-0.7,2h-2.2l3.7-10.4h2.4l3.7,10.4h-2.2L181.7,499.7z M181.1,498l-1.5-4.3l-1.5,4.3H181.1z"
		/>
	<polygon class="st2" points="191.5,501.6 187.8,497 187.8,501.6 185.7,501.6 185.7,491.3 187.8,491.3 187.8,495.9 191.5,491.3 
		194.1,491.3 189.8,496.4 194.2,501.6 	"/>
	<polygon class="st2" points="197.4,493 197.4,495.6 200.9,495.6 200.9,497.2 197.4,497.2 197.4,500 201.3,500 201.3,501.6 
		195.3,501.6 195.3,491.3 201.3,491.3 201.3,493 	"/>
	<polygon class="st2" points="212.3,491.3 208.5,501.6 206,501.6 202.2,491.3 204.4,491.3 207.2,499.5 210.1,491.3 	"/>
	<rect x="213.3" y="491.3" class="st2" width="2.1" height="10.3"/>
	<polygon class="st2" points="219.3,493 219.3,495.6 222.8,495.6 222.8,497.2 219.3,497.2 219.3,500 223.2,500 223.2,501.6 
		217.2,501.6 217.2,491.3 223.2,491.3 223.2,493 	"/>
	<polygon class="st2" points="238.7,491.3 235.8,501.6 233.4,501.6 231.4,494.3 229.4,501.6 226.9,501.7 224.2,491.3 226.4,491.3 
		228.2,499.3 230.3,491.3 232.6,491.3 234.6,499.3 236.5,491.3 	"/>
	<path class="st1" d="M79.5,439.5c-0.2,4.5,3.3,8.2,7.8,8.4c0.2,0,0.3,0,0.5,0c3.5,0.2,6.6-2,7.7-5.3h-3.8c-0.7,1.5-2.3,2.5-4,2.4
		c-2.9,0-4.9-2.1-4.9-5.4s2-5.4,4.9-5.4c1.7-0.1,3.2,0.8,4,2.4h3.8c-1.1-3.3-4.2-5.5-7.7-5.3c-4.5-0.1-8.2,3.4-8.3,7.9
		C79.5,439.2,79.5,439.4,79.5,439.5z M114.4,439.5c0.1-4.5-3.5-8.3-8-8.4c-0.1,0-0.3,0-0.4,0c-4.5-0.1-8.3,3.5-8.4,8.1
		c0,0.1,0,0.2,0,0.3c-0.1,4.6,3.5,8.3,8.1,8.4c0.1,0,0.2,0,0.3,0c4.5,0.1,8.3-3.5,8.4-8C114.4,439.8,114.4,439.6,114.4,439.5z
		 M101,439.5c0-3.3,2-5.4,5-5.4s5,2.1,5,5.4s-2,5.5-5,5.5S101,442.8,101,439.5L101,439.5z M116.8,447.8h3.3v-10.7l4.4,10.7h2.5
		l4.4-10.7v10.7h3.3v-16.4H131l-5.2,12.2l-5.2-12.2h-3.7v16.4H116.8z M137.9,447.8h3.3v-16.4h-3.3V447.8z M155.2,431.3v11.3
		l-7.4-11.3h-3.3v16.4h3.3v-11.3l7.5,11.3h3.3v-16.4H155.2z M169.3,431.1c-4.5-0.1-8.2,3.4-8.4,7.9c0,0.2,0,0.3,0,0.5
		c-0.1,4.5,3.4,8.2,7.9,8.4c0.2,0,0.4,0,0.5,0c3.9,0.1,7.2-2.6,8-6.4v-2.9h-8.9v2.5h5.6c-0.3,2.3-2.4,3.9-4.7,3.8
		c-3.1,0-5.1-2.1-5.1-5.4s2-5.4,5-5.4c1.6-0.1,3.1,0.7,3.9,2.1h3.8C175.9,433,173,431.1,169.3,431.1L169.3,431.1z M184.5,434h4.4
		v13.7h3.3V434h4.4v-2.7h-12L184.5,434z M214.9,439.5c0.1-4.5-3.5-8.3-8-8.4c-0.1,0-0.3,0-0.4,0c-4.5-0.1-8.3,3.5-8.4,8.1
		c0,0.1,0,0.2,0,0.3c-0.1,4.6,3.5,8.3,8.1,8.4c0.1,0,0.2,0,0.3,0c4.5,0.1,8.3-3.5,8.4-8C215,439.8,215,439.6,214.9,439.5
		L214.9,439.5z M201.5,439.5c0-3.3,2-5.4,5-5.4s5,2.1,5,5.4s-2,5.5-5,5.5C203.6,445,201.5,442.8,201.5,439.5L201.5,439.5z
		 M222.1,434h4.4v13.7h3.3V434h4.4v-2.7h-12L222.1,434z M246.9,447.8h3.3v-16.4h-3.3v6.7h-7v-6.7h-3.3v16.4h3.3v-7h7V447.8z
		 M262.9,431.3h-9.5v16.4h9.5V445h-6.2v-4.3h5.5v-2.6h-5.5V434h6.2V431.3z M283,443c0-5.8-8.4-3.9-8.4-7.2c0-1.3,1-2,2.3-1.9
		c1.2-0.1,2.2,0.8,2.4,1.9h3.6c-0.2-3-2.5-4.7-5.9-4.7s-5.8,1.8-5.8,4.7c0,5.9,8.4,3.8,8.4,7.4c0,1.2-0.9,2-2.5,2
		c-1.2,0.1-2.3-0.8-2.5-2V443h-3.5c0,3.1,2.7,4.9,6.1,4.9C280.9,447.9,283,445.6,283,443L283,443z M296.1,447.8h3.3v-16.4h-3.3v6.7
		h-7v-6.7h-3.3v16.4h3.3v-7h7V447.8z M318.6,439.5c0.1-4.5-3.5-8.3-8-8.4c-0.1,0-0.3,0-0.4,0c-4.5-0.1-8.3,3.5-8.4,8.1
		c0,0.1,0,0.2,0,0.3c-0.1,4.6,3.5,8.3,8.1,8.4c0.1,0,0.2,0,0.3,0c4.5,0.1,8.3-3.5,8.4-8C318.7,439.8,318.7,439.6,318.6,439.5
		L318.6,439.5z M305.2,439.5c0-3.3,2-5.4,5-5.4s5,2.1,5,5.4s-2,5.5-5,5.5C307.3,445,305.2,442.8,305.2,439.5L305.2,439.5z
		 M329.8,436.5c0,1.5-0.8,2.4-2.7,2.4h-2.8v-4.8h2.7C329,434.1,329.8,435,329.8,436.5L329.8,436.5z M321.1,431.4v16.4h3.3v-6.4h1.6
		l3.6,6.4h3.8l-3.9-6.6c2.2-0.5,3.8-2.5,3.7-4.7c0-2.7-2-5-5.9-5L321.1,431.4z M345.7,431.3h-9.5v16.4h9.5V445h-6.2v-4.3h5.5v-2.6
		h-5.5V434h6.2V431.3z M360.1,443c0-5.8-8.4-3.9-8.4-7.2c0-1.3,1-2,2.3-1.9c1.2-0.1,2.2,0.8,2.4,1.9h3.6c-0.2-3-2.5-4.7-5.9-4.7
		s-5.8,1.8-5.8,4.7c0,5.9,8.4,3.8,8.4,7.4c0,1.2-0.9,2-2.5,2c-1.2,0.1-2.3-0.8-2.5-2V443h-3.5c0,3.1,2.7,4.9,6.1,4.9
		C358.1,447.9,360.1,445.6,360.1,443L360.1,443z M384.6,439.5c0.1-4.5-3.5-8.3-8-8.4c-0.1,0-0.3,0-0.4,0c-4.5-0.1-8.3,3.5-8.4,8.1
		c0,0.1,0,0.2,0,0.3c-0.1,4.6,3.5,8.3,8.1,8.4c0.1,0,0.2,0,0.3,0c4.5,0.1,8.3-3.5,8.4-8C384.6,439.8,384.6,439.6,384.6,439.5
		L384.6,439.5z M371.1,439.5c0-3.3,2-5.4,5-5.4s5,2.1,5,5.4s-2,5.5-5,5.5C373.2,445,371.1,442.8,371.1,439.5L371.1,439.5z
		 M387,447.8h3.3v-6.9h5.2v-2.6h-5.2V434h6.8v-2.7H387V447.8z M405,447.8h3.3v-10.7l4.4,10.7h2.5l4.4-10.7v10.7h3.3v-16.4h-3.7
		l-5.2,12.2l-5.2-12.2H405V447.8z M426.2,447.8h3.3v-16.4h-3.3V447.8z M444.2,443c0-5.8-8.4-3.9-8.4-7.2c0-1.3,1-2,2.3-1.9
		c1.2-0.1,2.2,0.8,2.4,2h3.6c-0.2-3-2.5-4.7-5.9-4.7s-5.8,1.8-5.8,4.7c0,5.9,8.4,3.8,8.4,7.4c0,1.2-0.9,2-2.5,2
		c-1.2,0.1-2.3-0.8-2.5-2v-0.2h-3.5c0,3.1,2.7,4.9,6.1,4.9C442.1,447.9,444.2,445.6,444.2,443L444.2,443z M458.5,443
		c0-5.8-8.4-3.9-8.4-7.2c0-1.3,1-2,2.3-1.9c1.2-0.1,2.2,0.8,2.4,2h3.6c-0.2-3-2.5-4.7-5.9-4.7s-5.8,1.8-5.8,4.7
		c0,5.9,8.4,3.8,8.4,7.4c0,1.2-0.9,2-2.5,2c-1.2,0.1-2.3-0.8-2.5-2v-0.2h-3.5c0,3.1,2.7,4.9,6.1,4.9
		C456.4,447.9,458.5,445.6,458.5,443L458.5,443z M461.3,447.8h3.3v-16.4h-3.3V447.8z M479.3,443c0-5.8-8.4-3.9-8.4-7.2
		c0-1.3,1-2,2.3-1.9c1.2-0.1,2.2,0.8,2.4,2h3.6c-0.2-3-2.5-4.7-5.9-4.7s-5.8,1.8-5.8,4.7c0,5.9,8.4,3.8,8.4,7.4c0,1.2-0.9,2-2.5,2
		c-1.2,0.1-2.3-0.8-2.5-2v-0.2h-3.5c0,3.1,2.7,4.9,6.1,4.9C477.3,447.9,479.3,445.6,479.3,443L479.3,443z M493.6,443
		c0-5.8-8.4-3.9-8.4-7.2c0-1.3,1-2,2.3-1.9c1.2-0.1,2.2,0.8,2.4,2h3.6c-0.2-3-2.5-4.7-5.9-4.7s-5.8,1.8-5.8,4.7
		c0,5.9,8.4,3.8,8.4,7.4c0,1.2-0.9,2-2.5,2c-1.2,0.1-2.3-0.8-2.5-2v-0.2h-3.5c0,3.1,2.7,4.9,6.1,4.9
		C491.6,447.9,493.6,445.6,493.6,443L493.6,443z M507.6,447.8h3.5l-5.9-16.4h-3.8l-5.9,16.4h3.5l1.1-3.1h6.5L507.6,447.8z
		 M505.6,442h-4.7l2.4-6.9L505.6,442z M513.3,441.5c0,4.3,3,6.4,6.6,6.4s6.7-2.1,6.7-6.4v-10.1h-3.3v10.2c0,2.3-1.2,3.4-3.3,3.4
		s-3.3-1.2-3.3-3.4v-10.2h-3.3L513.3,441.5z M537.2,431.1c-4.5-0.1-8.2,3.4-8.4,7.9c0,0.2,0,0.3,0,0.5c-0.1,4.5,3.4,8.2,7.9,8.4
		c0.2,0,0.4,0,0.5,0c3.9,0.1,7.2-2.6,8-6.4v-2.9h-8.9v2.5h5.6c-0.3,2.3-2.4,3.9-4.7,3.8c-3.1,0-5.1-2.1-5.1-5.4s2-5.4,5-5.4
		c1.6-0.1,3.1,0.7,3.9,2.1h3.8C543.8,433,540.9,431.1,537.2,431.1L537.2,431.1z M558.9,447.8h3.5l-5.9-16.4h-3.8l-5.9,16.4h3.5
		l1.1-3.1h6.5L558.9,447.8z M556.9,442h-4.7l2.4-6.9L556.9,442z M568,446c0-1.1-0.9-1.9-1.9-1.9H566c-1.1-0.1-2,0.8-2,1.8v0.1
		c0,1.1,0.9,1.9,1.9,1.9h0.1C567.1,448,568,447.1,568,446L568,446z"/>
	<path class="st1" d="M96.3,279.4l6.1-0.1l14.4-47.5l14,47.5h6.2l15.8-55.7h-6L134,272.5l-14-48.9h-6.2l-14.3,48.9l-12.8-48.9h-6
		L96.3,279.4z M213.9,251.4c0-16.7-11.9-28.5-27.6-28.5c-15.6,0-27.6,11.8-27.6,28.5s12,28.5,27.6,28.5
		C202,279.9,213.9,268.2,213.9,251.4z M164.4,251.4c0-14.6,9.5-23.5,21.9-23.5s21.9,8.9,21.9,23.5s-9.5,23.6-21.9,23.6
		S164.4,266,164.4,251.4z M223.9,258.6c0,14.8,8.9,21.3,20.3,21.3c11.3,0,20.3-6.5,20.3-21.3v-35h-5.6v35.1
		c0,11.6-5.9,16.3-14.6,16.3s-14.8-4.7-14.8-16.3v-35.1h-5.6L223.9,258.6z M276.8,223.6v55.7h25.6v-4.5h-20v-51.2L276.8,223.6
		L276.8,223.6z M326.9,223.6h-16.5v55.7h16.5c18.6,0,29.5-10.4,29.5-27.8S345.5,223.6,326.9,223.6L326.9,223.6z M316,274.7v-46.5
		h10.9c15.8,0,23.8,8.9,23.8,23.4c0,14.4-8.1,23.1-23.8,23.1H316z M403.1,223.6v46.8l-30.9-46.8h-5.6v55.7h5.6v-46.9l30.9,46.9h5.6
		v-55.7L403.1,223.6L403.1,223.6z M421.6,240.8l7-17.2h-6.5l-4.6,17.2H421.6z M433.1,228.2h15.5v51.1h5.6v-51.1h15.5v-4.6h-36.6
		V228.2z M500.4,279.4h5.6v-55.7h-5.6V279.4z M514.7,228.2h15.6v51.1h5.6v-51.1h15.5v-4.6h-36.6L514.7,228.2L514.7,228.2z
		 M116.8,330.1c0,6.7-4.8,10.8-12.8,10.8H90.7v-21.8h13.1C111.7,319.1,116.8,323.4,116.8,330.1z M115.5,304.4c0,6.2-4.2,10-11.8,10
		h-13v-19.9h12.8C111.5,294.5,115.5,298.4,115.5,304.4z M122.4,330.7c0.1-6.7-4.7-12.5-11.2-13.9c5.3-1.5,10-5.6,10-12.9
		c0-7.8-5.6-14-17.3-14H85.1v55.7h19.3C116.1,345.6,122.4,339,122.4,330.7L122.4,330.7z M161.8,289.8h-29.1v55.8h29.1V341h-23.5
		v-21.1h21.1v-4.6h-21.1v-20.8h23.5V289.8z M231.1,289.8v46.8l-30.9-46.8h-5.6v55.7h5.6v-46.9l30.9,46.9h5.6v-55.7H231.1z
		 M249.4,345.6h5.6v-55.7h-5.6V345.6z M265.1,317.7c0,16.7,11.8,28.4,27.3,28.4c12.4,0,21.7-6.2,25.7-16.7h-6.5
		c-3.1,7.3-9.6,11.9-19.1,11.9c-12.2,0-21.5-9-21.5-23.5c0-14.6,9.3-23.6,21.5-23.6c9.5,0,16,4.6,19.1,12h6.5
		c-4-10.7-13.2-16.9-25.7-16.9C276.9,289.2,265.1,300.9,265.1,317.7L265.1,317.7z M358.2,289.8h-29.1v55.8h29.1V341h-23.5v-21.1
		h21.1v-4.6h-21.1v-20.8h23.5V289.8z M387.1,294.5h15.6v51.1h5.6v-51.1h15.5v-4.6h-36.6v4.6H387.1z M485.2,317.7
		c0-16.7-11.9-28.5-27.6-28.5c-15.6,0-27.6,11.8-27.6,28.5s12,28.5,27.6,28.5C473.3,346.1,485.2,334.4,485.2,317.7L485.2,317.7z
		 M435.8,317.7c0-14.6,9.5-23.5,21.9-23.5s21.9,8.9,21.9,23.5s-9.5,23.6-21.9,23.6S435.8,332.3,435.8,317.7L435.8,317.7z
		 M517.3,289.8v55.7h25.6V341h-20v-51.2H517.3z M550.8,345.6h5.6v-55.7h-5.6V345.6z M589,339.5l-18.3-49.7h-6.1l21.1,55.7h6.4
		l21.1-55.7h-5.9L589,339.5z M650.8,289.8h-29.1v55.8h29.1V341h-23.5v-21.1h21.1v-4.6h-21.1v-20.8h23.5V289.8z M81.1,360.7h15.6
		v51.1h5.6v-51.1h15.5v-4.6H81.1V360.7z M179.2,383.9c0-16.7-11.9-28.5-27.6-28.5c-15.6,0-27.6,11.8-27.6,28.5s12,28.5,27.6,28.5
		C167.3,412.4,179.2,400.6,179.2,383.9z M129.7,383.9c0-14.6,9.5-23.5,21.9-23.5s21.9,8.9,21.9,23.5s-9.5,23.6-21.9,23.6
		S129.7,398.5,129.7,383.9z M214.4,355.4c-15.6,0-27.6,11.8-27.6,28.5s12,28.5,27.6,28.5c15.2,0,26.2-11.3,27.1-26.1v-4.1h-29.4v4.5
		h23.4c-0.9,12.7-9.5,20.6-21.2,20.6c-12.4,0-21.9-9-21.9-23.4s9.5-23.4,21.9-23.4c8.9,0,15.7,4.6,18.8,11.8h6.5
		C235.8,361.7,226.4,355.4,214.4,355.4L214.4,355.4z M280.9,356h-29.1v55.8h29.1v-4.6h-23.5V386h21.1v-4.6h-21.1v-20.8h23.5V356z
		 M287.9,360.7h15.6v51.1h5.6v-51.1h15.5v-4.6H288L287.9,360.7z M369.2,411.8h5.6v-55.7h-5.6v25H339v-25h-5.6v55.7h5.6v-26.1h30.2
		V411.8z M416.6,356h-29.1v55.8h29.1v-4.6h-23.5V386h21.1v-4.6h-21.1v-20.8h23.5V356z M457.6,372.2c0,6.8-4.1,11.7-13.2,11.7h-11.2
		v-23.2h11.2C453.8,360.8,457.6,365.2,457.6,372.2L457.6,372.2z M427.6,356.1v55.7h5.6v-23.3h10.3l13.8,23.3h6.7l-14.4-23.7
		c9.4-1.8,13.7-8.2,13.7-15.9c0-9.2-6.1-16.2-19-16.2L427.6,356.1z M479.4,408.1c0-2.2-1.7-4.1-4-4.1s-4.1,1.7-4.1,4v0.1
		c-0.1,2.2,1.7,4.1,3.9,4.1c2.2,0.1,4.1-1.7,4.1-3.9v-0.2H479.4z"/>
</g>
</svg>
