<svg xmlns="http://www.w3.org/2000/svg" width="29.063" height="29.063" viewBox="0 0 29.063 29.063">
  <path id="arrow-circle-right_copy" data-name="arrow-circle-right copy" d="M.469-11.25A14.529,14.529,0,0,0,15,3.281,14.529,14.529,0,0,0,29.531-11.25,14.529,14.529,0,0,0,15-25.781,14.529,14.529,0,0,0,.469-11.25ZM15-23.906A12.656,12.656,0,0,1,27.656-11.25,12.656,12.656,0,0,1,15,1.406,12.656,12.656,0,0,1,2.344-11.25,12.656,12.656,0,0,1,15-23.906Zm.732,5.42a.711.711,0,0,0-1,0l-.4.4a.706.706,0,0,0,.012,1l5.016,4.834H8.2a.705.705,0,0,0-.7.7v.586a.705.705,0,0,0,.7.7H19.359L14.344-5.42a.7.7,0,0,0-.012,1l.4.4a.7.7,0,0,0,1,0l6.744-6.738a.7.7,0,0,0,0-1Z" transform="translate(-0.469 25.781)" fill="#008ac4"/>
</svg>
