<svg xmlns="http://www.w3.org/2000/svg" width="29.063" height="29.063" viewBox="0 0 29.063 29.063">
  <path id="arrow-circle-left" d="M29.531-11.25A14.529,14.529,0,0,0,15-25.781,14.529,14.529,0,0,0,.469-11.25,14.529,14.529,0,0,0,15,3.281,14.529,14.529,0,0,0,29.531-11.25ZM15,1.406A12.656,12.656,0,0,1,2.344-11.25,12.656,12.656,0,0,1,15-23.906,12.656,12.656,0,0,1,27.656-11.25,12.656,12.656,0,0,1,15,1.406Zm-.732-5.42a.711.711,0,0,0,1,0l.4-.4a.706.706,0,0,0-.012-1l-5.016-4.834H21.8a.705.705,0,0,0,.7-.7v-.586a.705.705,0,0,0-.7-.7H10.646l5.01-4.834a.7.7,0,0,0,.012-1l-.4-.4a.7.7,0,0,0-1,0L7.523-11.748a.7.7,0,0,0,0,1Z" transform="translate(-0.469 25.781)" fill="#00bbf0"/>
</svg>
