<svg xmlns="http://www.w3.org/2000/svg" width="18.749" height="18.749" viewBox="0 0 18.749 18.749">
  <path id="times" d="M11.364,14.75l6.009-6.009L18.612,7.5a.469.469,0,0,0,0-.663L17.286,5.513a.469.469,0,0,0-.663,0L9.375,12.761,2.126,5.512a.469.469,0,0,0-.663,0L.137,6.838a.469.469,0,0,0,0,.663L7.386,14.75.137,22a.469.469,0,0,0,0,.663l1.326,1.326a.469.469,0,0,0,.663,0l7.249-7.249,6.009,6.009,1.239,1.239a.469.469,0,0,0,.663,0l1.326-1.326a.469.469,0,0,0,0-.663Z" transform="translate(0 -5.375)" fill="#008ac4"/>
</svg>
