<svg xmlns="http://www.w3.org/2000/svg" width="40" height="32.487" viewBox="0 0 40 32.487">
  <path id="icon-TT" d="M35.888-23.147A17.622,17.622,0,0,0,40-27.386a16.435,16.435,0,0,1-4.721,1.269,8.176,8.176,0,0,0,3.6-4.518,16.139,16.139,0,0,1-5.2,1.98,8.178,8.178,0,0,0-5.99-2.589,8.194,8.194,0,0,0-8.2,8.2,9.254,9.254,0,0,0,.2,1.878,23.3,23.3,0,0,1-16.9-8.579,8.136,8.136,0,0,0-1.117,4.137A8.192,8.192,0,0,0,5.33-18.782a8.256,8.256,0,0,1-3.706-1.04v.1A8.2,8.2,0,0,0,8.2-11.675a8.668,8.668,0,0,1-2.157.279,10.332,10.332,0,0,1-1.548-.127,8.213,8.213,0,0,0,7.665,5.685A16.418,16.418,0,0,1,1.98-2.335,16.966,16.966,0,0,1,0-2.436a23.167,23.167,0,0,0,12.589,3.68c15.076,0,23.325-12.487,23.325-23.325C35.914-22.436,35.914-22.792,35.888-23.147Z" transform="translate(0 31.244)" fill="#fff"/>
</svg>
