<?xml version="1.0" encoding="utf-8"?>
<!-- Generator: Adobe Illustrator 26.0.1, SVG Export Plug-In . SVG Version: 6.00 Build 0)  -->
<svg version="1.1" id="Layer_1" xmlns="http://www.w3.org/2000/svg" xmlns:xlink="http://www.w3.org/1999/xlink" x="0px" y="0px"
	 viewBox="0 0 38.8 38.5" style="enable-background:new 0 0 38.8 38.5;" xml:space="preserve">
<path id="icon-FB" d="M38.8,19.4C38.8,8.7,30.1,0,19.4,0c0,0,0,0,0,0C8.7,0,0,8.7,0,19.4c0,0,0,0,0,0C0,28.9,6.9,37,16.3,38.5V25
	h-4.9v-5.6h4.9v-4.3c0-4.9,2.9-7.5,7.3-7.5c1.5,0,2.9,0.1,4.3,0.4v4.8h-2.4c-2.4,0-3.2,1.5-3.2,3v3.6h5.4L26.9,25h-4.5v13.5
	C31.8,37,38.7,28.9,38.8,19.4z"/>
</svg>
