<svg xmlns="http://www.w3.org/2000/svg" width="177" height="90" viewBox="0 0 177 90">
  <g id="logo-GP" transform="translate(92 29.866)">
    <rect id="Rectangle_451" data-name="Rectangle 451" width="177" height="90" transform="translate(-92 -29.866)" fill="#fff"/>
    <g id="logo-transp-GP" transform="translate(-91)">
      <path id="Path_43" data-name="Path 43" d="M703.283,1219.424a7.019,7.019,0,0,1-5.7,2.527c-5.925,0-9.577-4.606-9.577-10.306,0-7.638,5.364-10.7,9.886-10.7,5.11,0,8.34,2.78,9.238,7.5H701.2a2.932,2.932,0,0,0-2.92-2.5c-4.241,0-4.1,4.466-4.1,5.841,0,1.881.759,5.167,4.522,5.167a3.063,3.063,0,0,0,3.2-2.219h-2.725v-4.3h8.2v11.036h-3.9Z" transform="translate(-662.873 -1199.542)" fill="#05446c"/>
      <path id="Path_44" data-name="Path 44" d="M704,1205.581h5.335v2.331h.056a4.264,4.264,0,0,1,4.1-2.7,6.337,6.337,0,0,1,1.628.225v4.914a5.621,5.621,0,0,0-2.189-.364c-2.191,0-3.37,1.29-3.37,4.408v5.756H704Z" transform="translate(-657.932 -1198.223)" fill="#05446c"/>
      <path id="Path_45" data-name="Path 45" d="M723.586,1211.225a2.393,2.393,0,0,0-2.443-2.444,2.639,2.639,0,0,0-2.865,2.444Zm-5.336,2.892a2.76,2.76,0,0,0,2.836,2.836,2.789,2.789,0,0,0,2.331-1.039h5.195c-1.123,3.146-4.184,4.606-7.5,4.606-4.661,0-8.171-2.752-8.171-7.611a7.481,7.481,0,0,1,7.695-7.693c5.784,0,8.283,3.229,8.283,8.9Z" transform="translate(-655.171 -1198.223)" fill="#05446c"/>
      <path id="Path_46" data-name="Path 46" d="M736.235,1211.225a2.392,2.392,0,0,0-2.442-2.444,2.639,2.639,0,0,0-2.865,2.444Zm-5.335,2.892a2.929,2.929,0,0,0,5.167,1.8h5.195c-1.123,3.146-4.184,4.606-7.5,4.606-4.661,0-8.171-2.752-8.171-7.611a7.481,7.481,0,0,1,7.695-7.693c5.784,0,8.284,3.229,8.284,8.9Z" transform="translate(-651.265 -1198.223)" fill="#05446c"/>
      <path id="Path_47" data-name="Path 47" d="M738.9,1205.581h5.364v1.853h.056a5.344,5.344,0,0,1,4.746-2.219,4.693,4.693,0,0,1,5,4.942v10h-5.561v-7.638c0-1.684-.2-2.864-1.825-2.864-.955,0-2.218.478-2.218,2.809v7.693H738.9Z" transform="translate(-647.154 -1198.223)" fill="#05446c"/>
      <path id="Path_48" data-name="Path 48" d="M759.308,1216.477c1.993,0,2.442-1.882,2.442-3.6,0-1.74-.449-3.621-2.442-3.621s-2.444,1.881-2.444,3.621c0,1.713.449,3.6,2.444,3.6m-7.807-10.9h5.364v1.6h.056c.7-.927,1.544-1.966,4.268-1.966,4.128,0,6.122,4.072,6.122,7.722,0,3.427-1.319,7.582-6.205,7.582a4.756,4.756,0,0,1-3.988-1.966h-.056v10.716H751.5Z" transform="translate(-643.264 -1198.223)" fill="#05446c"/>
      <path id="Path_49" data-name="Path 49" d="M774.03,1213.612a9.6,9.6,0,0,1-2.191.7c-1.236.281-1.882.59-1.882,1.573a1.6,1.6,0,0,0,1.742,1.346,2.207,2.207,0,0,0,2.331-2.273Zm5.335,3.285a5.89,5.89,0,0,0,.674,3.257h-5.672a3.914,3.914,0,0,1-.2-1.376h-.056a5.919,5.919,0,0,1-4.689,1.741c-2.809,0-5.14-1.348-5.14-4.409,0-4.6,5.393-4.437,8.229-4.97.758-.141,1.517-.365,1.517-1.292,0-.983-.927-1.348-1.826-1.348-1.713,0-2.05.87-2.078,1.488H764.96a4.213,4.213,0,0,1,2.526-3.932,11.95,11.95,0,0,1,4.971-.842c6.964,0,6.908,2.891,6.908,5.7Z" transform="translate(-639.315 -1198.223)" fill="#05446c"/>
      <path id="Path_50" data-name="Path 50" d="M776.977,1205.581h5.335v2.331h.056a4.265,4.265,0,0,1,4.1-2.7,6.341,6.341,0,0,1,1.628.225v4.914a5.623,5.623,0,0,0-2.19-.364c-2.191,0-3.37,1.29-3.37,4.408v5.756h-5.56Z" transform="translate(-635.396 -1198.223)" fill="#05446c"/>
      <path id="Path_51" data-name="Path 51" d="M786.4,1201.311h5.56V1211l3.539-4.212h6.289l-5.195,5.5,6.01,9.07h-6.684l-2.976-5.28-.983,1.068v4.212H786.4Z" transform="translate(-632.484 -1199.429)" fill="#05446c"/>
      <path id="Path_52" data-name="Path 52" d="M764.529,1224.521a2.5,2.5,0,0,1-2.03.9,3.4,3.4,0,0,1-3.408-3.669,3.5,3.5,0,0,1,3.52-3.809,3.079,3.079,0,0,1,3.288,2.669H763.79a1.044,1.044,0,0,0-1.041-.889c-1.509,0-1.459,1.589-1.459,2.078a1.635,1.635,0,0,0,1.61,1.84,1.091,1.091,0,0,0,1.14-.791h-.97v-1.529h2.919v3.928H764.6Z" transform="translate(-640.919 -1194.292)" fill="#05446c"/>
      <path id="Path_53" data-name="Path 53" d="M769.957,1221.192h1.151c.41,0,.968-.069.968-.71,0-.45-.249-.711-1.089-.711h-1.03Zm-2.2-3.119h4.188a2.083,2.083,0,0,1,2.33,2.039,1.834,1.834,0,0,1-1.069,1.789,1.947,1.947,0,0,1,1.05,1.78,4.713,4.713,0,0,0,.24,1.53h-2.2a5.169,5.169,0,0,1-.181-1.1c-.06-.679-.119-1.389-.989-1.389h-1.17v2.49h-2.2Z" transform="translate(-638.243 -1194.252)" fill="#05446c"/>
      <path id="Path_54" data-name="Path 54" d="M779.922,1223.642c.56,0,1.42-.371,1.42-1.959s-.86-1.959-1.42-1.959-1.42.369-1.42,1.959.86,1.959,1.42,1.959m0-5.7a3.741,3.741,0,1,1-3.619,3.74,3.512,3.512,0,0,1,3.619-3.74" transform="translate(-635.604 -1194.292)" fill="#05446c"/>
      <path id="Path_55" data-name="Path 55" d="M791.573,1222.451c0,1.979-1.069,2.929-3.248,2.929s-3.259-.95-3.259-2.929v-4.378h2.2v3.889c0,.729,0,1.639,1.069,1.639,1.041,0,1.041-.91,1.041-1.639v-3.889h2.2Z" transform="translate(-632.897 -1194.252)" fill="#05446c"/>
      <path id="Path_56" data-name="Path 56" d="M795.974,1221.352h.849c.571,0,1.17-.039,1.17-.759,0-.651-.5-.689-1.039-.689h-.98Zm-2.2-3.279h3.679a2.421,2.421,0,0,1,2.619,2.44c0,1.729-1.159,2.539-2.8,2.539h-1.3v2.16h-2.2Z" transform="translate(-630.208 -1194.252)" fill="#05446c"/>
      <path id="Path_57" data-name="Path 57" d="M800.217,1214.833H799.3v-.309h2.2v.309h-.919v2.448h-.367Z" transform="translate(-628.502 -1195.349)" fill="#05446c"/>
      <path id="Path_58" data-name="Path 58" d="M801.1,1214.524h.5l.869,2.317.873-2.317h.5v2.756H803.5v-2.293h-.008l-.861,2.293h-.313l-.861-2.293h-.007v2.293H801.1Z" transform="translate(-627.946 -1195.349)" fill="#05446c"/>
      <path id="Path_59" data-name="Path 59" d="M679.987,1199.873l-1.725,3.319c-.24.439-.541.835-1.016.583-.536-.286-1.695-.948-1.695-.948l1.029,5.621c.048.269.169.886-.014,1.053-.342.312-1.008-.551-1.185-.766-.518-.629-2.031-2.4-2.031-2.4l-.276,1.322c-.1.475-.165.694-.819.581-.775-.132-3.065-.708-3.065-.708l.964,3.329c.114.4.158.751-.245.96s-1.1.6-1.1.6l5.349,4.478a.843.843,0,0,1,.193,1c-.209.728-.431,1.426-.431,1.426l5.254-.651a.338.338,0,0,1,.453.375c-.01.509-.148,2.76-.148,2.76H680.5s-.137-2.251-.148-2.76a.338.338,0,0,1,.453-.375l5.254.651s-.221-.7-.43-1.426a.844.844,0,0,1,.192-1l5.349-4.478s-.7-.39-1.1-.6-.359-.564-.245-.96l.962-3.329s-2.289.576-3.064.708c-.654.113-.72-.106-.819-.581l-.275-1.322s-1.514,1.773-2.032,2.4c-.177.215-.843,1.077-1.185.766-.183-.167-.063-.785-.014-1.053l1.029-5.621s-1.158.662-1.7.948c-.475.252-.775-.144-1.016-.583Z" transform="translate(-668.803 -1199.873)" fill="#05446c"/>
    </g>
  </g>
</svg>
