<svg xmlns="http://www.w3.org/2000/svg" width="105.706" height="39.58" viewBox="0 0 105.706 39.58">
  <g id="logo-tridel-ltBlue" transform="translate(0 0)">
    <path id="Path_60" data-name="Path 60" d="M982.78,1223.381h1.709c1.438,0,2.115.369,2.115,1.412,0,1.317-1.267,1.471-2.185,1.471H982.78ZM981,1227.789h3.6c1.892,0,3.787-.676,3.787-2.852a2.382,2.382,0,0,0-2.162-2.416v-.027a2.223,2.223,0,0,0,1.736-2.186c0-1.82-1.553-2.514-3.063-2.514H981Zm1.777-8.47h1.467c1.344,0,1.935.423,1.935,1.284,0,.746-.591,1.256-1.779,1.256H982.78Z" transform="translate(-976.978 -1188.461)" fill="#5eb4e3"/>
    <path id="Path_61" data-name="Path 61" d="M994.4,1224.117a4.024,4.024,0,0,1-8.046,0v-6.323h1.779v6.268a2.242,2.242,0,1,0,4.484,0v-6.268H994.4Z" transform="translate(-973.168 -1188.461)" fill="#5eb4e3"/>
    <rect id="Rectangle_10" data-name="Rectangle 10" width="1.775" height="9.995" transform="translate(23.434 29.334)" fill="#5eb4e3"/>
    <path id="Path_62" data-name="Path 62" d="M994.688,1217.794v9.995h6.028v-1.609h-4.249v-8.386Z" transform="translate(-967.234 -1188.461)" fill="#5eb4e3"/>
    <path id="Path_63" data-name="Path 63" d="M997.649,1217.794v1.606h3.063v8.389h1.777V1219.4h3.068v-1.606Z" transform="translate(-965.125 -1188.461)" fill="#5eb4e3"/>
    <path id="Path_64" data-name="Path 64" d="M1005.482,1217.794v9.995h1.777v-4.152h4.4v-1.609h-4.4V1219.4h4.671v-1.606Z" transform="translate(-959.546 -1188.461)" fill="#5eb4e3"/>
    <path id="Path_65" data-name="Path 65" d="M1009.934,1222.939a5,5,0,0,0,5.277,5.208,5.1,5.1,0,0,0,5.326-5.263,4.964,4.964,0,0,0-5.326-5.237,5.024,5.024,0,0,0-5.277,5.292m1.863-.111a3.439,3.439,0,1,1,6.872,0,3.446,3.446,0,1,1-6.872,0" transform="translate(-956.377 -1188.567)" fill="#5eb4e3"/>
    <path id="Path_66" data-name="Path 66" d="M1017.147,1227.789h1.779v-4.237h1.3l2.318,4.237h2.142l-2.654-4.421a2.561,2.561,0,0,0,2.318-2.709c0-2.248-1.806-2.866-3.725-2.866h-3.476Zm1.779-5.761v-2.709h1.539c.919,0,2.02.141,2.02,1.322,0,1.3-1.172,1.387-2.178,1.387Z" transform="translate(-951.241 -1188.461)" fill="#5eb4e3"/>
    <path id="Path_67" data-name="Path 67" d="M1024.847,1217.794v9.995h6.027v-1.609h-4.248v-8.386Z" transform="translate(-945.757 -1188.461)" fill="#5eb4e3"/>
    <rect id="Rectangle_11" data-name="Rectangle 11" width="1.779" height="9.995" transform="translate(86.433 29.334)" fill="#5eb4e3"/>
    <path id="Path_68" data-name="Path 68" d="M1031.486,1217.794v9.995h1.773v-4.152h4.406v-1.609h-4.406V1219.4h4.674v-1.606Z" transform="translate(-941.03 -1188.461)" fill="#5eb4e3"/>
    <path id="Path_69" data-name="Path 69" d="M1036.251,1217.794v9.995h6.872v-1.609h-5.093v-2.714h4.583v-1.606h-4.583V1219.4h4.838v-1.606Z" transform="translate(-937.637 -1188.461)" fill="#5eb4e3"/>
    <path id="Path_70" data-name="Path 70" d="M1038.784,1204.982h.541v-1.212h.433a1.315,1.315,0,0,1,.6.1.746.746,0,0,1,.295.71v.243l.008.1.01.032.007.031h.505l-.017-.038-.026-.159-.008-.229v-.228a.8.8,0,0,0-.169-.476.761.761,0,0,0-.531-.3,1.187,1.187,0,0,0,.449-.147.677.677,0,0,0,.3-.608.757.757,0,0,0-.476-.777,2.263,2.263,0,0,0-.842-.112h-1.075Zm1.546-1.659a1.376,1.376,0,0,1-.512.064h-.493v-1.111h.468a1.449,1.449,0,0,1,.649.113.47.47,0,0,1,.207.45.478.478,0,0,1-.319.484m1.568-1.844a2.8,2.8,0,0,0-3.96,0,2.706,2.706,0,0,0-.818,1.977,2.751,2.751,0,0,0,.812,1.983,2.8,2.8,0,1,0,3.967-3.96m-.276.264a2.45,2.45,0,0,1,0,3.424,2.42,2.42,0,0,1-3.415,0,2.444,2.444,0,0,1,.007-3.424,2.293,2.293,0,0,1,1.7-.707,2.324,2.324,0,0,1,1.71.707" transform="translate(-937.018 -1200.661)" fill="#5eb4e3"/>
    <path id="Path_71" data-name="Path 71" d="M978.652,1200.822h18.085v3.866h-5.856s-.875,0-.875,1.123v17.261h-4.633v-17.261s0-1.123-.913-1.123h-5.809Z" transform="translate(-978.652 -1200.546)" fill="#5eb4e3"/>
    <path id="Path_72" data-name="Path 72" d="M990.781,1200.822h11.67s3.462.4,4.681,2.647c1.269,2.342,1.575,4.883.053,7.073a4.913,4.913,0,0,1-2.649,1.685l-.1.2s2.08,0,2.847,2.7a21.875,21.875,0,0,1,.618,6.17,3.619,3.619,0,0,0,.716,1.774h-4.946a5.387,5.387,0,0,1-.3-1.626,42.416,42.416,0,0,0-.363-4.536c-.2-.768-1.472-2.8-3.2-2.8H996.89v-3.513h4.534a3.213,3.213,0,0,0,2.193-3.159,2.746,2.746,0,0,0-2.652-2.9c-.349,0-2.8-.034-4.23-.034-1.214,0-1.214.615-1.214,1.758v16.809h-4.739Z" transform="translate(-970.015 -1200.546)" fill="#5eb4e3"/>
    <rect id="Rectangle_12" data-name="Rectangle 12" width="4.539" height="22.249" transform="translate(40.228 0.277)" fill="#5eb4e3"/>
    <path id="Path_73" data-name="Path 73" d="M1008.507,1215.743c-1.173,1.938.658,1.524.658,1.524h14.217c2.135,0,.813-1.682.813-1.682s-6.038-10.3-6.929-11.873c-1.015-1.775-1.731,0-1.731,0s-5.864,10.091-7.028,12.031m-1.729-14.921H1019.1s8.7.1,8.964,10.531c.3,12.024-9.927,11.718-9.927,11.718h-11.356Z" transform="translate(-958.624 -1200.546)" fill="#5eb4e3"/>
    <path id="Path_74" data-name="Path 74" d="M1019.952,1200.822h16.5v3.866h-10.8s-1.224,0-1.224,1.123v2.447s0,1.111,1.433,1.111h8.963v3.773H1025.5s-1.013.053-1.068,1.38,0,3,0,3a1.434,1.434,0,0,0,1.473,1.625h10.551v3.923h-13.957a2.513,2.513,0,0,1-2.542-2.75v-19.5" transform="translate(-949.243 -1200.546)" fill="#5eb4e3"/>
    <path id="Path_75" data-name="Path 75" d="M1030.875,1200.822h4.788v16.859s-.258,1.469,1.418,1.469h9.222v3.923h-13.089a2.511,2.511,0,0,1-2.338-2.6v-19.649" transform="translate(-941.465 -1200.546)" fill="#5eb4e3"/>
  </g>
</svg>
