<svg xmlns="http://www.w3.org/2000/svg" xmlns:xlink="http://www.w3.org/1999/xlink" width="105" height="90" viewBox="0 0 105 90">
  <defs>
    <clipPath id="clip-path">
      <rect id="Rectangle_446" data-name="Rectangle 446" width="103.696" height="27.793" fill="#05446c"/>
    </clipPath>
  </defs>
  <g id="logo-DECO" transform="translate(59 31.116)">
    <g id="logo-transp-deco" transform="translate(-58)">
      <path id="Path_20815" data-name="Path 20815" d="M146.34,28.223v-12.4h10.291l0-1.23H146.34V4.088h14.5V2.859H141.985V28.576l-.018.877H160.9l-.178-1.23Z" transform="translate(-112.207 -2.26)" fill="#05446c"/>
      <g id="Group_1483" data-name="Group 1483">
        <g id="Group_1482" data-name="Group 1482" clip-path="url(#clip-path)">
          <path id="Path_20816" data-name="Path 20816" d="M380.628,8.392h0a14.508,14.508,0,0,0-2.926-4.4,13.9,13.9,0,0,0-4.16-2.928A11.562,11.562,0,0,0,368.722,0h-3.94a11.125,11.125,0,0,0-4.657,1.068,14.2,14.2,0,0,0-4.157,2.927,15.443,15.443,0,0,0-3.014,4.39,13.063,13.063,0,0,0-1.177,5.53,14.406,14.406,0,0,0,.968,5.2,14.188,14.188,0,0,0,2.7,4.436,13.383,13.383,0,0,0,4.126,3.082,11.849,11.849,0,0,0,5.208,1.162h3.94a11.279,11.279,0,0,0,5.122-1.2,14.041,14.041,0,0,0,4.121-3.132,14.874,14.874,0,0,0,2.757-4.432,13.619,13.619,0,0,0,1.007-5.114,13.813,13.813,0,0,0-1.1-5.522M358.51,23.5a11.18,11.18,0,0,1-1.4-3.943,32.4,32.4,0,0,1-.431-5.642,34.922,34.922,0,0,1,.323-4.8,13,13,0,0,1,1.219-4.066,7.132,7.132,0,0,1,2.457-2.787,7.38,7.38,0,0,1,4.108-1.03h3.94a7.385,7.385,0,0,1,4.108,1.03,7.131,7.131,0,0,1,2.456,2.787,12.96,12.96,0,0,1,1.219,4.066,34.81,34.81,0,0,1,.324,4.8,32.548,32.548,0,0,1-.431,5.642h0a11.2,11.2,0,0,1-1.4,3.943,6.089,6.089,0,0,1-2.487,2.3,8.513,8.513,0,0,1-3.784.762h-3.94a8.491,8.491,0,0,1-3.8-.761,6.123,6.123,0,0,1-2.471-2.3" transform="translate(-278.033 0.001)" fill="#05446c"/>
          <path id="Path_20817" data-name="Path 20817" d="M253.067,28.143c-2.422.011-6.7-.03-8.158-.432a8.684,8.684,0,0,1-1.009-.366,7.918,7.918,0,0,1-3.183-2.45,10.156,10.156,0,0,1-1.735-3.861,22.716,22.716,0,0,1-.533-5,22.726,22.726,0,0,1,.533-5,10.15,10.15,0,0,1,1.735-3.861,7.913,7.913,0,0,1,3.183-2.45,8.673,8.673,0,0,1,1-.364c1.465-.406,5.746-.447,8.163-.434l1.915.023c.377,0,3.257.006,3.257.006h.361V2.725h-5.721q-.5,0-1-.017c-.235-.008-2.988,0-4.89.026l-.445.006a15.117,15.117,0,0,0-8.2,2.748,12.262,12.262,0,0,0-1.031.875l-.135.126a11.114,11.114,0,0,0-1.549,1.887,12.277,12.277,0,0,0-1.572,3.594,16.132,16.132,0,0,0-.5,4.051v.023a16.134,16.134,0,0,0,.5,4.052,12.264,12.264,0,0,0,1.572,3.593,11.051,11.051,0,0,0,1.55,1.888l.135.127a12.3,12.3,0,0,0,1.032.876,15.109,15.109,0,0,0,8.208,2.748l.438.007c.783.01,2.875.013,5.047.013,3,0,6.154-.006,6.209-.006l.36-.023V28.111l-.362,0s-4.456.021-5.169.03" transform="translate(-184.589 -2.137)" fill="#05446c"/>
          <path id="Path_20818" data-name="Path 20818" d="M22.977,8.376a11.1,11.1,0,0,0-1.55-1.889l-.134-.125a12.354,12.354,0,0,0-1.031-.875,15.119,15.119,0,0,0-8.21-2.748l-.436-.006c-1.9-.026-4.656-.034-4.889-.025q-.5.018-1.005.017H.842L0,2.736V29.342H5.721c.335,0,.669.005,1.006.018.058,0,.268,0,.58,0,.957,0,2.874-.009,4.31-.028l.443-.007a15.1,15.1,0,0,0,8.2-2.749,12.35,12.35,0,0,0,1.031-.875l.134-.126a11.052,11.052,0,0,0,1.549-1.887A12.258,12.258,0,0,0,24.549,20.1a16.092,16.092,0,0,0,.5-4.052v-.022a16.118,16.118,0,0,0-.5-4.051,12.263,12.263,0,0,0-1.572-3.594M4.164,3.941l1.367-.016c2.421-.012,6.7.028,8.161.433a8.771,8.771,0,0,1,1.007.366,7.913,7.913,0,0,1,3.183,2.45,10.138,10.138,0,0,1,1.735,3.861,22.665,22.665,0,0,1,.534,5,22.678,22.678,0,0,1-.534,5,10.141,10.141,0,0,1-1.734,3.862,7.914,7.914,0,0,1-3.183,2.45,8.815,8.815,0,0,1-1,.364c-1.468.406-5.746.446-8.164.434l-1.37-.017Z" transform="translate(0 -2.137)" fill="#05446c"/>
        </g>
      </g>
    </g>
  </g>
</svg>
