<svg xmlns="http://www.w3.org/2000/svg" width="295" height="90" viewBox="0 0 295 90">
  <g id="logo-BH" transform="translate(161 37.364)">
    <rect id="Rectangle_448" data-name="Rectangle 448" width="295" height="90" transform="translate(-161 -37.364)" fill="#fff"/>
    <g id="Group_1484" data-name="Group 1484" transform="translate(-104 -0.364)">
      <path id="Path_20742" data-name="Path 20742" d="M276.746,79.235v6.472H270.11V79.235h-3.6V95.588h3.6V89.023h6.636v6.565h3.6V79.235Zm37.567,0-4.275,11.518-4.276-11.518h-3.971l6.611,16.47h3.177l6.612-16.47Zm7.8,0V95.588h12.452v-3.2H325.69V88.953h7.71v-3.2h-7.71V82.435h8.761v-3.2Zm28.5,0V89.3l-7.663-10.069h-3.317V95.588h3.551v-10.4l7.92,10.4h3.06V79.235ZM292.889,83.44l2.173,5.3h-4.346Zm-1.612-4.322-7.009,16.47h3.668l1.5-3.668h6.915l1.5,3.668H301.6l-7.009-16.47Z" transform="translate(-172.672 -79.029)" fill="#05446c"/>
      <g id="Group_1372" data-name="Group 1372">
        <path id="Path_20743" data-name="Path 20743" d="M157.328,80.61v-1.1H144.749v1.1h5.684V95.6h1.212V80.61ZM139.671,95.6v-16.1h-1.165v14l-11.251-14h-1.141V95.6h1.165V81.3l11.484,14.3Zm-22.316-5.587h-8.6l4.31-9.313Zm3.913,5.587-7.594-16.211H112.51L104.916,95.6h1.258l2.073-4.507h9.621l2.073,4.507ZM99.535,84.174c0,2.323-2.027,3.679-4.752,3.679h-5.5V80.61h5.567c2.959,0,4.682,1.357,4.682,3.518ZM101.352,95.6l-5.381-6.875c2.749-.368,4.775-1.909,4.775-4.6v-.046c0-2.69-2.306-4.576-5.823-4.576H88.074V95.6h1.212V88.934H94.62L99.814,95.6ZM80.62,91.21c0,2.023-1.77,3.288-4.565,3.288H70.138V88.037h5.521c3.214,0,4.962,1.15,4.962,3.127Zm-.908-7.588c0,2.138-1.747,3.311-4.193,3.311H70.138V80.61h5.5c2.609,0,4.076,1.2,4.076,2.967Zm2.143,7.588v-.046c0-2.23-1.724-3.334-3.68-3.84a3.984,3.984,0,0,0,2.772-3.817v-.046c0-2.414-2.12-3.955-5.288-3.955H68.927V95.6h7.081c3.517,0,5.847-1.7,5.847-4.392" transform="translate(-68.709 -79.173)" fill="#05446c"/>
        <path id="Path_20744" data-name="Path 20744" d="M151.62,95.578h-1.648V80.586h-5.684V79.047H157.3v1.539H151.62Zm-1.212-.436h.776V80.15h5.683v-.668H144.724v.668h5.684Zm-10.762.436h-1.231l-11.162-13.9v13.9h-1.6V79.047h1.464l.065.081,10.864,13.521v-13.6h1.6Zm-1.022-.436h.586V79.482h-.729V93.887L126.908,79.482h-.819v15.66h.729v-14.7Zm-17.256.436h-1.81l-2.073-4.507h-9.341l-2.073,4.507h-1.741l7.8-16.647h1.442l.059.126Zm-1.531-.436h.845l-7.39-15.775h-.887l-7.39,15.775h.776l2.073-4.507h9.9Zm-18.281.436H99.466L94.271,88.91h-5.01v6.668H87.614V79.047h7.067c3.613,0,6.041,1.926,6.041,4.794,0,2.537-1.708,4.3-4.592,4.8Zm-1.879-.436h.984l-5.34-6.823.377-.051c2.872-.385,4.587-2.023,4.587-4.383,0-2.652-2.253-4.4-5.605-4.4H88.05v15.66h.776V88.474h5.658Zm-23.912.436h-7.3V79.047h6.95c3.344,0,5.506,1.638,5.506,4.173a4.074,4.074,0,0,1-2.365,3.819c2.145.706,3.274,2.04,3.274,3.884v.046C81.831,93.769,79.45,95.578,75.766,95.578ZM68.9,95.142h6.864c3.419,0,5.629-1.639,5.629-4.174v-.046c0-1.805-1.183-3.026-3.517-3.629l-.645-.167.619-.247a3.774,3.774,0,0,0,2.635-3.615c0-2.316-1.99-3.783-5.07-3.783H68.9Zm6.91-.668H69.678v-6.9h5.739c3.291,0,5.179,1.22,5.179,3.345v.046C80.6,93.1,78.718,94.475,75.813,94.475Zm-5.7-.436h5.7c2.681,0,4.347-1.176,4.347-3.07v-.046c0-1.876-1.684-2.909-4.743-2.909h-5.3Zm47.339-4.048h-9.277l4.652-10.051Zm-8.595-.436h7.914l-3.946-8.575ZM94.541,87.83H88.826V80.15h5.785c3.022,0,4.9,1.431,4.9,3.736v.046C99.51,86.263,97.514,87.83,94.541,87.83Zm-5.28-.436h5.28c2.754,0,4.533-1.358,4.533-3.462v-.046c0-2.066-1.668-3.3-4.464-3.3h-5.35Zm-13.984-.484h-5.6V80.15h5.716c2.649,0,4.294,1.22,4.294,3.184v.046C79.687,85.558,78,86.909,75.277,86.909Zm-5.163-.436h5.163c2.452,0,3.975-1.186,3.975-3.093v-.046c0-1.721-1.442-2.748-3.858-2.748h-5.28Z" transform="translate(-68.467 -78.931)" fill="#05446c"/>
      </g>
    </g>
  </g>
</svg>
