<svg xmlns="http://www.w3.org/2000/svg" width="153" height="90" viewBox="0 0 153 90">
  <g id="logo-CAIVAN" transform="translate(-375.5 -1131)">
    <rect id="Rectangle_449" data-name="Rectangle 449" width="153" height="90" transform="translate(375.5 1131)" fill="#fff"/>
    <path id="logo-transp-CAIVAN" d="M107.21,9.576h7.815V36.154h-4.1V13.829c0-2.582-.531-3.341-2.77-3.607l-.948-.114Zm48.869,17.275,4.5-10.694,4.673,10.694Zm-6.227,9.3h2.314l3.178-7.556h10.668l3.3,7.556h4.553l-12.368-27Zm51.861.417L183.806,17.437V36.154H181.53V17.283c0-5.581-.759-6.91-3.566-7.176l-.417-.038V9.576h.683a6.853,6.853,0,0,1,5.463,2.24l15.9,17.063V9.576h2.124Zm-55.5-27h2.238l-12.1,27.375-9.6-22.781c-1.4-3.3-2.049-3.8-4.59-4.025l-.417-.038V9.576h2.58c3.566,0,5.16.8,6.222,3.379l6.9,16.657ZM73.445,28.864l.493.721c-2.542,4.556-6.449,7.1-11.04,7.1-7.4,0-12.9-6-12.9-13.82,0-7.48,5.007-13.593,13.164-13.593A11.945,11.945,0,0,1,72.8,14.246l-1.138,2.088c-2.162-3.873-4.894-5.315-7.967-5.315-4.97,0-8.8,5.354-8.8,11.846S58.8,34.293,64.226,34.293C68.02,34.293,70.714,32.7,73.445,28.864Zm11.33-2.013,4.5-10.754L93.99,26.851Zm-6.171,9.3h2.276L84.044,28.6H94.756l3.311,7.556h4.553l-12.368-27Z" transform="translate(326.5 1152.958)" fill="#05446c" fill-rule="evenodd"/>
  </g>
</svg>
