<svg xmlns="http://www.w3.org/2000/svg" width="101" height="90" viewBox="0 0 101 90">
  <g id="logo-TRIDEL" transform="translate(-59 26.117)">
    <rect id="Rectangle_452" data-name="Rectangle 452" width="101" height="90" transform="translate(59 -26.117)" fill="#fff"/>
    <g id="logo-transp-tridel" transform="translate(59)">
      <path id="Path_60" data-name="Path 60" d="M982.686,1223.086H984.3c1.362,0,2,.35,2,1.337,0,1.247-1.2,1.393-2.069,1.393h-1.552ZM981,1227.261h3.407c1.792,0,3.587-.641,3.587-2.7a2.256,2.256,0,0,0-2.048-2.288v-.026a2.106,2.106,0,0,0,1.645-2.071c0-1.724-1.471-2.381-2.9-2.381H981Zm1.683-8.022h1.39c1.273,0,1.832.4,1.832,1.216,0,.707-.56,1.19-1.685,1.19h-1.538Z" transform="translate(-977.19 -1190.01)" fill="#05446c"/>
      <path id="Path_61" data-name="Path 61" d="M993.976,1223.783a3.812,3.812,0,0,1-7.621,0v-5.989h1.685v5.937a2.124,2.124,0,1,0,4.247,0v-5.937h1.69Z" transform="translate(-973.864 -1190.01)" fill="#05446c"/>
      <rect id="Rectangle_10" data-name="Rectangle 10" width="1.682" height="9.467" transform="translate(22.196 27.785)" fill="#05446c"/>
      <path id="Path_62" data-name="Path 62" d="M994.688,1217.794v9.467h5.71v-1.524h-4.025v-7.943Z" transform="translate(-968.684 -1190.01)" fill="#05446c"/>
      <path id="Path_63" data-name="Path 63" d="M997.649,1217.794v1.521h2.9v7.946h1.683v-7.946h2.906v-1.521Z" transform="translate(-966.843 -1190.01)" fill="#05446c"/>
      <path id="Path_64" data-name="Path 64" d="M1005.482,1217.794v9.467h1.683v-3.932h4.169V1221.8h-4.169v-2.489h4.424v-1.521Z" transform="translate(-961.973 -1190.01)" fill="#05446c"/>
      <path id="Path_65" data-name="Path 65" d="M1009.934,1222.659a4.74,4.74,0,0,0,5,4.933,4.827,4.827,0,0,0,5.045-4.985,4.7,4.7,0,0,0-5.045-4.961,4.758,4.758,0,0,0-5,5.012m1.764-.105a3.257,3.257,0,1,1,6.509,0,3.264,3.264,0,1,1-6.509,0" transform="translate(-959.206 -1190.103)" fill="#05446c"/>
      <path id="Path_66" data-name="Path 66" d="M1017.147,1227.261h1.685v-4.013h1.229l2.2,4.013h2.029l-2.514-4.187a2.425,2.425,0,0,0,2.2-2.566c0-2.129-1.711-2.715-3.529-2.715h-3.292Zm1.685-5.457v-2.566h1.458c.871,0,1.913.133,1.913,1.252,0,1.236-1.111,1.313-2.063,1.313Z" transform="translate(-954.722 -1190.01)" fill="#05446c"/>
      <path id="Path_67" data-name="Path 67" d="M1024.847,1217.794v9.467h5.708v-1.524h-4.024v-7.943Z" transform="translate(-949.934 -1190.01)" fill="#05446c"/>
      <rect id="Rectangle_11" data-name="Rectangle 11" width="1.685" height="9.467" transform="translate(81.868 27.785)" fill="#05446c"/>
      <path id="Path_68" data-name="Path 68" d="M1031.486,1217.794v9.467h1.68v-3.932h4.173V1221.8h-4.173v-2.489h4.427v-1.521Z" transform="translate(-945.807 -1190.01)" fill="#05446c"/>
      <path id="Path_69" data-name="Path 69" d="M1036.251,1217.794v9.467h6.509v-1.524h-4.824v-2.57h4.341v-1.521h-4.341v-2.331h4.583v-1.521Z" transform="translate(-942.845 -1190.01)" fill="#05446c"/>
      <path id="Path_70" data-name="Path 70" d="M1038.7,1204.754h.512v-1.148h.41a1.247,1.247,0,0,1,.564.091.707.707,0,0,1,.279.673v.231l.008.094.01.031.007.029h.479l-.016-.036-.025-.151-.008-.217v-.216a.762.762,0,0,0-.161-.451.72.72,0,0,0-.5-.287,1.123,1.123,0,0,0,.425-.139.641.641,0,0,0,.286-.576.717.717,0,0,0-.451-.736,2.144,2.144,0,0,0-.8-.106H1038.7Zm1.464-1.572a1.305,1.305,0,0,1-.484.06h-.467v-1.053h.443a1.371,1.371,0,0,1,.614.107.445.445,0,0,1,.2.427.453.453,0,0,1-.3.459m1.485-1.746a2.656,2.656,0,0,0-3.751,0,2.563,2.563,0,0,0-.775,1.873,2.606,2.606,0,0,0,.769,1.878,2.655,2.655,0,1,0,3.757-3.751m-.261.25a2.322,2.322,0,0,1,0,3.243,2.292,2.292,0,0,1-3.235,0,2.314,2.314,0,0,1,.007-3.243,2.172,2.172,0,0,1,1.609-.67,2.2,2.2,0,0,1,1.62.67" transform="translate(-942.305 -1200.661)" fill="#05446c"/>
      <path id="Path_71" data-name="Path 71" d="M978.652,1200.822h17.13v3.662h-5.546s-.829,0-.829,1.064V1221.9h-4.388v-16.349s0-1.064-.864-1.064h-5.5Z" transform="translate(-978.652 -1200.561)" fill="#05446c"/>
      <path id="Path_72" data-name="Path 72" d="M990.781,1200.822h11.053s3.279.378,4.434,2.507c1.2,2.219,1.492,4.625.05,6.7a4.653,4.653,0,0,1-2.509,1.6l-.1.193s1.97,0,2.7,2.556a20.721,20.721,0,0,1,.585,5.844,3.427,3.427,0,0,0,.678,1.68h-4.685a5.1,5.1,0,0,1-.288-1.54,40.156,40.156,0,0,0-.344-4.3c-.188-.728-1.395-2.655-3.032-2.655h-2.755v-3.328h4.294a3.043,3.043,0,0,0,2.077-2.992,2.6,2.6,0,0,0-2.512-2.744c-.331,0-2.65-.032-4.007-.032-1.15,0-1.15.582-1.15,1.665V1221.9h-4.489Z" transform="translate(-971.112 -1200.561)" fill="#05446c"/>
      <rect id="Rectangle_12" data-name="Rectangle 12" width="4.299" height="21.073" transform="translate(38.103 0.262)" fill="#05446c"/>
      <path id="Path_73" data-name="Path 73" d="M1008.416,1214.955c-1.111,1.835.623,1.443.623,1.443H1022.5c2.022,0,.77-1.593.77-1.593s-5.72-9.759-6.563-11.246c-.962-1.682-1.64,0-1.64,0s-5.554,9.558-6.657,11.4m-1.638-14.133h11.668s8.245.093,8.491,9.975c.289,11.389-9.4,11.1-9.4,11.1h-10.756Z" transform="translate(-961.167 -1200.561)" fill="#05446c"/>
      <path id="Path_74" data-name="Path 74" d="M1019.952,1200.822h15.628v3.662h-10.229s-1.16,0-1.16,1.064v2.317s0,1.052,1.357,1.052h8.489v3.574H1025.2s-.96.05-1.012,1.307,0,2.844,0,2.844a1.359,1.359,0,0,0,1.395,1.539h9.994v3.715H1022.36a2.381,2.381,0,0,1-2.408-2.6v-18.471" transform="translate(-952.978 -1200.561)" fill="#05446c"/>
      <path id="Path_75" data-name="Path 75" d="M1030.875,1200.822h4.536v15.968s-.245,1.391,1.343,1.391h8.735v3.715h-12.4a2.378,2.378,0,0,1-2.215-2.463v-18.612" transform="translate(-946.188 -1200.561)" fill="#05446c"/>
    </g>
  </g>
</svg>
