<svg xmlns="http://www.w3.org/2000/svg" width="412" height="580" viewBox="0 0 412 580">
  <g id="text-420" transform="translate(-4 -109)">
    <rect id="hero-420" width="412" height="580" transform="translate(4 109)" fill="rgba(255,255,255,0)"/>
    <g id="btn-HERO" transform="translate(20 615.929)">
      <rect id="Rectangle_447" data-name="Rectangle 447" width="130.5" height="40" rx="20" fill="#fff"/>
      <path id="Path_20941" data-name="Path 20941" d="M5.521-12.463c0,.738-.428,1.262-1.38,1.262H2.794v-2.492H4.142C5.093-13.693,5.521-13.212,5.521-12.463ZM1.575-14.688v7.433H2.794v-2.973h.93L5.436-7.255H6.89l-1.839-3.08a2.115,2.115,0,0,0,1.722-2.128c0-1.208-.866-2.224-2.631-2.224ZM12.44-14.7H8.334v7.443H12.44V-8.25H9.553v-2.278H12.12v-.995H9.553V-13.7H12.44Zm4.887-.086a3.718,3.718,0,0,0-3.8,3.8,3.711,3.711,0,0,0,3.8,3.8,3.665,3.665,0,0,0,3.679-3.187v-.952h-4.1v.973H19.7a2.25,2.25,0,0,1-2.374,2.064,2.5,2.5,0,0,1-2.545-2.695,2.487,2.487,0,0,1,2.545-2.684,2.113,2.113,0,0,1,1.989,1.123h1.465A3.543,3.543,0,0,0,17.328-14.784ZM22.2-7.255h1.219v-7.433H22.2Zm7.839-2.107c0-2.716-3.936-1.668-3.936-3.347,0-.717.545-1.059,1.251-1.037a1.163,1.163,0,0,1,1.251.984h1.347a2.266,2.266,0,0,0-2.535-2.021c-1.519,0-2.556.813-2.556,2.117,0,2.738,3.946,1.572,3.946,3.369,0,.631-.481,1.091-1.337,1.091a1.193,1.193,0,0,1-1.326-1.1h-1.3c0,1.315,1.144,2.128,2.631,2.128A2.309,2.309,0,0,0,30.043-9.362ZM31.1-13.693h1.989v6.438H34.31v-6.438h1.978v-.995H31.1ZM41.625-14.7H37.519v7.443h4.107V-8.25H38.738v-2.278H41.3v-.995H38.738V-13.7h2.887Zm5.443,2.235c0,.738-.428,1.262-1.38,1.262H44.342v-2.492h1.347C46.641-13.693,47.069-13.212,47.069-12.463Zm-3.946-2.224v7.433h1.219v-2.973h.93l1.711,2.973h1.454L46.6-10.335a2.115,2.115,0,0,0,1.722-2.128c0-1.208-.866-2.224-2.631-2.224ZM57.549-14.7v5.54L53.881-14.7H52.662v7.443h1.219v-5.55l3.668,5.55h1.219V-14.7Zm10.01,3.711a3.705,3.705,0,0,0-3.8-3.8,3.718,3.718,0,0,0-3.8,3.8,3.72,3.72,0,0,0,3.8,3.807A3.708,3.708,0,0,0,67.559-10.988Zm-6.342,0a2.5,2.5,0,0,1,2.545-2.727,2.5,2.5,0,0,1,2.545,2.727,2.517,2.517,0,0,1-2.545,2.748A2.517,2.517,0,0,1,61.217-10.988Zm9.047,3.743,1.369-.011,1.658-5.625,1.561,5.625h1.38l2.2-7.433h-1.3L75.58-8.667l-1.551-6.021H72.66L70.992-8.635l-1.54-6.053H68.158Z" transform="translate(26.821 31.428)" fill="#05446c"/>
    </g>
    <path id="Path_20948" data-name="Path 20948" d="M.63-6.3A6.2,6.2,0,0,0,7,.108a5.9,5.9,0,0,0,5.9-4.068h-2.9A3.154,3.154,0,0,1,6.984-2.142c-2.2,0-3.762-1.62-3.762-4.158,0-2.556,1.566-4.158,3.762-4.158a3.168,3.168,0,0,1,3.024,1.8h2.9A5.921,5.921,0,0,0,7-12.726,6.21,6.21,0,0,0,.63-6.3Zm26.694-.018A6.274,6.274,0,0,0,20.9-12.744a6.31,6.31,0,0,0-6.444,6.426A6.315,6.315,0,0,0,20.9.126,6.289,6.289,0,0,0,27.324-6.318Zm-10.278,0c0-2.556,1.566-4.158,3.852-4.158,2.268,0,3.834,1.6,3.834,4.158S23.166-2.124,20.9-2.124C18.612-2.124,17.046-3.762,17.046-6.318ZM29.2,0h2.52V-8.172L35.1,0h1.908l3.366-8.172V0h2.52V-12.564H40.05l-4,9.342-4-9.342H29.2ZM45.378,0H47.9V-12.564h-2.52Zm13.23-12.582v8.64L52.9-12.582h-2.52V0H52.9V-8.622L58.608,0h2.52V-12.582Zm10.8-.144A6.228,6.228,0,0,0,63-6.3,6.218,6.218,0,0,0,69.426.108a6.14,6.14,0,0,0,6.138-4.9v-2.2h-6.8v1.926h4.32a3.411,3.411,0,0,1-3.564,2.9A3.784,3.784,0,0,1,65.592-6.3c0-2.5,1.566-4.1,3.816-4.1a3.159,3.159,0,0,1,2.952,1.62h2.9A5.772,5.772,0,0,0,69.408-12.726Zm11.646,2.2H84.4V0h2.52V-10.53H90.27v-2.034H81.054Zm23.31,4.212a6.274,6.274,0,0,0-6.426-6.426,6.31,6.31,0,0,0-6.444,6.426A6.315,6.315,0,0,0,97.938.126,6.289,6.289,0,0,0,104.364-6.318Zm-10.278,0c0-2.556,1.566-4.158,3.852-4.158,2.268,0,3.834,1.6,3.834,4.158s-1.566,4.194-3.834,4.194C95.652-2.124,94.086-3.762,94.086-6.318Zm15.768-4.212H113.2V0h2.52V-10.53h3.348v-2.034h-9.216ZM128.808,0h2.52V-12.564h-2.52V-7.4h-5.382v-5.166h-2.52V0h2.52V-5.346h5.382ZM141.1-12.582h-7.29V0h7.29V-2.052h-4.77v-3.33h4.23v-2h-4.23v-3.15h4.77Zm15.354,8.946c0-4.428-6.444-3.024-6.444-5.544,0-1.026.738-1.512,1.728-1.476a1.659,1.659,0,0,1,1.8,1.494h2.772c-.162-2.268-1.926-3.582-4.5-3.582-2.592,0-4.428,1.368-4.428,3.636-.018,4.554,6.462,2.916,6.462,5.634,0,.9-.7,1.53-1.89,1.53a1.725,1.725,0,0,1-1.908-1.674h-2.7C147.384-1.242,149.4.126,152.01.126,154.872.126,156.456-1.656,156.456-3.636ZM166.536,0h2.52V-12.564h-2.52V-7.4h-5.382v-5.166h-2.52V0h2.52V-5.346h5.382ZM183.8-6.318a6.274,6.274,0,0,0-6.426-6.426,6.31,6.31,0,0,0-6.444,6.426A6.315,6.315,0,0,0,177.372.126,6.289,6.289,0,0,0,183.8-6.318Zm-10.278,0c0-2.556,1.566-4.158,3.852-4.158,2.268,0,3.834,1.6,3.834,4.158s-1.566,4.194-3.834,4.194C175.086-2.124,173.52-3.762,173.52-6.318Zm18.81-2.34c0,1.134-.63,1.872-2.034,1.872H188.19v-3.69H190.3C191.7-10.476,192.33-9.774,192.33-8.658Zm-6.66-3.906V0h2.52V-4.9h1.188L192.15,0h2.916L192.06-5.094a3.628,3.628,0,0,0,2.862-3.618c0-2.106-1.512-3.852-4.536-3.852Zm18.828-.018h-7.29V0h7.29V-2.052h-4.77v-3.33h4.23v-2h-4.23v-3.15h4.77Zm11.07,8.946c0-4.428-6.444-3.024-6.444-5.544,0-1.026.738-1.512,1.728-1.476a1.659,1.659,0,0,1,1.8,1.494h2.772c-.162-2.268-1.926-3.582-4.5-3.582-2.592,0-4.428,1.368-4.428,3.636-.018,4.554,6.462,2.916,6.462,5.634,0,.9-.7,1.53-1.89,1.53a1.725,1.725,0,0,1-1.908-1.674h-2.7c.036,2.376,2.052,3.744,4.662,3.744C213.984.126,215.568-1.656,215.568-3.636ZM13.5,12.682A6.274,6.274,0,0,0,7.074,6.256,6.31,6.31,0,0,0,.63,12.682a6.315,6.315,0,0,0,6.444,6.444A6.289,6.289,0,0,0,13.5,12.682Zm-10.278,0c0-2.556,1.566-4.158,3.852-4.158,2.268,0,3.834,1.6,3.834,4.158s-1.566,4.194-3.834,4.194C4.788,16.876,3.222,15.238,3.222,12.682ZM15.372,19h2.52V13.69h4.014v-2H17.892V8.47H23.13V6.436H15.372ZM29.2,19h2.52V10.828L35.1,19h1.908l3.366-8.172V19h2.52V6.436H40.05l-4,9.342-4-9.342H29.2Zm16.182,0H47.9V6.436h-2.52Zm13.788-3.636c0-4.428-6.444-3.024-6.444-5.544,0-1.026.738-1.512,1.728-1.476a1.659,1.659,0,0,1,1.8,1.494h2.772c-.162-2.268-1.926-3.582-4.5-3.582-2.592,0-4.428,1.368-4.428,3.636-.018,4.554,6.462,2.916,6.462,5.634,0,.9-.7,1.53-1.89,1.53a1.725,1.725,0,0,1-1.908-1.674h-2.7c.036,2.376,2.052,3.744,4.662,3.744C57.582,19.126,59.166,17.344,59.166,15.364Zm10.962,0c0-4.428-6.444-3.024-6.444-5.544,0-1.026.738-1.512,1.728-1.476a1.659,1.659,0,0,1,1.8,1.494h2.772c-.162-2.268-1.926-3.582-4.5-3.582-2.592,0-4.428,1.368-4.428,3.636-.018,4.554,6.462,2.916,6.462,5.634,0,.9-.7,1.53-1.89,1.53a1.725,1.725,0,0,1-1.908-1.674h-2.7c.036,2.376,2.052,3.744,4.662,3.744C68.544,19.126,70.128,17.344,70.128,15.364ZM72.306,19h2.52V6.436h-2.52Zm13.788-3.636c0-4.428-6.444-3.024-6.444-5.544,0-1.026.738-1.512,1.728-1.476a1.659,1.659,0,0,1,1.8,1.494H85.95c-.162-2.268-1.926-3.582-4.5-3.582-2.592,0-4.428,1.368-4.428,3.636-.018,4.554,6.462,2.916,6.462,5.634,0,.9-.7,1.53-1.89,1.53a1.725,1.725,0,0,1-1.908-1.674h-2.7c.036,2.376,2.052,3.744,4.662,3.744C84.51,19.126,86.094,17.344,86.094,15.364Zm10.962,0c0-4.428-6.444-3.024-6.444-5.544,0-1.026.738-1.512,1.728-1.476a1.659,1.659,0,0,1,1.8,1.494h2.772c-.162-2.268-1.926-3.582-4.5-3.582-2.592,0-4.428,1.368-4.428,3.636-.018,4.554,6.462,2.916,6.462,5.634,0,.9-.7,1.53-1.89,1.53a1.725,1.725,0,0,1-1.908-1.674h-2.7c.036,2.376,2.052,3.744,4.662,3.744C95.472,19.126,97.056,17.344,97.056,15.364ZM107.766,19h2.664L105.912,6.418h-2.934L98.46,19h2.646l.828-2.394h5Zm-1.512-4.41h-3.636l1.818-5.256Zm5.832-.4c0,3.312,2.268,4.932,5.022,4.932s5.13-1.62,5.13-4.932V6.436H119.7v7.776a2.548,2.548,0,1,1-5.094,0V6.436h-2.52Zm18.378-7.92a6.228,6.228,0,0,0-6.408,6.426,6.218,6.218,0,0,0,6.426,6.408,6.14,6.14,0,0,0,6.138-4.9v-2.2h-6.8v1.926h4.32a3.411,3.411,0,0,1-3.564,2.9,3.784,3.784,0,0,1-3.924-4.14c0-2.5,1.566-4.1,3.816-4.1a3.159,3.159,0,0,1,2.952,1.62h2.9A5.772,5.772,0,0,0,130.464,6.274ZM147.024,19h2.664L145.17,6.418h-2.934L137.718,19h2.646l.828-2.394h5Zm-1.512-4.41h-3.636l1.818-5.256Zm8.514,3.06a1.55,1.55,0,1,0-1.53,1.476A1.473,1.473,0,0,0,154.026,17.65Z" transform="translate(20 581.5)" fill="#fff"/>
    <path id="Path_20947" data-name="Path 20947" d="M11,53.05,14.8,53l9-29.8L32.6,53h3.9l9.9-34.95H42.65L34.6,48.7,25.9,18.05H22L13.05,48.7l-8-30.65H1.3ZM84.75,35.5c0-10.45-7.45-17.85-17.3-17.85-9.8,0-17.3,7.4-17.3,17.85,0,10.5,7.5,17.85,17.3,17.85C77.3,53.35,84.75,46,84.75,35.5Zm-31,0c0-9.15,5.95-14.75,13.7-14.75s13.7,5.6,13.7,14.75S75.2,50.3,67.45,50.3,53.75,44.65,53.75,35.5ZM91,40c0,9.25,5.6,13.35,12.7,13.35s12.7-4.1,12.7-13.35V18.05h-3.5v22c0,7.25-3.7,10.2-9.15,10.2S94.5,47.3,94.5,40.05v-22H91Zm33.2-21.95V53h16.05V50.15H127.7V18.05Zm31.4,0H145.25V53H155.6c11.65,0,18.5-6.55,18.5-17.4C174.1,24.65,167.25,18.05,155.6,18.05ZM148.75,50.1V20.95h6.85c9.9,0,14.95,5.6,14.95,14.65,0,9-5.05,14.5-14.95,14.5ZM203.4,18.05V47.4L184.05,18.05h-3.5V53h3.5V23.6L203.4,53h3.5V18.05Zm11.55,10.8,4.4-10.8H215.3l-2.9,10.8Zm7.25-7.9h9.75V53h3.5V20.95h9.7v-2.9H222.2ZM264.4,53h3.5V18.05h-3.5Zm8.95-32.05h9.75V53h3.5V20.95h9.7v-2.9H273.35ZM23.9,83.3c0,4.2-3,6.75-8.05,6.75H7.5V76.4h8.2C20.7,76.4,23.9,79.1,23.9,83.3Zm-.85-16.1c0,3.9-2.65,6.3-7.4,6.3H7.5V61h8C20.55,61,23.05,63.45,23.05,67.2ZM27.4,83.65a8.8,8.8,0,0,0-7.05-8.7,8.041,8.041,0,0,0,6.25-8.1c0-4.9-3.5-8.8-10.85-8.8H4V93H16.1C23.45,93,27.4,88.9,27.4,83.65ZM52.1,58H33.85V93H52.1V90.1H37.35V76.85H50.6v-2.9H37.35V60.9H52.1Zm43.45.05V87.4L76.2,58.05H72.7V93h3.5V63.6L95.55,93h3.5V58.05ZM107,93h3.5V58.05H107Zm9.85-17.5c0,10.5,7.4,17.8,17.1,17.8,7.8,0,13.6-3.9,16.1-10.5h-4.1c-1.95,4.55-6.05,7.45-12,7.45-7.65,0-13.5-5.65-13.5-14.75,0-9.15,5.85-14.8,13.5-14.8,5.95,0,10.05,2.9,12,7.55h4.1c-2.5-6.7-8.3-10.6-16.1-10.6C124.25,57.65,116.85,65,116.85,75.5ZM175.25,58H157V93h18.25V90.1H160.5V76.85h13.25v-2.9H160.5V60.9h14.75Zm18.1,2.95h9.75V93h3.5V60.95h9.7v-2.9H193.35Zm61.5,14.55c0-10.45-7.45-17.85-17.3-17.85-9.8,0-17.3,7.4-17.3,17.85,0,10.5,7.5,17.85,17.3,17.85C247.4,93.35,254.85,86,254.85,75.5Zm-31,0c0-9.15,5.95-14.75,13.7-14.75s13.7,5.6,13.7,14.75-5.95,14.8-13.7,14.8S223.85,84.65,223.85,75.5ZM4,98.05V133H20.05v-2.85H7.5V98.05ZM25.05,133h3.5V98.05h-3.5Zm23.9-3.8L37.5,98.05H33.7L46.95,133h4L64.2,98.05H60.5ZM87.7,98H69.45v35H87.7v-2.9H72.95V116.85H86.2v-2.9H72.95V100.9H87.7Zm18.1,2.95h9.75V133h3.5V100.95h9.7v-2.9H105.8Zm61.5,14.55c0-10.45-7.45-17.85-17.3-17.85-9.8,0-17.3,7.4-17.3,17.85,0,10.5,7.5,17.85,17.3,17.85C159.85,133.35,167.3,126,167.3,115.5Zm-31,0c0-9.15,5.95-14.75,13.7-14.75s13.7,5.6,13.7,14.75-5.95,14.8-13.7,14.8S136.3,124.65,136.3,115.5Zm53.1-17.85c-9.8,0-17.3,7.4-17.3,17.85,0,10.5,7.5,17.85,17.3,17.85,9.55,0,16.45-7.1,17-16.35v-2.55H188v2.85h14.7c-.55,7.95-5.95,12.9-13.3,12.9-7.75,0-13.7-5.65-13.7-14.7s5.95-14.65,13.7-14.65c5.6,0,9.85,2.9,11.8,7.4h4.1C202.8,101.6,196.9,97.65,189.4,97.65Zm41.65.35H212.8v35h18.25v-2.9H216.3V116.85h13.25v-2.9H216.3V100.9h14.75Zm4.4,2.95h9.75V133h3.5V100.95h9.7v-2.9H235.45ZM286.4,133h3.5V98.05h-3.5v15.7H267.45V98.05h-3.5V133h3.5V116.65H286.4Zm29.75-35H297.9v35h18.25v-2.9H301.4V116.85h13.25v-2.9H301.4V100.9h14.75Zm25.7,10.2c0,4.25-2.55,7.35-8.25,7.35h-7.05V101h7C339.45,101,341.85,103.8,341.85,108.2Zm-18.8-10.15V133h3.5V118.4H333l8.65,14.6h4.2l-9-14.85c5.9-1.1,8.6-5.15,8.6-9.95,0-5.75-3.8-10.15-11.9-10.15Zm32.45,32.6a2.525,2.525,0,1,0-5.05,0,2.526,2.526,0,1,0,5.05,0Z" transform="translate(20 424)" fill="#fff"/>
  </g>
</svg>
