<svg xmlns="http://www.w3.org/2000/svg" xmlns:xlink="http://www.w3.org/1999/xlink" width="1869.403" height="1051.539" viewBox="0 0 1869.403 1051.539">
  <defs>
    <filter id="Rectangle_447" x="83.244" y="598.678" width="425.554" height="234.461" filterUnits="userSpaceOnUse">
      <feOffset input="SourceAlpha"/>
      <feGaussianBlur stdDeviation="25" result="blur"/>
      <feFlood flood-opacity="0.502"/>
      <feComposite operator="in" in2="blur"/>
      <feComposite in="SourceGraphic"/>
    </filter>
    <filter id="Path_20942" x="84.399" y="549.136" width="836.004" height="173.595" filterUnits="userSpaceOnUse">
      <feOffset input="SourceAlpha"/>
      <feGaussianBlur stdDeviation="25" result="blur-2"/>
      <feFlood flood-opacity="0.502"/>
      <feComposite operator="in" in2="blur-2"/>
      <feComposite in="SourceGraphic"/>
    </filter>
    <filter id="Path_20943" x="86.156" y="256.816" width="950.464" height="415.968" filterUnits="userSpaceOnUse">
      <feOffset input="SourceAlpha"/>
      <feGaussianBlur stdDeviation="25" result="blur-3"/>
      <feFlood flood-opacity="0.502"/>
      <feComposite operator="in" in2="blur-3"/>
      <feComposite in="SourceGraphic"/>
    </filter>
  </defs>
  <g id="text-1900" transform="translate(-15.667 -193.52)">
    <rect id="hero-BG" width="1869.403" height="1051.539" transform="translate(15.667 193.52)" fill="rgba(255,255,255,0)"/>
    <g id="btn-HERO" transform="translate(173.911 867.197)">
      <g transform="matrix(1, 0, 0, 1, -158.24, -673.68)" filter="url(#Rectangle_447)">
        <rect id="Rectangle_447-2" data-name="Rectangle 447" width="275.554" height="84.461" rx="40" transform="translate(158.24 673.68)" fill="#fff"/>
      </g>
      <path id="Path_20944" data-name="Path 20944" d="M9.324-10.227c0,1.449-.84,2.478-2.709,2.478H3.969v-4.893H6.615C8.484-12.642,9.324-11.7,9.324-10.227ZM1.575-14.6V0H3.969V-5.838H5.8L9.156,0h2.856L8.4-6.048a4.154,4.154,0,0,0,3.381-4.179c0-2.373-1.7-4.368-5.166-4.368Zm21.336-.021H14.847V0h8.064V-1.953h-5.67V-6.426h5.04V-8.379h-5.04v-4.284h5.67Zm9.6-.168a7.3,7.3,0,0,0-7.455,7.455A7.288,7.288,0,0,0,32.508.126a7.2,7.2,0,0,0,7.224-6.258V-8H31.689V-6.09H37.17a4.419,4.419,0,0,1-4.662,4.053c-2.9,0-5-2.079-5-5.292s2.1-5.271,5-5.271a4.149,4.149,0,0,1,3.906,2.2h2.877A6.957,6.957,0,0,0,32.508-14.784ZM42.084,0h2.394V-14.6H42.084ZM57.477-4.137c0-5.334-7.728-3.276-7.728-6.573,0-1.407,1.071-2.079,2.457-2.037a2.284,2.284,0,0,1,2.457,1.932h2.646c-.21-2.5-2.184-3.969-4.977-3.969-2.982,0-5.019,1.6-5.019,4.158,0,5.376,7.749,3.087,7.749,6.615,0,1.239-.945,2.142-2.625,2.142a2.342,2.342,0,0,1-2.6-2.163H47.271c0,2.583,2.247,4.179,5.166,4.179C55.692.147,57.477-1.953,57.477-4.137Zm2.079-8.505h3.906V0h2.394V-12.642h3.885V-14.6H59.556ZM80.22-14.616H72.156V0H80.22V-1.953H74.55V-6.426h5.04V-8.379H74.55v-4.284h5.67Zm10.689,4.389c0,1.449-.84,2.478-2.709,2.478H85.554v-4.893H88.2C90.069-12.642,90.909-11.7,90.909-10.227ZM83.16-14.6V0h2.394V-5.838h1.827L90.741,0H93.6L89.985-6.048a4.154,4.154,0,0,0,3.381-4.179c0-2.373-1.7-4.368-5.166-4.368Zm28.329-.021V-3.738l-7.2-10.878h-2.394V0h2.394V-10.9l7.2,10.9h2.394V-14.616Zm19.656,7.287a7.276,7.276,0,0,0-7.455-7.455,7.3,7.3,0,0,0-7.455,7.455A7.305,7.305,0,0,0,123.69.147,7.281,7.281,0,0,0,131.145-7.329Zm-12.453,0c0-3.3,2.1-5.355,5-5.355s5,2.058,5,5.355-2.1,5.4-5,5.4S118.692-4.032,118.692-7.329ZM136.458.021,139.146,0,142.4-11.046,145.467,0h2.709L152.5-14.6H149.94L146.895-2.772,143.85-14.6h-2.688L137.886-2.709,134.862-14.6h-2.541Z" transform="translate(64.401 50.506)" fill="#05446c"/>
    </g>
    <g transform="matrix(1, 0, 0, 1, 15.67, 193.52)" filter="url(#Path_20942)">
      <path id="Path_20942-2" data-name="Path 20942" d="M1.155-11.55A11.357,11.357,0,0,0,12.837.2C17.952.2,22.11-2.508,23.661-7.26H18.348A5.783,5.783,0,0,1,12.8-3.927c-4.026,0-6.9-2.97-6.9-7.623,0-4.686,2.871-7.623,6.9-7.623a5.808,5.808,0,0,1,5.544,3.3h5.313c-1.551-4.719-5.709-7.458-10.824-7.458A11.384,11.384,0,0,0,1.155-11.55Zm48.939-.033A11.5,11.5,0,0,0,38.313-23.364,11.569,11.569,0,0,0,26.5-11.583,11.577,11.577,0,0,0,38.313.231,11.53,11.53,0,0,0,50.094-11.583Zm-18.843,0c0-4.686,2.871-7.623,7.062-7.623,4.158,0,7.029,2.937,7.029,7.623s-2.871,7.689-7.029,7.689C34.122-3.894,31.251-6.9,31.251-11.583ZM53.526,0h4.62V-14.982L64.35,0h3.5l6.171-14.982V0h4.62V-23.034H73.425L66.1-5.907,58.773-23.034H53.526ZM83.193,0h4.62V-23.034h-4.62Zm24.255-23.067v15.84L96.987-23.067h-4.62V0h4.62V-15.807L107.448,0h4.62V-23.067Zm19.8-.264A11.419,11.419,0,0,0,115.5-11.55,11.4,11.4,0,0,0,127.281.2a11.257,11.257,0,0,0,11.253-8.976V-12.8H126.06v3.531h7.92a6.253,6.253,0,0,1-6.534,5.313c-4.29,0-7.194-2.9-7.194-7.59,0-4.587,2.871-7.524,7-7.524a5.792,5.792,0,0,1,5.412,2.97h5.313C136.488-20.724,132.4-23.331,127.248-23.331ZM148.6-19.3h6.138V0h4.62V-19.3h6.138v-3.729H148.6Zm42.735,7.722a11.5,11.5,0,0,0-11.781-11.781,11.569,11.569,0,0,0-11.814,11.781A11.577,11.577,0,0,0,179.553.231,11.53,11.53,0,0,0,191.334-11.583Zm-18.843,0c0-4.686,2.871-7.623,7.062-7.623,4.158,0,7.029,2.937,7.029,7.623s-2.871,7.689-7.029,7.689C175.362-3.894,172.491-6.9,172.491-11.583ZM201.4-19.3h6.138V0h4.62V-19.3h6.138v-3.729H201.4ZM236.148,0h4.62V-23.034h-4.62v9.471h-9.867v-9.471h-4.62V0h4.62V-9.8h9.867Zm22.539-23.067H245.322V0h13.365V-3.762h-8.745v-6.1H257.7V-13.53h-7.755V-19.3h8.745Zm28.149,16.4c0-8.118-11.814-5.544-11.814-10.164,0-1.881,1.353-2.772,3.168-2.706a3.041,3.041,0,0,1,3.3,2.739h5.082c-.3-4.158-3.531-6.567-8.25-6.567-4.752,0-8.118,2.508-8.118,6.666-.033,8.349,11.847,5.346,11.847,10.329,0,1.65-1.287,2.8-3.465,2.8a3.162,3.162,0,0,1-3.5-3.069h-4.95C270.2-2.277,273.9.231,278.685.231,283.932.231,286.836-3.036,286.836-6.666ZM305.316,0h4.62V-23.034h-4.62v9.471h-9.867v-9.471h-4.62V0h4.62V-9.8h9.867Zm31.647-11.583a11.5,11.5,0,0,0-11.781-11.781,11.569,11.569,0,0,0-11.814,11.781A11.577,11.577,0,0,0,325.182.231,11.53,11.53,0,0,0,336.963-11.583Zm-18.843,0c0-4.686,2.871-7.623,7.062-7.623,4.158,0,7.029,2.937,7.029,7.623s-2.871,7.689-7.029,7.689C320.991-3.894,318.12-6.9,318.12-11.583Zm34.485-4.29c0,2.079-1.155,3.432-3.729,3.432h-3.861v-6.765h3.861C351.45-19.206,352.605-17.919,352.605-15.873ZM340.4-23.034V0h4.62V-8.976h2.178L352.275,0h5.346L352.11-9.339a6.651,6.651,0,0,0,5.247-6.633c0-3.861-2.772-7.062-8.316-7.062Zm34.518-.033H361.548V0h13.365V-3.762h-8.745v-6.1h7.755V-13.53h-7.755V-19.3h8.745Zm20.3,16.4c0-8.118-11.814-5.544-11.814-10.164,0-1.881,1.353-2.772,3.168-2.706a3.041,3.041,0,0,1,3.3,2.739h5.082c-.3-4.158-3.531-6.567-8.25-6.567-4.752,0-8.118,2.508-8.118,6.666-.033,8.349,11.847,5.346,11.847,10.329,0,1.65-1.287,2.8-3.465,2.8a3.162,3.162,0,0,1-3.5-3.069h-4.95c.066,4.356,3.762,6.864,8.547,6.864C392.3.231,395.208-3.036,395.208-6.666Zm34.32-4.917a11.5,11.5,0,0,0-11.781-11.781,11.569,11.569,0,0,0-11.814,11.781A11.577,11.577,0,0,0,417.747.231,11.53,11.53,0,0,0,429.528-11.583Zm-18.843,0c0-4.686,2.871-7.623,7.062-7.623,4.158,0,7.029,2.937,7.029,7.623s-2.871,7.689-7.029,7.689C413.556-3.894,410.685-6.9,410.685-11.583ZM432.96,0h4.62V-9.735h7.359V-13.4H437.58V-19.3h9.6v-3.729H432.96ZM458.3,0h4.62V-14.982L469.128,0h3.5L478.8-14.982V0h4.62V-23.034H478.2L470.877-5.907l-7.326-17.127H458.3Zm29.667,0h4.62V-23.034h-4.62Zm25.278-6.666c0-8.118-11.814-5.544-11.814-10.164,0-1.881,1.353-2.772,3.168-2.706a3.041,3.041,0,0,1,3.3,2.739h5.082c-.3-4.158-3.531-6.567-8.25-6.567-4.752,0-8.118,2.508-8.118,6.666-.033,8.349,11.847,5.346,11.847,10.329,0,1.65-1.287,2.8-3.465,2.8a3.162,3.162,0,0,1-3.5-3.069h-4.95c.066,4.356,3.762,6.864,8.547,6.864C510.345.231,513.249-3.036,513.249-6.666Zm20.1,0c0-8.118-11.814-5.544-11.814-10.164,0-1.881,1.353-2.772,3.168-2.706A3.041,3.041,0,0,1,528-16.8h5.082c-.3-4.158-3.531-6.567-8.25-6.567-4.752,0-8.118,2.508-8.118,6.666-.033,8.349,11.847,5.346,11.847,10.329,0,1.65-1.287,2.8-3.465,2.8a3.162,3.162,0,0,1-3.5-3.069h-4.95C516.714-2.277,520.41.231,525.2.231,530.442.231,533.346-3.036,533.346-6.666ZM537.339,0h4.62V-23.034h-4.62Zm25.278-6.666c0-8.118-11.814-5.544-11.814-10.164,0-1.881,1.353-2.772,3.168-2.706a3.041,3.041,0,0,1,3.3,2.739h5.082c-.3-4.158-3.531-6.567-8.25-6.567-4.752,0-8.118,2.508-8.118,6.666-.033,8.349,11.847,5.346,11.847,10.329,0,1.65-1.287,2.8-3.465,2.8a3.162,3.162,0,0,1-3.5-3.069h-4.95c.066,4.356,3.762,6.864,8.547,6.864C559.713.231,562.617-3.036,562.617-6.666Zm20.1,0c0-8.118-11.814-5.544-11.814-10.164,0-1.881,1.353-2.772,3.168-2.706a3.041,3.041,0,0,1,3.3,2.739h5.082c-.3-4.158-3.531-6.567-8.25-6.567-4.752,0-8.118,2.508-8.118,6.666-.033,8.349,11.847,5.346,11.847,10.329,0,1.65-1.287,2.8-3.465,2.8a3.162,3.162,0,0,1-3.5-3.069h-4.95c.066,4.356,3.762,6.864,8.547,6.864C579.81.231,582.714-3.036,582.714-6.666ZM602.349,0h4.884L598.95-23.067h-5.379L585.288,0h4.851l1.518-4.389h9.174Zm-2.772-8.085h-6.666l3.333-9.636Zm10.692-.726c0,6.072,4.158,9.042,9.207,9.042s9.405-2.97,9.405-9.042V-23.034h-4.653V-8.778c0,3.168-1.716,4.818-4.686,4.818-2.937,0-4.653-1.65-4.653-4.818V-23.034h-4.62Zm33.693-14.52A11.419,11.419,0,0,0,632.214-11.55,11.4,11.4,0,0,0,643.995.2a11.257,11.257,0,0,0,11.253-8.976V-12.8H642.774v3.531h7.92A6.254,6.254,0,0,1,644.16-3.96c-4.29,0-7.194-2.9-7.194-7.59,0-4.587,2.871-7.524,7-7.524a5.792,5.792,0,0,1,5.412,2.97h5.313C653.2-20.724,649.11-23.331,643.962-23.331ZM674.322,0h4.884l-8.283-23.067h-5.379L657.261,0h4.851l1.518-4.389H672.8ZM671.55-8.085h-6.666l3.333-9.636Zm15.609,5.61a2.7,2.7,0,0,0-2.8-2.706,2.718,2.718,0,0,0-2.871,2.706A2.718,2.718,0,0,0,684.354.231,2.7,2.7,0,0,0,687.159-2.475Z" transform="translate(158.24 647.5)" fill="#fff"/>
    </g>
    <g transform="matrix(1, 0, 0, 1, 15.67, 193.52)" filter="url(#Path_20943)">
      <path id="Path_20943-2" data-name="Path 20943" d="M24.64,118.112,33.152,118l20.16-66.752L73.024,118H81.76l22.176-78.288h-8.4L77.5,108.368,58.016,39.712H49.28L29.232,108.368,11.312,39.712h-8.4ZM189.84,78.8c0-23.408-16.688-39.984-38.752-39.984-21.952,0-38.752,16.576-38.752,39.984,0,23.52,16.8,39.984,38.752,39.984C173.152,118.784,189.84,102.32,189.84,78.8Zm-69.44,0c0-20.5,13.328-33.04,30.688-33.04S181.776,58.3,181.776,78.8s-13.328,33.152-30.688,33.152S120.4,99.3,120.4,78.8Zm83.44,10.08c0,20.72,12.544,29.9,28.448,29.9s28.448-9.184,28.448-29.9V39.712H252.9v49.28c0,16.24-8.288,22.848-20.5,22.848s-20.72-6.608-20.72-22.848V39.712h-7.84Zm74.368-49.168V118H314.16v-6.384H286.048v-71.9Zm70.336,0H325.36V118h23.184c26.1,0,41.44-14.672,41.44-38.976C389.984,54.5,374.64,39.712,348.544,39.712ZM333.2,111.5v-65.3h15.344c22.176,0,33.488,12.544,33.488,32.816,0,20.16-11.312,32.48-33.488,32.48ZM455.616,39.712v65.744L412.272,39.712h-7.84V118h7.84V52.144L455.616,118h7.84V39.712ZM481.488,63.9l9.856-24.192h-9.072l-6.5,24.192Zm16.24-17.7h21.84V118h7.84V46.208h21.728v-6.5H497.728ZM592.256,118h7.84V39.712h-7.84ZM612.3,46.208h21.84V118h7.84V46.208h21.728v-6.5H612.3ZM53.536,189.272c0,9.408-6.72,15.12-18.032,15.12H16.8V173.816H35.168C46.368,173.816,53.536,179.864,53.536,189.272Zm-1.9-36.064c0,8.736-5.936,14.112-16.576,14.112H16.8v-28H34.72C46.032,139.32,51.632,144.808,51.632,153.208Zm9.744,36.848a19.71,19.71,0,0,0-15.792-19.488c7.5-2.128,14-7.84,14-18.144,0-10.976-7.84-19.712-24.3-19.712H8.96V211h27.1C52.528,211,61.376,201.816,61.376,190.056ZM116.7,132.6H75.824V211H116.7v-6.5H83.664v-29.68h29.68v-6.5H83.664V139.1H116.7Zm97.328.112v65.744l-43.344-65.744h-7.84V211h7.84V145.144L214.032,211h7.84V132.712ZM239.68,211h7.84V132.712h-7.84Zm22.064-39.2c0,23.52,16.576,39.872,38.3,39.872,17.472,0,30.464-8.736,36.064-23.52h-9.184c-4.368,10.192-13.552,16.688-26.88,16.688-17.136,0-30.24-12.656-30.24-33.04,0-20.5,13.1-33.152,30.24-33.152,13.328,0,22.512,6.5,26.88,16.912h9.184c-5.6-15.008-18.592-23.744-36.064-23.744C278.32,131.816,261.744,148.28,261.744,171.8ZM392.56,132.6H351.68V211h40.88v-6.5H359.52v-29.68H389.2v-6.5H359.52V139.1h33.04Zm40.544,6.608h21.84V211h7.84V139.208h21.728v-6.5H433.1ZM570.864,171.8c0-23.408-16.688-39.984-38.752-39.984-21.952,0-38.752,16.576-38.752,39.984,0,23.52,16.8,39.984,38.752,39.984C554.176,211.784,570.864,195.32,570.864,171.8Zm-69.44,0c0-20.5,13.328-33.04,30.688-33.04S562.8,151.3,562.8,171.8s-13.328,33.152-30.688,33.152S501.424,192.3,501.424,171.8Zm114.464-39.088V211H651.84v-6.384H623.728v-71.9ZM663.04,211h7.84V132.712h-7.84Zm53.536-8.512-25.648-69.776h-8.512L712.1,211h8.96l29.68-78.288h-8.288Zm86.8-69.888H762.5V211h40.88v-6.5h-33.04v-29.68h29.68v-6.5h-29.68V139.1h33.04ZM3.36,232.208H25.2V304h7.84V232.208H54.768v-6.5H3.36ZM141.12,264.8c0-23.408-16.688-39.984-38.752-39.984-21.952,0-38.752,16.576-38.752,39.984,0,23.52,16.8,39.984,38.752,39.984C124.432,304.784,141.12,288.32,141.12,264.8Zm-69.44,0c0-20.5,13.328-33.04,30.688-33.04s30.688,12.544,30.688,33.04-13.328,33.152-30.688,33.152S71.68,285.3,71.68,264.8Zm118.944-39.984c-21.952,0-38.752,16.576-38.752,39.984,0,23.52,16.8,39.984,38.752,39.984,21.392,0,36.848-15.9,38.08-36.624v-5.712H187.488v6.384h32.928c-1.232,17.808-13.328,28.9-29.792,28.9-17.36,0-30.688-12.656-30.688-32.928s13.328-32.816,30.688-32.816c12.544,0,22.064,6.5,26.432,16.576h9.184C220.64,233.664,207.424,224.816,190.624,224.816Zm93.3.784H243.04V304h40.88v-6.5H250.88v-29.68h29.68v-6.5H250.88V232.1h33.04Zm9.856,6.608h21.84V304h7.84V232.208h21.728v-6.5H293.776ZM407.9,304h7.84V225.712H407.9V260.88H365.456V225.712h-7.84V304h7.84V267.376H407.9Zm66.64-78.4h-40.88V304h40.88v-6.5H441.5v-29.68h29.68v-6.5H441.5V232.1h33.04Zm57.568,22.848c0,9.52-5.712,16.464-18.48,16.464H497.84V232.32h15.68C526.736,232.32,532.112,238.592,532.112,248.448ZM490,225.712V304h7.84V271.3h14.448L531.664,304h9.408l-20.16-33.264c13.216-2.464,19.264-11.536,19.264-22.288,0-12.88-8.512-22.736-26.656-22.736Zm72.688,73.024a5.656,5.656,0,1,0-11.312,0,5.658,5.658,0,1,0,11.312,0Z" transform="translate(158.24 293)" fill="#fff"/>
    </g>
  </g>
</svg>
