<svg xmlns="http://www.w3.org/2000/svg" xmlns:xlink="http://www.w3.org/1999/xlink" width="505.5" height="621.929" viewBox="0 0 505.5 621.929">
  <defs>
    <filter id="Path_20947" x="1.3" y="257.65" width="504.2" height="265.7" filterUnits="userSpaceOnUse">
      <feOffset input="SourceAlpha"/>
      <feGaussianBlur stdDeviation="25" result="blur"/>
      <feFlood flood-opacity="0.502"/>
      <feComposite operator="in" in2="blur"/>
      <feComposite in="SourceGraphic"/>
    </filter>
    <filter id="Rectangle_447" x="0" y="431.929" width="280.5" height="190" filterUnits="userSpaceOnUse">
      <feOffset input="SourceAlpha"/>
      <feGaussianBlur stdDeviation="25" result="blur-2"/>
      <feFlood flood-opacity="0.502"/>
      <feComposite operator="in" in2="blur-2"/>
      <feComposite in="SourceGraphic"/>
    </filter>
  </defs>
  <g id="text-420" transform="translate(44 -109)">
    <rect id="hero-420" width="412" height="580" transform="translate(4 109)" fill="rgba(255,255,255,0)"/>
    <g transform="matrix(1, 0, 0, 1, -44, 109)" filter="url(#Path_20947)">
      <path id="Path_20947-2" data-name="Path 20947" d="M11,53.05,14.8,53l9-29.8L32.6,53h3.9l9.9-34.95H42.65L34.6,48.7,25.9,18.05H22L13.05,48.7l-8-30.65H1.3ZM84.75,35.5c0-10.45-7.45-17.85-17.3-17.85-9.8,0-17.3,7.4-17.3,17.85,0,10.5,7.5,17.85,17.3,17.85C77.3,53.35,84.75,46,84.75,35.5Zm-31,0c0-9.15,5.95-14.75,13.7-14.75s13.7,5.6,13.7,14.75S75.2,50.3,67.45,50.3,53.75,44.65,53.75,35.5ZM91,40c0,9.25,5.6,13.35,12.7,13.35s12.7-4.1,12.7-13.35V18.05h-3.5v22c0,7.25-3.7,10.2-9.15,10.2S94.5,47.3,94.5,40.05v-22H91Zm33.2-21.95V53h16.05V50.15H127.7V18.05Zm31.4,0H145.25V53H155.6c11.65,0,18.5-6.55,18.5-17.4C174.1,24.65,167.25,18.05,155.6,18.05ZM148.75,50.1V20.95h6.85c9.9,0,14.95,5.6,14.95,14.65,0,9-5.05,14.5-14.95,14.5ZM203.4,18.05V47.4L184.05,18.05h-3.5V53h3.5V23.6L203.4,53h3.5V18.05Zm11.55,10.8,4.4-10.8H215.3l-2.9,10.8Zm7.25-7.9h9.75V53h3.5V20.95h9.7v-2.9H222.2ZM264.4,53h3.5V18.05h-3.5Zm8.95-32.05h9.75V53h3.5V20.95h9.7v-2.9H273.35ZM23.9,83.3c0,4.2-3,6.75-8.05,6.75H7.5V76.4h8.2C20.7,76.4,23.9,79.1,23.9,83.3Zm-.85-16.1c0,3.9-2.65,6.3-7.4,6.3H7.5V61h8C20.55,61,23.05,63.45,23.05,67.2ZM27.4,83.65a8.8,8.8,0,0,0-7.05-8.7,8.041,8.041,0,0,0,6.25-8.1c0-4.9-3.5-8.8-10.85-8.8H4V93H16.1C23.45,93,27.4,88.9,27.4,83.65ZM52.1,58H33.85V93H52.1V90.1H37.35V76.85H50.6v-2.9H37.35V60.9H52.1Zm43.45.05V87.4L76.2,58.05H72.7V93h3.5V63.6L95.55,93h3.5V58.05ZM107,93h3.5V58.05H107Zm9.85-17.5c0,10.5,7.4,17.8,17.1,17.8,7.8,0,13.6-3.9,16.1-10.5h-4.1c-1.95,4.55-6.05,7.45-12,7.45-7.65,0-13.5-5.65-13.5-14.75,0-9.15,5.85-14.8,13.5-14.8,5.95,0,10.05,2.9,12,7.55h4.1c-2.5-6.7-8.3-10.6-16.1-10.6C124.25,57.65,116.85,65,116.85,75.5ZM175.25,58H157V93h18.25V90.1H160.5V76.85h13.25v-2.9H160.5V60.9h14.75Zm18.1,2.95h9.75V93h3.5V60.95h9.7v-2.9H193.35Zm61.5,14.55c0-10.45-7.45-17.85-17.3-17.85-9.8,0-17.3,7.4-17.3,17.85,0,10.5,7.5,17.85,17.3,17.85C247.4,93.35,254.85,86,254.85,75.5Zm-31,0c0-9.15,5.95-14.75,13.7-14.75s13.7,5.6,13.7,14.75-5.95,14.8-13.7,14.8S223.85,84.65,223.85,75.5ZM4,98.05V133H20.05v-2.85H7.5V98.05ZM25.05,133h3.5V98.05h-3.5Zm23.9-3.8L37.5,98.05H33.7L46.95,133h4L64.2,98.05H60.5ZM87.7,98H69.45v35H87.7v-2.9H72.95V116.85H86.2v-2.9H72.95V100.9H87.7Zm18.1,2.95h9.75V133h3.5V100.95h9.7v-2.9H105.8Zm61.5,14.55c0-10.45-7.45-17.85-17.3-17.85-9.8,0-17.3,7.4-17.3,17.85,0,10.5,7.5,17.85,17.3,17.85C159.85,133.35,167.3,126,167.3,115.5Zm-31,0c0-9.15,5.95-14.75,13.7-14.75s13.7,5.6,13.7,14.75-5.95,14.8-13.7,14.8S136.3,124.65,136.3,115.5Zm53.1-17.85c-9.8,0-17.3,7.4-17.3,17.85,0,10.5,7.5,17.85,17.3,17.85,9.55,0,16.45-7.1,17-16.35v-2.55H188v2.85h14.7c-.55,7.95-5.95,12.9-13.3,12.9-7.75,0-13.7-5.65-13.7-14.7s5.95-14.65,13.7-14.65c5.6,0,9.85,2.9,11.8,7.4h4.1C202.8,101.6,196.9,97.65,189.4,97.65Zm41.65.35H212.8v35h18.25v-2.9H216.3V116.85h13.25v-2.9H216.3V100.9h14.75Zm4.4,2.95h9.75V133h3.5V100.95h9.7v-2.9H235.45ZM286.4,133h3.5V98.05h-3.5v15.7H267.45V98.05h-3.5V133h3.5V116.65H286.4Zm29.75-35H297.9v35h18.25v-2.9H301.4V116.85h13.25v-2.9H301.4V100.9h14.75Zm25.7,10.2c0,4.25-2.55,7.35-8.25,7.35h-7.05V101h7C339.45,101,341.85,103.8,341.85,108.2Zm-18.8-10.15V133h3.5V118.4H333l8.65,14.6h4.2l-9-14.85c5.9-1.1,8.6-5.15,8.6-9.95,0-5.75-3.8-10.15-11.9-10.15Zm32.45,32.6a2.525,2.525,0,1,0-5.05,0,2.526,2.526,0,1,0,5.05,0Z" transform="translate(75 315)" fill="#fff"/>
    </g>
    <g id="btn-HERO" transform="translate(31 615.929)">
      <g transform="matrix(1, 0, 0, 1, -75, -506.93)" filter="url(#Rectangle_447)">
        <rect id="Rectangle_447-2" data-name="Rectangle 447" width="130.5" height="40" rx="20" transform="translate(75 506.93)" fill="#fff"/>
      </g>
      <path id="Path_20941" data-name="Path 20941" d="M5.521-12.463c0,.738-.428,1.262-1.38,1.262H2.794v-2.492H4.142C5.093-13.693,5.521-13.212,5.521-12.463ZM1.575-14.688v7.433H2.794v-2.973h.93L5.436-7.255H6.89l-1.839-3.08a2.115,2.115,0,0,0,1.722-2.128c0-1.208-.866-2.224-2.631-2.224ZM12.44-14.7H8.334v7.443H12.44V-8.25H9.553v-2.278H12.12v-.995H9.553V-13.7H12.44Zm4.887-.086a3.718,3.718,0,0,0-3.8,3.8,3.711,3.711,0,0,0,3.8,3.8,3.665,3.665,0,0,0,3.679-3.187v-.952h-4.1v.973H19.7a2.25,2.25,0,0,1-2.374,2.064,2.5,2.5,0,0,1-2.545-2.695,2.487,2.487,0,0,1,2.545-2.684,2.113,2.113,0,0,1,1.989,1.123h1.465A3.543,3.543,0,0,0,17.328-14.784ZM22.2-7.255h1.219v-7.433H22.2Zm7.839-2.107c0-2.716-3.936-1.668-3.936-3.347,0-.717.545-1.059,1.251-1.037a1.163,1.163,0,0,1,1.251.984h1.347a2.266,2.266,0,0,0-2.535-2.021c-1.519,0-2.556.813-2.556,2.117,0,2.738,3.946,1.572,3.946,3.369,0,.631-.481,1.091-1.337,1.091a1.193,1.193,0,0,1-1.326-1.1h-1.3c0,1.315,1.144,2.128,2.631,2.128A2.309,2.309,0,0,0,30.043-9.362ZM31.1-13.693h1.989v6.438H34.31v-6.438h1.978v-.995H31.1ZM41.625-14.7H37.519v7.443h4.107V-8.25H38.738v-2.278H41.3v-.995H38.738V-13.7h2.887Zm5.443,2.235c0,.738-.428,1.262-1.38,1.262H44.342v-2.492h1.347C46.641-13.693,47.069-13.212,47.069-12.463Zm-3.946-2.224v7.433h1.219v-2.973h.93l1.711,2.973h1.454L46.6-10.335a2.115,2.115,0,0,0,1.722-2.128c0-1.208-.866-2.224-2.631-2.224ZM57.549-14.7v5.54L53.881-14.7H52.662v7.443h1.219v-5.55l3.668,5.55h1.219V-14.7Zm10.01,3.711a3.705,3.705,0,0,0-3.8-3.8,3.718,3.718,0,0,0-3.8,3.8,3.72,3.72,0,0,0,3.8,3.807A3.708,3.708,0,0,0,67.559-10.988Zm-6.342,0a2.5,2.5,0,0,1,2.545-2.727,2.5,2.5,0,0,1,2.545,2.727,2.517,2.517,0,0,1-2.545,2.748A2.517,2.517,0,0,1,61.217-10.988Zm9.047,3.743,1.369-.011,1.658-5.625,1.561,5.625h1.38l2.2-7.433h-1.3L75.58-8.667l-1.551-6.021H72.66L70.992-8.635l-1.54-6.053H68.158Z" transform="translate(26.821 31.428)" fill="#05446c"/>
    </g>
  </g>
</svg>
